<svg width="301" height="273" viewBox="0 0 301 273" fill="none" xmlns="http://www.w3.org/2000/svg">
    <mask id="path-1-inside-1_6278_17119" fill="white">
    <path fill-rule="evenodd" clip-rule="evenodd" d="M115.603 21.8739C115.603 20.7739 114.903 19.3739 115.603 18.3739C116.203 17.7739 117.303 17.5739 118.003 17.0739C119.703 15.9739 120.203 13.9739 121.803 13.0739C124.703 11.9739 127.203 13.4739 130.103 12.3739C131.003 12.3739 132.003 11.8739 132.203 10.9739C132.403 10.2739 132.003 9.47388 132.003 8.77388C131.903 7.97388 132.703 7.27388 133.303 6.47388C133.803 5.67387 134.303 4.57388 135.303 4.77388C135.903 4.77388 136.403 5.07387 137.003 5.07387C138.403 5.37388 139.103 4.07388 140.103 3.47388C142.003 2.77388 143.803 1.97388 145.703 1.47388C147.403 1.47388 149.503 3.27388 151.003 1.77388C151.503 1.37388 152.103 0.873875 152.803 0.973875C154.103 1.07388 157.203 2.67388 155.903 4.17388C155.603 4.57388 155.603 4.97388 156.103 5.17388C161.003 7.77388 160.203 3.47388 163.203 5.67388C164.003 6.47388 165.103 6.57388 166.203 6.17388C167.903 5.27388 170.403 7.07387 170.803 8.57387C170.803 9.67387 169.503 11.5739 171.003 12.2739C172.403 13.0739 174.103 13.0739 175.703 12.8739C177.003 13.1739 178.403 12.8739 179.603 12.7739C181.003 12.9739 180.303 14.9739 180.203 16.0739C179.903 17.5739 178.103 17.4739 177.203 18.3739C175.403 20.3739 176.903 23.6739 177.203 25.9739C177.303 26.8739 177.403 27.7739 178.203 28.2739C179.303 28.7739 180.703 29.0739 180.603 30.6739C180.303 33.2739 178.203 36.0739 179.503 38.7739C180.203 40.0739 181.803 38.3739 183.003 38.8739C184.303 39.2739 185.803 39.9739 186.303 41.2739C187.203 43.1739 185.803 44.8739 185.503 46.7739C185.603 51.2739 182.103 55.7739 183.903 60.2739C185.203 61.8739 187.203 60.4739 188.603 60.4739C189.903 61.2739 190.903 62.8739 192.303 63.4739C193.403 63.8739 194.603 64.1739 195.703 64.6739C196.503 64.9739 197.203 63.7739 198.003 64.0739C198.703 64.2739 199.203 64.9739 199.903 65.0739C201.203 65.1739 202.603 64.6739 203.903 65.4739C207.203 66.7739 203.703 69.0739 206.003 69.3739C206.803 69.3739 207.803 69.6739 208.303 70.4739C208.603 70.9739 208.603 71.5739 208.603 72.1739C208.603 73.5739 210.203 74.3739 210.003 75.6739C209.103 77.9739 211.003 78.5739 212.403 79.8739C213.303 80.3739 214.303 80.9739 215.003 81.7739C215.603 82.3739 216.503 81.7739 217.103 81.3739C218.403 80.2739 219.903 81.5739 221.303 81.0739C222.403 80.5739 223.603 80.2739 224.503 81.3739C226.703 83.3739 229.903 81.6739 232.403 82.6739C234.003 83.3739 234.603 84.9739 235.203 86.5739C235.703 87.3739 236.603 87.8739 237.003 88.7739C237.303 89.3739 237.903 89.7739 238.603 90.0739C243.103 91.1739 239.403 93.9739 241.203 96.0739C242.503 96.4739 243.403 97.5739 244.503 98.1739C246.403 98.6739 248.603 99.1739 250.403 99.5739C252.903 100.574 257.103 103.674 259.003 104.474C259.703 104.774 260.103 104.174 260.703 103.874C261.503 103.374 262.603 103.474 263.303 102.874C264.603 101.774 265.503 102.274 267.303 101.774C268.103 101.574 268.903 101.474 269.703 101.774C270.503 102.074 270.603 103.174 271.403 103.074C272.803 102.774 274.503 102.374 275.303 101.274C275.603 100.674 275.303 99.9739 275.603 99.2739C277.103 96.5739 279.503 94.4739 281.603 92.2739C282.503 91.4739 283.103 90.0739 284.403 89.8739C285.103 89.9739 285.803 90.5739 286.603 90.6739C287.703 90.9739 288.803 89.5739 290.003 89.3739C292.203 88.8739 293.303 91.5739 294.503 92.9739C295.203 94.3739 296.703 94.8739 298.203 94.7739C299.303 94.7739 299.203 95.8739 299.803 96.4739C300.403 97.1739 300.603 98.1739 300.103 98.9739C299.703 99.9739 298.403 100.674 298.303 101.474C298.503 103.374 299.903 104.874 299.503 106.974C299.503 107.874 299.603 109.174 298.703 109.674C296.303 110.174 296.203 112.974 295.503 114.974C294.603 116.874 291.603 115.274 290.803 117.374C290.403 118.474 289.403 119.474 289.303 120.674C289.303 121.274 289.803 121.674 290.103 122.074C291.103 123.574 290.603 126.174 291.603 127.874C292.803 129.174 290.503 135.174 289.103 135.474C281.103 135.474 283.303 142.874 279.803 147.074C277.203 148.074 275.403 150.374 273.603 152.374C272.103 153.474 273.403 155.074 273.503 156.474C273.103 158.674 271.803 161.174 271.903 163.374C272.303 167.174 269.203 164.574 268.003 166.674C267.703 167.374 267.503 168.374 266.503 168.374C265.603 168.374 264.603 168.674 263.703 168.274C262.003 166.574 259.403 164.974 258.003 167.774C256.903 170.874 255.703 174.474 254.403 177.574C254.303 178.974 255.003 181.474 253.503 182.374C251.503 182.974 250.903 185.274 249.403 186.574C248.103 187.474 246.403 187.874 246.003 189.674C245.003 191.774 244.803 194.174 245.303 196.474C247.303 200.074 249.903 203.374 250.303 207.674C250.103 208.774 248.903 207.374 248.303 207.874C247.203 208.774 245.703 210.074 244.203 209.874C241.703 208.874 236.803 208.574 236.503 205.074C236.503 202.874 234.503 202.174 233.103 200.974C232.603 200.474 232.303 199.474 231.603 199.274C230.603 199.274 229.903 200.074 228.803 199.474C226.903 198.574 226.203 200.874 224.903 201.674C223.603 202.274 224.103 203.774 223.303 204.674C222.503 205.674 220.703 204.974 219.903 205.674C218.503 208.474 216.703 206.774 214.203 206.674C212.903 206.774 211.603 206.874 210.303 206.974C208.903 207.474 208.303 210.074 209.003 211.474C209.703 212.874 211.803 212.674 212.703 213.974C213.103 214.474 213.703 215.574 212.903 215.774C211.003 215.074 210.703 215.974 209.403 217.074C207.203 217.874 208.403 219.674 208.503 221.274C208.503 223.274 206.303 223.474 204.703 224.774C202.003 226.874 201.403 224.174 199.003 223.274C196.703 222.874 195.603 225.374 193.903 226.374C192.103 227.574 189.603 228.274 187.803 229.474C186.203 229.674 184.603 230.274 183.103 230.974C179.203 232.774 176.003 236.074 173.103 239.174C172.203 240.274 171.903 241.974 170.703 242.674C169.603 243.374 168.003 242.674 166.803 242.474C165.703 242.374 164.803 242.974 163.703 242.874C161.403 242.874 161.703 246.074 158.503 244.674C157.103 244.174 155.803 244.374 154.503 243.874C153.203 243.274 152.003 243.874 150.803 244.374C149.903 244.674 148.403 243.974 147.803 244.774C147.103 245.474 147.303 247.074 148.003 247.774C149.503 249.374 151.503 245.574 152.703 247.674C153.803 249.574 150.703 250.374 150.003 251.474C149.503 252.374 150.103 253.474 150.103 254.374C150.103 257.074 146.703 258.074 144.603 258.674C143.103 259.474 140.603 259.974 140.403 261.974C140.203 264.174 139.303 266.174 140.003 268.374C140.103 271.674 137.103 267.874 135.903 267.474C131.103 264.974 126.503 262.574 121.703 260.074C118.103 258.374 114.503 256.074 110.803 254.574C106.003 253.874 100.203 253.974 95.3034 253.574C93.0034 253.774 84.2034 252.174 83.8034 253.674C83.9034 254.374 84.9034 254.674 85.0034 255.474C85.3034 256.774 83.5034 257.474 83.3034 258.574C83.7034 261.074 87.7034 261.574 84.5034 264.174C83.4034 264.674 83.4034 265.874 83.2034 266.974C81.4034 269.074 80.0034 271.874 77.3034 272.674C76.7034 272.774 76.1034 272.474 75.6034 272.574C75.0034 272.574 74.8034 273.074 73.9034 272.974C73.6034 272.974 73.3034 272.874 73.0034 272.874C71.2034 272.274 69.0034 270.174 69.1034 267.974C69.1034 267.174 69.4034 266.474 68.9034 265.774C67.2034 263.574 64.2034 262.874 62.5034 260.874C61.3034 259.474 60.7034 257.374 58.9034 256.674C55.5034 255.574 52.2034 256.674 48.8034 256.574C46.0034 256.574 43.3034 257.474 40.4034 256.974C37.4034 255.974 34.1034 255.974 31.3034 254.374C28.9034 251.774 29.4034 249.574 24.9034 250.274C21.5034 250.974 18.2034 249.874 14.8034 250.474C12.8034 250.974 10.8034 250.274 8.70336 250.274C7.40336 250.274 4.90336 250.474 5.20336 248.674C5.40336 248.074 5.70336 247.874 6.10336 247.674C6.90336 246.874 5.90336 246.274 5.80336 245.474C5.70336 244.674 5.20336 243.774 5.90336 243.074C6.30336 242.074 6.30336 240.774 7.00336 239.674C7.70336 238.674 7.20336 237.974 6.40336 237.274C5.90336 236.574 4.90336 235.474 5.00336 234.474C5.10336 233.774 5.20336 232.874 4.90336 232.274C5.00336 231.774 5.00336 231.074 4.70336 230.774C4.50336 230.474 4.50336 230.274 4.30336 229.774C3.90336 229.174 3.00336 228.974 2.70336 228.174C2.10336 227.274 2.80336 226.174 2.70336 225.074C2.50336 224.574 2.10336 224.074 1.80336 223.674C0.903362 222.374 1.80336 220.674 1.40336 219.174C1.30336 218.174 0.303362 216.274 0.703362 215.574C1.00336 215.174 2.30336 215.374 3.00336 214.974C3.80336 214.674 4.10336 213.774 4.70336 213.274C5.60336 212.474 7.70336 212.674 9.20336 212.774C12.0034 213.874 14.0034 212.774 12.5034 209.974C12.0034 209.074 11.4034 209.374 10.9034 209.674C9.90336 209.774 9.20336 208.474 8.30336 208.174C7.50336 207.574 6.40336 206.674 7.00336 205.574C7.80336 204.274 9.70336 204.074 10.8034 203.074C11.2034 202.674 12.2034 202.074 12.6034 201.874C13.3034 201.574 11.8034 200.974 12.5034 200.574C12.6034 200.474 12.7034 200.474 12.8034 200.474C13.8034 200.174 13.3034 199.574 13.6034 198.774C14.2034 197.674 15.1034 195.974 15.9034 195.474C16.6034 195.174 17.4034 195.474 18.1034 195.574C19.1034 195.774 19.8034 195.074 20.7034 195.274C21.4034 195.374 22.3034 195.674 22.9034 195.074C24.0034 193.674 26.1034 195.974 27.3034 194.574C27.8034 193.874 28.3034 192.974 29.3034 192.474C30.3034 191.974 31.4034 192.274 32.3034 192.374C33.1034 192.374 34.2034 192.374 34.9034 192.374C35.6034 192.374 36.3034 191.874 37.0034 192.074C38.3034 193.374 38.3034 192.574 38.4034 191.274C39.0034 188.574 37.7034 186.174 35.1034 185.274C34.3034 184.974 33.7034 183.874 33.1034 183.774C32.5034 183.674 31.8034 183.874 31.5034 183.174C31.4034 182.774 32.3034 182.274 32.8034 181.974C33.3034 181.574 33.5034 181.074 33.6034 180.274C33.8034 179.474 33.7034 178.274 33.1034 177.574C32.7034 177.074 32.1034 176.774 32.2034 176.074C33.6034 173.274 36.4034 170.874 37.0034 167.674C37.5034 167.074 38.4034 167.874 38.9034 168.174C42.2034 170.074 43.9034 166.374 43.0034 163.674C43.2034 162.574 42.9034 162.274 42.1034 161.674C41.3034 161.174 41.5034 160.374 41.1034 159.774C40.5034 159.074 40.6034 158.274 40.8034 157.374C41.3034 155.274 40.0034 153.374 39.8034 151.474C39.7034 150.774 39.5034 150.374 40.2034 150.074C41.9034 149.274 44.0034 149.874 45.7034 150.274C47.1034 149.574 48.0034 147.474 48.1034 145.874C48.1034 144.674 47.0034 143.774 46.2034 142.874C45.3034 141.974 45.0034 140.774 44.1034 139.974C43.0034 138.874 41.3034 138.874 39.9034 138.574C37.6034 138.074 36.5034 135.974 35.0034 134.474C34.1034 133.874 32.7034 133.974 31.9034 133.474C30.8034 132.474 30.6034 130.274 29.7034 128.974C29.3034 128.474 28.9034 128.174 28.3034 128.074C26.0034 127.874 27.0034 125.074 26.0034 123.774C25.1034 121.774 21.8034 120.874 22.5034 118.274C22.7034 117.074 25.5034 118.174 25.5034 117.174C24.7034 115.674 22.8034 114.374 22.4034 112.674C27.6034 111.774 25.4034 109.874 26.7034 106.374C28.5034 103.474 34.9034 112.974 34.6034 105.174C34.4034 104.674 33.7034 104.374 33.1034 103.974C31.7034 103.174 30.6034 100.974 31.8034 99.5739C34.1034 97.0739 33.9034 96.7739 37.3034 97.7739C39.1034 98.2739 41.0034 96.5739 42.6034 97.4739C43.2034 97.7739 43.9034 98.0739 44.6034 97.8739C46.1034 97.8739 47.1034 96.2739 48.5034 96.3739C48.9034 96.3739 49.3034 96.4739 49.7034 96.4739C51.0034 96.0739 51.1034 93.5739 51.1034 92.3739C51.1034 91.6739 51.0034 90.8739 51.8034 90.7739C52.4034 90.5739 53.2034 90.5739 53.5034 89.8739C54.1034 88.4739 54.8034 87.1739 54.5034 85.5739C54.2034 84.1739 53.2034 81.9739 54.7034 80.9739C56.3034 80.4739 58.7034 81.3739 60.1034 82.0739C61.2034 82.7739 62.4034 82.4739 63.4034 81.9739C64.0034 81.6739 64.6034 81.8739 65.2034 82.2739C68.2034 84.8739 71.0034 83.4739 74.3034 82.4739C76.2034 81.6739 78.2034 82.7739 80.1034 82.1739C81.3034 81.5739 81.9034 79.4739 83.3034 79.0739C85.6034 78.8739 87.9034 78.4739 90.2034 77.6739C91.4034 77.0739 92.6034 76.3739 93.9034 75.9739C96.9034 74.2739 92.7034 69.5739 95.2034 67.5739C96.0034 67.2739 96.9034 66.9739 97.2034 66.0739C97.7034 64.4739 96.3034 62.9739 97.9034 61.7739C100.603 59.0739 102.603 55.1739 105.603 52.8739C106.603 51.7739 106.703 49.9739 107.703 48.8739C108.403 48.2739 109.603 48.8739 110.103 47.9739C111.103 44.8739 109.603 41.5739 111.203 38.6739C111.803 37.6739 112.503 36.7739 112.103 35.5739C111.903 34.4739 110.803 33.8739 111.103 32.7739C112.003 30.8739 114.603 32.3739 115.003 30.0739C115.303 28.9739 117.803 29.5739 118.003 28.4739C118.503 26.0739 115.703 24.3739 116.003 21.9739L115.603 21.8739Z"/>
    </mask>
    <path fill-rule="evenodd" clip-rule="evenodd" d="M115.603 21.8739C115.603 20.7739 114.903 19.3739 115.603 18.3739C116.203 17.7739 117.303 17.5739 118.003 17.0739C119.703 15.9739 120.203 13.9739 121.803 13.0739C124.703 11.9739 127.203 13.4739 130.103 12.3739C131.003 12.3739 132.003 11.8739 132.203 10.9739C132.403 10.2739 132.003 9.47388 132.003 8.77388C131.903 7.97388 132.703 7.27388 133.303 6.47388C133.803 5.67387 134.303 4.57388 135.303 4.77388C135.903 4.77388 136.403 5.07387 137.003 5.07387C138.403 5.37388 139.103 4.07388 140.103 3.47388C142.003 2.77388 143.803 1.97388 145.703 1.47388C147.403 1.47388 149.503 3.27388 151.003 1.77388C151.503 1.37388 152.103 0.873875 152.803 0.973875C154.103 1.07388 157.203 2.67388 155.903 4.17388C155.603 4.57388 155.603 4.97388 156.103 5.17388C161.003 7.77388 160.203 3.47388 163.203 5.67388C164.003 6.47388 165.103 6.57388 166.203 6.17388C167.903 5.27388 170.403 7.07387 170.803 8.57387C170.803 9.67387 169.503 11.5739 171.003 12.2739C172.403 13.0739 174.103 13.0739 175.703 12.8739C177.003 13.1739 178.403 12.8739 179.603 12.7739C181.003 12.9739 180.303 14.9739 180.203 16.0739C179.903 17.5739 178.103 17.4739 177.203 18.3739C175.403 20.3739 176.903 23.6739 177.203 25.9739C177.303 26.8739 177.403 27.7739 178.203 28.2739C179.303 28.7739 180.703 29.0739 180.603 30.6739C180.303 33.2739 178.203 36.0739 179.503 38.7739C180.203 40.0739 181.803 38.3739 183.003 38.8739C184.303 39.2739 185.803 39.9739 186.303 41.2739C187.203 43.1739 185.803 44.8739 185.503 46.7739C185.603 51.2739 182.103 55.7739 183.903 60.2739C185.203 61.8739 187.203 60.4739 188.603 60.4739C189.903 61.2739 190.903 62.8739 192.303 63.4739C193.403 63.8739 194.603 64.1739 195.703 64.6739C196.503 64.9739 197.203 63.7739 198.003 64.0739C198.703 64.2739 199.203 64.9739 199.903 65.0739C201.203 65.1739 202.603 64.6739 203.903 65.4739C207.203 66.7739 203.703 69.0739 206.003 69.3739C206.803 69.3739 207.803 69.6739 208.303 70.4739C208.603 70.9739 208.603 71.5739 208.603 72.1739C208.603 73.5739 210.203 74.3739 210.003 75.6739C209.103 77.9739 211.003 78.5739 212.403 79.8739C213.303 80.3739 214.303 80.9739 215.003 81.7739C215.603 82.3739 216.503 81.7739 217.103 81.3739C218.403 80.2739 219.903 81.5739 221.303 81.0739C222.403 80.5739 223.603 80.2739 224.503 81.3739C226.703 83.3739 229.903 81.6739 232.403 82.6739C234.003 83.3739 234.603 84.9739 235.203 86.5739C235.703 87.3739 236.603 87.8739 237.003 88.7739C237.303 89.3739 237.903 89.7739 238.603 90.0739C243.103 91.1739 239.403 93.9739 241.203 96.0739C242.503 96.4739 243.403 97.5739 244.503 98.1739C246.403 98.6739 248.603 99.1739 250.403 99.5739C252.903 100.574 257.103 103.674 259.003 104.474C259.703 104.774 260.103 104.174 260.703 103.874C261.503 103.374 262.603 103.474 263.303 102.874C264.603 101.774 265.503 102.274 267.303 101.774C268.103 101.574 268.903 101.474 269.703 101.774C270.503 102.074 270.603 103.174 271.403 103.074C272.803 102.774 274.503 102.374 275.303 101.274C275.603 100.674 275.303 99.9739 275.603 99.2739C277.103 96.5739 279.503 94.4739 281.603 92.2739C282.503 91.4739 283.103 90.0739 284.403 89.8739C285.103 89.9739 285.803 90.5739 286.603 90.6739C287.703 90.9739 288.803 89.5739 290.003 89.3739C292.203 88.8739 293.303 91.5739 294.503 92.9739C295.203 94.3739 296.703 94.8739 298.203 94.7739C299.303 94.7739 299.203 95.8739 299.803 96.4739C300.403 97.1739 300.603 98.1739 300.103 98.9739C299.703 99.9739 298.403 100.674 298.303 101.474C298.503 103.374 299.903 104.874 299.503 106.974C299.503 107.874 299.603 109.174 298.703 109.674C296.303 110.174 296.203 112.974 295.503 114.974C294.603 116.874 291.603 115.274 290.803 117.374C290.403 118.474 289.403 119.474 289.303 120.674C289.303 121.274 289.803 121.674 290.103 122.074C291.103 123.574 290.603 126.174 291.603 127.874C292.803 129.174 290.503 135.174 289.103 135.474C281.103 135.474 283.303 142.874 279.803 147.074C277.203 148.074 275.403 150.374 273.603 152.374C272.103 153.474 273.403 155.074 273.503 156.474C273.103 158.674 271.803 161.174 271.903 163.374C272.303 167.174 269.203 164.574 268.003 166.674C267.703 167.374 267.503 168.374 266.503 168.374C265.603 168.374 264.603 168.674 263.703 168.274C262.003 166.574 259.403 164.974 258.003 167.774C256.903 170.874 255.703 174.474 254.403 177.574C254.303 178.974 255.003 181.474 253.503 182.374C251.503 182.974 250.903 185.274 249.403 186.574C248.103 187.474 246.403 187.874 246.003 189.674C245.003 191.774 244.803 194.174 245.303 196.474C247.303 200.074 249.903 203.374 250.303 207.674C250.103 208.774 248.903 207.374 248.303 207.874C247.203 208.774 245.703 210.074 244.203 209.874C241.703 208.874 236.803 208.574 236.503 205.074C236.503 202.874 234.503 202.174 233.103 200.974C232.603 200.474 232.303 199.474 231.603 199.274C230.603 199.274 229.903 200.074 228.803 199.474C226.903 198.574 226.203 200.874 224.903 201.674C223.603 202.274 224.103 203.774 223.303 204.674C222.503 205.674 220.703 204.974 219.903 205.674C218.503 208.474 216.703 206.774 214.203 206.674C212.903 206.774 211.603 206.874 210.303 206.974C208.903 207.474 208.303 210.074 209.003 211.474C209.703 212.874 211.803 212.674 212.703 213.974C213.103 214.474 213.703 215.574 212.903 215.774C211.003 215.074 210.703 215.974 209.403 217.074C207.203 217.874 208.403 219.674 208.503 221.274C208.503 223.274 206.303 223.474 204.703 224.774C202.003 226.874 201.403 224.174 199.003 223.274C196.703 222.874 195.603 225.374 193.903 226.374C192.103 227.574 189.603 228.274 187.803 229.474C186.203 229.674 184.603 230.274 183.103 230.974C179.203 232.774 176.003 236.074 173.103 239.174C172.203 240.274 171.903 241.974 170.703 242.674C169.603 243.374 168.003 242.674 166.803 242.474C165.703 242.374 164.803 242.974 163.703 242.874C161.403 242.874 161.703 246.074 158.503 244.674C157.103 244.174 155.803 244.374 154.503 243.874C153.203 243.274 152.003 243.874 150.803 244.374C149.903 244.674 148.403 243.974 147.803 244.774C147.103 245.474 147.303 247.074 148.003 247.774C149.503 249.374 151.503 245.574 152.703 247.674C153.803 249.574 150.703 250.374 150.003 251.474C149.503 252.374 150.103 253.474 150.103 254.374C150.103 257.074 146.703 258.074 144.603 258.674C143.103 259.474 140.603 259.974 140.403 261.974C140.203 264.174 139.303 266.174 140.003 268.374C140.103 271.674 137.103 267.874 135.903 267.474C131.103 264.974 126.503 262.574 121.703 260.074C118.103 258.374 114.503 256.074 110.803 254.574C106.003 253.874 100.203 253.974 95.3034 253.574C93.0034 253.774 84.2034 252.174 83.8034 253.674C83.9034 254.374 84.9034 254.674 85.0034 255.474C85.3034 256.774 83.5034 257.474 83.3034 258.574C83.7034 261.074 87.7034 261.574 84.5034 264.174C83.4034 264.674 83.4034 265.874 83.2034 266.974C81.4034 269.074 80.0034 271.874 77.3034 272.674C76.7034 272.774 76.1034 272.474 75.6034 272.574C75.0034 272.574 74.8034 273.074 73.9034 272.974C73.6034 272.974 73.3034 272.874 73.0034 272.874C71.2034 272.274 69.0034 270.174 69.1034 267.974C69.1034 267.174 69.4034 266.474 68.9034 265.774C67.2034 263.574 64.2034 262.874 62.5034 260.874C61.3034 259.474 60.7034 257.374 58.9034 256.674C55.5034 255.574 52.2034 256.674 48.8034 256.574C46.0034 256.574 43.3034 257.474 40.4034 256.974C37.4034 255.974 34.1034 255.974 31.3034 254.374C28.9034 251.774 29.4034 249.574 24.9034 250.274C21.5034 250.974 18.2034 249.874 14.8034 250.474C12.8034 250.974 10.8034 250.274 8.70336 250.274C7.40336 250.274 4.90336 250.474 5.20336 248.674C5.40336 248.074 5.70336 247.874 6.10336 247.674C6.90336 246.874 5.90336 246.274 5.80336 245.474C5.70336 244.674 5.20336 243.774 5.90336 243.074C6.30336 242.074 6.30336 240.774 7.00336 239.674C7.70336 238.674 7.20336 237.974 6.40336 237.274C5.90336 236.574 4.90336 235.474 5.00336 234.474C5.10336 233.774 5.20336 232.874 4.90336 232.274C5.00336 231.774 5.00336 231.074 4.70336 230.774C4.50336 230.474 4.50336 230.274 4.30336 229.774C3.90336 229.174 3.00336 228.974 2.70336 228.174C2.10336 227.274 2.80336 226.174 2.70336 225.074C2.50336 224.574 2.10336 224.074 1.80336 223.674C0.903362 222.374 1.80336 220.674 1.40336 219.174C1.30336 218.174 0.303362 216.274 0.703362 215.574C1.00336 215.174 2.30336 215.374 3.00336 214.974C3.80336 214.674 4.10336 213.774 4.70336 213.274C5.60336 212.474 7.70336 212.674 9.20336 212.774C12.0034 213.874 14.0034 212.774 12.5034 209.974C12.0034 209.074 11.4034 209.374 10.9034 209.674C9.90336 209.774 9.20336 208.474 8.30336 208.174C7.50336 207.574 6.40336 206.674 7.00336 205.574C7.80336 204.274 9.70336 204.074 10.8034 203.074C11.2034 202.674 12.2034 202.074 12.6034 201.874C13.3034 201.574 11.8034 200.974 12.5034 200.574C12.6034 200.474 12.7034 200.474 12.8034 200.474C13.8034 200.174 13.3034 199.574 13.6034 198.774C14.2034 197.674 15.1034 195.974 15.9034 195.474C16.6034 195.174 17.4034 195.474 18.1034 195.574C19.1034 195.774 19.8034 195.074 20.7034 195.274C21.4034 195.374 22.3034 195.674 22.9034 195.074C24.0034 193.674 26.1034 195.974 27.3034 194.574C27.8034 193.874 28.3034 192.974 29.3034 192.474C30.3034 191.974 31.4034 192.274 32.3034 192.374C33.1034 192.374 34.2034 192.374 34.9034 192.374C35.6034 192.374 36.3034 191.874 37.0034 192.074C38.3034 193.374 38.3034 192.574 38.4034 191.274C39.0034 188.574 37.7034 186.174 35.1034 185.274C34.3034 184.974 33.7034 183.874 33.1034 183.774C32.5034 183.674 31.8034 183.874 31.5034 183.174C31.4034 182.774 32.3034 182.274 32.8034 181.974C33.3034 181.574 33.5034 181.074 33.6034 180.274C33.8034 179.474 33.7034 178.274 33.1034 177.574C32.7034 177.074 32.1034 176.774 32.2034 176.074C33.6034 173.274 36.4034 170.874 37.0034 167.674C37.5034 167.074 38.4034 167.874 38.9034 168.174C42.2034 170.074 43.9034 166.374 43.0034 163.674C43.2034 162.574 42.9034 162.274 42.1034 161.674C41.3034 161.174 41.5034 160.374 41.1034 159.774C40.5034 159.074 40.6034 158.274 40.8034 157.374C41.3034 155.274 40.0034 153.374 39.8034 151.474C39.7034 150.774 39.5034 150.374 40.2034 150.074C41.9034 149.274 44.0034 149.874 45.7034 150.274C47.1034 149.574 48.0034 147.474 48.1034 145.874C48.1034 144.674 47.0034 143.774 46.2034 142.874C45.3034 141.974 45.0034 140.774 44.1034 139.974C43.0034 138.874 41.3034 138.874 39.9034 138.574C37.6034 138.074 36.5034 135.974 35.0034 134.474C34.1034 133.874 32.7034 133.974 31.9034 133.474C30.8034 132.474 30.6034 130.274 29.7034 128.974C29.3034 128.474 28.9034 128.174 28.3034 128.074C26.0034 127.874 27.0034 125.074 26.0034 123.774C25.1034 121.774 21.8034 120.874 22.5034 118.274C22.7034 117.074 25.5034 118.174 25.5034 117.174C24.7034 115.674 22.8034 114.374 22.4034 112.674C27.6034 111.774 25.4034 109.874 26.7034 106.374C28.5034 103.474 34.9034 112.974 34.6034 105.174C34.4034 104.674 33.7034 104.374 33.1034 103.974C31.7034 103.174 30.6034 100.974 31.8034 99.5739C34.1034 97.0739 33.9034 96.7739 37.3034 97.7739C39.1034 98.2739 41.0034 96.5739 42.6034 97.4739C43.2034 97.7739 43.9034 98.0739 44.6034 97.8739C46.1034 97.8739 47.1034 96.2739 48.5034 96.3739C48.9034 96.3739 49.3034 96.4739 49.7034 96.4739C51.0034 96.0739 51.1034 93.5739 51.1034 92.3739C51.1034 91.6739 51.0034 90.8739 51.8034 90.7739C52.4034 90.5739 53.2034 90.5739 53.5034 89.8739C54.1034 88.4739 54.8034 87.1739 54.5034 85.5739C54.2034 84.1739 53.2034 81.9739 54.7034 80.9739C56.3034 80.4739 58.7034 81.3739 60.1034 82.0739C61.2034 82.7739 62.4034 82.4739 63.4034 81.9739C64.0034 81.6739 64.6034 81.8739 65.2034 82.2739C68.2034 84.8739 71.0034 83.4739 74.3034 82.4739C76.2034 81.6739 78.2034 82.7739 80.1034 82.1739C81.3034 81.5739 81.9034 79.4739 83.3034 79.0739C85.6034 78.8739 87.9034 78.4739 90.2034 77.6739C91.4034 77.0739 92.6034 76.3739 93.9034 75.9739C96.9034 74.2739 92.7034 69.5739 95.2034 67.5739C96.0034 67.2739 96.9034 66.9739 97.2034 66.0739C97.7034 64.4739 96.3034 62.9739 97.9034 61.7739C100.603 59.0739 102.603 55.1739 105.603 52.8739C106.603 51.7739 106.703 49.9739 107.703 48.8739C108.403 48.2739 109.603 48.8739 110.103 47.9739C111.103 44.8739 109.603 41.5739 111.203 38.6739C111.803 37.6739 112.503 36.7739 112.103 35.5739C111.903 34.4739 110.803 33.8739 111.103 32.7739C112.003 30.8739 114.603 32.3739 115.003 30.0739C115.303 28.9739 117.803 29.5739 118.003 28.4739C118.503 26.0739 115.703 24.3739 116.003 21.9739L115.603 21.8739Z" fill="#BE935F" fill-opacity="0.3" stroke="#6E553B" stroke-width="2" mask="url(#path-1-inside-1_6278_17119)"/>
    <g clip-path="url(#clip0_6278_17119)">
    <path d="M63.182 232.672C66.8654 230.859 70.8608 228.154 75.0872 225.289C82.003 220.599 89.1573 215.752 95.8235 214.261C96.3429 214.145 96.8724 214.042 97.3843 213.941C98.2958 213.764 99.237 213.583 100.134 213.321C102.182 212.722 104.118 211.669 105.992 210.652L106.597 210.324C111.825 207.495 117.29 204.971 122.835 202.818L123.152 203.636C117.642 205.774 112.212 208.284 107.011 211.095L106.409 211.421C104.497 212.46 102.519 213.535 100.38 214.161C99.4446 214.436 98.4802 214.621 97.5511 214.801C97.0448 214.9 96.5209 215.001 96.0126 215.113C89.5097 216.567 82.4262 221.366 75.5783 226.01C71.3267 228.893 67.3099 231.617 63.5698 233.455L63.183 232.666L63.182 232.672Z" fill="#6F553B"/>
    <path d="M65.8409 239.155C69.7504 236.632 74.0876 234.776 78.2836 232.979C80.4722 232.042 82.7342 231.075 84.9044 230.023C87.8678 228.59 90.7943 226.938 93.625 225.341C98.2275 222.745 102.988 220.057 108.052 218.223C110.056 217.496 112.145 216.889 114.167 216.301C118.466 215.051 122.911 213.758 126.649 211.268L127.135 212C123.284 214.563 118.773 215.878 114.412 217.147C112.405 217.731 110.33 218.336 108.353 219.051C103.359 220.863 98.6319 223.531 94.0602 226.108C91.2165 227.712 88.2797 229.37 85.2921 230.815C83.1061 231.874 80.8329 232.845 78.6369 233.787C74.4753 235.568 70.1715 237.412 66.3254 239.894L65.8502 239.155L65.8409 239.155Z" fill="#6F553B"/>
    <path d="M117.56 203.288L118.204 202.692C119.88 204.501 120.989 206.726 122.065 208.879C122.986 210.723 123.937 212.63 125.232 214.229L124.549 214.782C123.197 213.109 122.223 211.16 121.282 209.274C120.236 207.176 119.151 205.007 117.561 203.291L117.56 203.288Z" fill="#6F553B"/>
    <path d="M110.22 206.887L110.86 206.287C113.75 209.38 116.258 212.824 118.313 216.522L117.546 216.947C115.523 213.31 113.059 209.926 110.219 206.885L110.22 206.887Z" fill="#6F553B"/>
    <path d="M103.54 209.587L104.304 209.153C106.47 212.975 109.254 216.37 112.575 219.243L112.001 219.905C108.603 216.964 105.757 213.491 103.542 209.584L103.54 209.587Z" fill="#6F553B"/>
    <path d="M87.9752 216.094L88.7465 215.673C90.8135 219.465 93.0474 223.231 95.3834 226.866L94.6449 227.341C92.297 223.689 90.0541 219.904 87.9752 216.094Z" fill="#6F553B"/>
    <path d="M78.3416 220.899L79.112 220.475C80.9782 223.874 83.8513 228.258 86.4331 231.644L85.7348 232.177C83.1302 228.758 80.2306 224.33 78.3444 220.898L78.3416 220.899Z" fill="#6F553B"/>
    <path d="M70.6656 225.12L71.4957 224.833C71.8705 225.918 72.5757 226.902 73.2581 227.853L73.5331 228.238C75.2768 230.696 76.7892 233.332 78.0294 236.078L77.23 236.441C76.0124 233.746 74.5282 231.159 72.8175 228.746L72.5443 228.367C71.8244 227.366 71.0836 226.329 70.6665 225.122L70.6656 225.12Z" fill="#6F553B"/>
    <path d="M95.8302 212.451L96.6278 212.083C98.4009 215.927 100.63 219.563 103.253 222.886L102.564 223.429C99.8984 220.051 97.6323 216.357 95.8302 212.451Z" fill="#6F553B"/>
    </g>
    <g clip-path="url(#clip1_6278_17119)">
    <path d="M185.551 86.6327L182.504 83.9596L179.832 82.5373L177.603 79.1129L173.831 78.2626L170.021 75.9861L168.346 77.866L164.32 78.0147L161.857 80.0052L160.265 80.5124L158.337 77.172L156.79 77.9194C155.104 77.6906 153.27 77.4275 152.976 77.3665C152.719 77.2521 151.238 76.4665 149.932 75.7649L149.612 75.5933L147.845 77.0118L144.641 76.4894L143.76 77.2025L141.966 76.6152L137.531 73.9727L134.793 76.0318C134.235 75.2387 133.959 75.1433 133.859 75.109C133.569 75.0099 130.845 74.1137 130.845 74.1137L130.495 73.9993L128.479 76.375H124.285L120.68 78.9871L119.899 77.4618L116.07 76.2721L112.472 82.0072L108.137 83.0177L106.623 86.9454L104.108 89.1418L99.6094 93.7368L100.398 94.5452L104.848 89.9846L107.557 87.6203L108.956 83.9863L113.16 83.0063L116.55 77.6029L119.125 78.4037L120.282 80.6611L120.453 80.5353L122.172 81.9805H124.855L126.908 84.8824L129.829 85.8167L129.61 86.1065L125.305 89.0389L119.411 94.9266L120.192 95.7464L125.967 89.9655L130.38 86.9606L132.538 84.1312L134.335 81.5458L134.793 80.562L138.353 82.0911L139.432 83.3228L140.389 88.0245L144.675 89.4545L148.251 91.4794L153.776 97.0467L154.557 96.2307L148.92 90.5566L145.166 88.4287L143.908 88.0055L147.272 86.2628L151.097 82.1979L155.242 81.3971L157.232 78.9757L157.898 78.6553L159.759 81.8776L159.911 81.828L162.084 83.4448L163.893 83.8719L167.152 84.196L169.44 88.8406L171.301 91.4489L174.791 93.6453L175.375 92.6691L172.071 90.5871L170.415 88.28L167.87 83.1169L164.105 82.747L162.553 82.3809L161.24 81.4047L162.386 81.0386L164.726 79.1473L168.856 78.9947L170.24 77.4427L173.421 79.3455L176.926 80.1349L179.066 83.4219L181.83 84.8786L184.732 87.4182L187.761 91.0408L188.609 90.2973L185.551 86.6403V86.6327ZM134.231 79.0748L133.394 80.9204L131.641 83.4448L130.566 84.8557L127.597 83.9062L125.428 80.8403H122.577L121.405 79.8565L124.642 77.5114H128.992L130.86 75.3111C131.567 75.5437 133.118 76.0547 133.468 76.1729C133.602 76.2873 133.929 76.7296 134.19 77.1453L134.51 77.6601L137.609 75.3302L141.468 77.6296L142.807 78.0757L140.895 79.8908L138.673 80.9853L134.235 79.0824L134.231 79.0748ZM154.643 80.337L150.539 81.1302L146.599 85.3209L142.409 87.4945L141.349 87.1361L140.463 82.7851L139.596 81.7937L141.527 80.8442L144.24 78.2664L144.954 77.6906L148.158 78.213L149.739 76.9432C151.015 77.6296 152.433 78.3808 152.634 78.4494C152.786 78.5028 153.854 78.663 155.804 78.9337L154.646 80.3446L154.643 80.337Z" fill="#6F553B"/>
    </g>
    <path d="M200.457 101.858L200.457 101.858C201.958 100.322 203.992 99.4609 206.109 99.4609C208.227 99.4609 210.261 100.322 211.762 101.858C213.264 103.395 214.109 105.481 214.109 107.659C214.109 109.837 213.264 111.924 211.762 113.461L206.109 119.246L200.457 113.461L200.457 113.461C199.713 112.7 199.123 111.796 198.72 110.801C198.317 109.805 198.109 108.738 198.109 107.659C198.109 106.581 198.317 105.514 198.72 104.518C199.123 103.523 199.713 102.619 200.457 101.858ZM206.109 110.645C206.89 110.645 207.636 110.327 208.184 109.766C208.732 109.205 209.038 108.447 209.038 107.659C209.038 106.871 208.732 106.113 208.184 105.553C207.636 104.992 206.89 104.674 206.109 104.674C205.329 104.674 204.583 104.992 204.035 105.553C203.487 106.113 203.181 106.871 203.181 107.659C203.181 108.447 203.487 109.205 204.035 109.766C204.583 110.327 205.329 110.645 206.109 110.645Z" fill="#6F553B" stroke="#6F553B"/>
    <path d="M206.031 119.961C203.364 128.628 191.041 150.461 148.537 141.461C107.688 132.811 96.4391 166.628 97.1057 179.961" stroke="#6F553B" stroke-width="0.5" stroke-linejoin="round" stroke-dasharray="2 2"/>
    <circle cx="96.1094" cy="184.461" r="4" fill="#6F553B" stroke="#6F553B"/>
    <g clip-path="url(#clip2_6278_17119)">
    <path d="M201.544 176.086C201.428 175.342 201.278 174.789 201.027 174.174C200.891 173.843 200.643 173.659 200.424 173.497C200.369 173.456 200.314 173.416 200.262 173.373C200.126 173.26 199.988 173.123 199.842 172.978C199.488 172.625 199.087 172.226 198.578 172.07C197.794 171.831 196.771 172.035 196.151 172.326C195.723 172.527 195.268 172.713 194.788 172.91C193.843 173.297 192.868 173.698 192.057 174.232C191.583 174.545 191.211 175.026 190.883 175.451C190.81 175.547 190.738 175.641 190.664 175.731C190.387 176.077 190.13 176.238 189.804 176.441C189.642 176.543 189.458 176.658 189.262 176.805C188.832 177.128 188.54 177.527 188.257 177.914C187.887 178.422 187.567 178.859 186.988 179.079C186.727 179.179 186.436 179.2 186.127 179.222C186.125 179.222 186.123 179.222 186.12 179.222L183.817 158.728L182.82 95.9998V-0.783203H182.183V98.285L179.419 182.299C179.285 182.284 179.153 182.255 179.016 182.2C178.892 182.15 178.781 182.101 178.675 182.056C178.258 181.875 177.897 181.718 177.296 181.712C176.029 181.697 175.158 182.19 174.064 182.889C173.521 183.235 173.27 183.435 172.965 184.03C172.799 184.352 172.566 184.683 172.272 185.015C171.937 185.393 171.672 185.881 171.46 186.505C171.342 186.857 171.262 187.211 171.185 187.554L171.155 187.69C171.143 187.74 171.134 187.771 171.129 187.78C171.1 187.815 171.055 187.846 170.997 187.885C170.899 187.952 170.777 188.034 170.677 188.184C170.574 188.339 170.461 188.485 170.341 188.64L170.256 188.749C169.018 190.355 168.956 192.692 168.9 194.753C168.884 195.33 168.871 195.875 168.831 196.384C168.815 196.594 168.798 196.803 168.783 197.016C168.7 198.068 168.614 199.158 168.609 200.214C168.604 201.659 168.818 202.892 169.058 204.131C169.478 206.309 170.04 208.78 171.394 210.544C171.489 210.668 171.591 210.825 171.69 210.977C171.782 211.119 171.879 211.266 171.972 211.391C172.116 211.583 172.274 211.752 172.427 211.917C172.491 211.986 172.555 212.055 172.62 212.126C173.568 213.184 174.401 213.95 175.614 214.497C176.281 214.798 177.014 214.963 177.681 214.963H177.698C178.071 214.961 178.424 214.942 178.743 214.905C178.967 214.88 179.208 214.781 179.422 214.693C179.531 214.649 179.635 214.605 179.705 214.587C180.132 214.471 180.621 214.282 181.093 214.1C181.519 213.936 181.959 213.766 182.342 213.653C183.597 213.287 185.203 212.78 186.505 212.118C187.328 211.698 187.997 210.865 188.492 209.641C189.235 207.8 190.501 206.348 191.839 204.81C193.035 203.436 194.272 202.015 195.089 200.3C195.212 200.042 195.341 199.78 195.469 199.516C196.017 198.395 196.584 197.236 196.923 196.046C197.166 195.191 197.391 194.313 197.61 193.463C197.784 192.786 197.963 192.086 198.149 191.411C198.438 190.359 198.863 189.328 199.272 188.331C199.435 187.938 199.603 187.53 199.76 187.125C200.245 185.882 200.538 184.523 200.712 182.719C200.782 181.995 200.956 181.265 201.125 180.56C201.293 179.86 201.466 179.135 201.542 178.402C201.575 178.077 201.674 176.951 201.54 176.088L201.544 176.086ZM187.213 179.686C187.968 179.4 188.376 178.84 188.77 178.3C189.036 177.936 189.287 177.593 189.641 177.328C189.816 177.197 189.979 177.094 190.139 176.994C190.486 176.777 190.814 176.572 191.159 176.141C191.233 176.048 191.309 175.95 191.384 175.853C191.696 175.449 192.018 175.032 192.405 174.776C192.99 174.39 193.687 174.071 194.396 173.773C194.247 174.455 194.143 175.78 194.062 176.987C193.047 177.424 191.774 178.128 190.852 178.653C190.622 178.784 190.393 178.915 190.163 179.043L189.697 179.303C188.602 179.918 187.486 180.543 186.334 181.103L186.195 179.867C186.529 179.843 186.873 179.815 187.213 179.686ZM182.417 110.608L183.183 158.754V158.77L185.49 179.296C185.345 179.325 185.201 179.366 185.062 179.429C184.605 179.636 184.193 179.905 183.795 180.165C183.679 180.24 183.562 180.317 183.442 180.394C183.259 180.51 183.033 180.606 182.793 180.709C182.371 180.888 181.934 181.075 181.642 181.411C181.532 181.539 181.446 181.65 181.37 181.749C181.125 182.07 181.051 182.167 180.559 182.22C180.46 182.231 180.364 182.243 180.269 182.255C180.197 182.264 180.128 182.272 180.06 182.281L182.417 110.608ZM180.039 182.937C180.143 182.926 180.246 182.913 180.349 182.9C180.44 182.888 180.533 182.877 180.627 182.866C181.351 182.788 181.572 182.543 181.874 182.148C181.944 182.057 182.022 181.953 182.12 181.842C182.315 181.617 182.684 181.46 183.039 181.308C183.292 181.2 183.553 181.09 183.78 180.946C183.902 180.868 184.022 180.79 184.14 180.712C184.533 180.454 184.906 180.21 185.319 180.024C185.395 179.989 185.476 179.964 185.562 179.945L185.725 181.392C184.985 181.73 184.231 182.038 183.456 182.292C183.027 182.432 182.604 182.585 182.195 182.732C181.457 182.997 180.759 183.248 180.021 183.441L180.038 182.937H180.039ZM177.293 182.36C177.768 182.365 178.031 182.48 178.429 182.653C178.54 182.701 178.656 182.752 178.786 182.804C178.997 182.888 179.201 182.931 179.4 182.95L179.379 183.563C178.352 183.675 177.249 183.419 176.261 183.189H176.259L176.119 183.822C176.98 184.022 177.922 184.242 178.86 184.242C179.027 184.242 179.193 184.233 179.358 184.218L179.228 188.183C179.173 188.259 179.115 188.354 179.028 188.466C178.708 188.461 178.272 189.264 178.387 189.511C178.56 189.883 178.996 190.027 179.339 189.9C179.519 189.834 179.66 189.707 179.847 189.66C180.088 189.601 180.228 189.668 180.397 189.451C180.649 189.128 180.817 188.368 180.413 188.172C180.266 188.102 180.061 188.055 179.87 188.024L179.998 184.115C180.019 184.111 180.039 184.107 180.059 184.102C180.869 183.899 181.651 183.617 182.408 183.345C182.812 183.199 183.231 183.048 183.651 182.911C184.387 182.669 185.102 182.383 185.801 182.069L186.345 186.91C186.011 186.949 185.49 187.39 185.498 187.624C185.51 188.035 185.854 188.344 186.219 188.368C186.41 188.38 186.589 188.321 186.777 188.354C187.021 188.398 187.124 188.517 187.363 188.387C187.721 188.192 188.173 187.564 187.878 187.22C187.723 187.041 187.439 186.854 187.228 186.737C187.118 186.675 187.036 186.66 186.96 186.674L186.411 181.785C187.648 181.195 188.838 180.528 190.004 179.874L190.469 179.613C190.699 179.484 190.93 179.352 191.162 179.221C192.086 178.696 193.041 178.154 194.013 177.742C193.962 178.548 193.922 179.206 193.884 179.431C193.752 180.204 193.436 180.9 193.143 181.629C191.917 184.661 190.297 187.937 188.444 190.502C187.563 191.724 186.531 192.735 185.682 193.98C184.764 195.328 183.948 196.161 182.546 196.941C179.831 198.449 176.504 197.907 175.754 194.551C175.392 192.932 175.191 191.358 174.945 189.697C174.729 188.23 174.678 185.057 174.595 183.32C175.535 182.728 176.266 182.348 177.293 182.361V182.36ZM200.912 178.332C200.841 179.021 200.679 179.693 200.509 180.404C200.335 181.131 200.156 181.884 200.082 182.654C199.914 184.395 199.632 185.699 199.172 186.884C199.017 187.283 198.85 187.688 198.688 188.078C198.27 189.094 197.838 190.144 197.538 191.234C197.352 191.915 197.171 192.617 196.997 193.298C196.78 194.143 196.555 195.017 196.314 195.864C195.991 196.998 195.438 198.13 194.902 199.225C194.771 199.491 194.643 199.754 194.519 200.015C193.739 201.65 192.532 203.037 191.365 204.377C190.05 205.888 188.69 207.45 187.906 209.392C187.471 210.467 186.906 211.189 186.224 211.536C184.97 212.174 183.398 212.669 182.17 213.028C181.761 213.147 181.309 213.322 180.87 213.492C180.413 213.668 179.94 213.852 179.544 213.96C179.437 213.989 179.316 214.039 179.187 214.09C179.012 214.162 178.812 214.244 178.675 214.259C178.377 214.293 178.048 214.311 177.696 214.312H177.683C177.111 214.312 176.452 214.163 175.873 213.902C174.91 213.468 174.221 212.895 173.462 212.09C173.473 212.096 173.483 212.104 173.493 212.113C174.156 212.665 174.474 212.858 175.297 213.069C175.988 213.247 176.602 213.359 177.221 213.359C177.84 213.359 178.433 213.251 179.121 212.99C179.593 212.812 180.055 212.59 180.501 212.377C181.143 212.068 181.808 211.75 182.5 211.561C183.649 211.246 184.444 210.509 185.286 209.729C185.39 209.633 185.495 209.535 185.603 209.438C186.763 208.38 187.633 207.124 188.475 205.91C189.096 205.014 189.738 204.086 190.487 203.258C192.218 201.342 194.126 199.064 194.865 196.259C195.001 195.743 195.113 195.213 195.223 194.699C195.423 193.753 195.631 192.776 195.986 191.902C196.36 190.979 196.595 190.043 196.822 189.137C197.035 188.287 197.255 187.409 197.588 186.559L196.997 186.318C196.649 187.206 196.423 188.105 196.205 188.975C195.983 189.859 195.754 190.774 195.397 191.653C195.021 192.582 194.806 193.588 194.6 194.561C194.493 195.066 194.382 195.59 194.25 196.089C193.548 198.752 191.697 200.958 190.019 202.816C189.242 203.676 188.587 204.62 187.955 205.533C187.133 206.718 186.283 207.944 185.177 208.952C185.069 209.051 184.962 209.149 184.857 209.246C184.074 209.972 183.335 210.657 182.334 210.931C181.587 211.136 180.897 211.467 180.229 211.787C179.774 212.004 179.344 212.211 178.898 212.38C177.654 212.852 176.727 212.764 175.452 212.437C174.721 212.25 174.491 212.104 173.895 211.607C173.7 211.445 173.488 211.398 173.301 211.357C172.982 211.288 172.652 211.216 172.177 210.545C172.086 210.404 171.991 210.263 171.896 210.139C170.628 208.488 170.089 206.104 169.683 204C169.45 202.794 169.242 201.597 169.248 200.211C169.252 199.18 169.337 198.103 169.419 197.062C169.436 196.85 169.451 196.639 169.467 196.428C169.508 195.903 169.523 195.35 169.537 194.766C169.582 193.113 169.631 191.275 170.308 189.877C170.325 191.997 170.43 195.143 170.781 196.934C171.126 198.702 170.926 200.665 171.361 202.443C171.568 203.293 172.234 204.044 172.796 204.725C173.226 205.245 173.895 206.356 174.462 206.656C175.748 207.335 178.617 207.019 179.859 206.44C181.8 205.534 183.756 205.657 185.178 203.874C186.349 202.405 187.716 201.061 188.959 199.643C190.199 198.228 191.477 196.521 192.344 194.777C193.274 192.905 193.8 190.793 194.506 188.848C196.036 184.63 198.692 180.978 199.612 176.485C199.71 176.008 199.86 174.711 199.988 173.973C200.008 173.989 200.027 174.004 200.046 174.019C200.219 174.147 200.368 174.257 200.435 174.42C200.667 174.984 200.805 175.495 200.911 176.183C200.994 176.713 200.993 177.515 200.908 178.327L200.912 178.332Z" fill="#6F553B"/>
    </g>
    <defs>
    <clipPath id="clip0_6278_17119">
    <rect width="19.5217" height="67.2137" fill="white" transform="translate(123.57 200.961) rotate(72.1072)"/>
    </clipPath>
    <clipPath id="clip1_6278_17119">
    <rect width="89" height="23.0741" fill="white" transform="translate(99.6094 73.9609)"/>
    </clipPath>
    <clipPath id="clip2_6278_17119">
    <rect width="33" height="130" fill="white" transform="translate(168.609 84.9609)"/>
    </clipPath>
    </defs>
    </svg>
    