<svg width="721" height="273" viewBox="0 0 721 273" fill="none" xmlns="http://www.w3.org/2000/svg">
    <mask id="path-1-inside-1_6273_16474" fill="white">
    <path fill-rule="evenodd" clip-rule="evenodd" d="M135.141 19.2714C137.041 20.1714 138.941 20.9714 141.241 20.8714C142.341 21.0714 143.441 21.7714 144.341 21.0714C145.141 20.2714 146.241 19.6714 147.241 20.5714C148.341 21.3714 149.841 21.9714 150.541 23.2714C151.041 24.0714 151.441 25.1714 152.441 25.1714C153.441 25.2714 153.841 25.8714 154.941 26.1714C157.341 26.4714 159.341 24.9714 161.441 24.4714C162.141 24.4714 162.241 25.2714 162.441 25.7714C162.841 26.6714 164.141 26.5714 164.841 26.9714C165.741 27.3714 166.541 26.9714 167.041 26.2714C168.041 25.0714 169.341 24.1714 169.641 22.5714C169.841 21.7714 170.341 21.1714 171.141 20.8714C174.541 19.7714 180.141 20.0714 183.341 21.8714C184.441 22.5714 185.641 23.3714 186.941 23.5714C188.241 23.8714 190.541 23.3714 190.541 25.3714C190.841 33.7714 194.841 28.4714 197.341 24.5714C197.441 23.4714 196.941 21.9714 197.841 20.9714C198.341 20.1714 198.341 18.6714 199.241 18.5714C200.641 18.7714 200.541 17.8714 200.441 16.7714C200.441 15.9714 200.141 14.7714 200.741 14.2714C201.541 13.7714 203.141 13.7714 203.741 14.6714C204.441 16.0714 204.541 17.9714 205.241 19.5714C205.341 21.1714 206.441 22.4714 206.141 24.0714C206.141 27.2714 206.841 31.3714 208.841 34.0714C210.541 35.5714 211.941 38.1714 214.541 37.7714C215.341 37.7714 215.641 38.7714 216.241 39.1714C216.941 39.7714 217.941 39.6714 218.541 40.1714C219.041 40.7714 219.241 41.6714 219.641 42.2714C220.241 43.4714 221.341 44.2714 221.341 45.3714C220.741 48.1714 224.141 47.9714 224.641 50.2714C225.141 53.0714 223.341 55.7714 226.641 57.3714C227.741 59.0714 229.041 60.3714 230.641 61.4714C231.541 62.6714 233.841 63.2714 233.141 64.9714C232.041 66.6714 230.841 68.5714 230.641 70.4714C231.841 71.9714 234.041 73.2714 235.741 74.1714C238.141 74.4714 240.941 75.8714 243.341 75.4714C244.541 74.2714 246.941 73.1714 248.641 72.6714C249.141 72.5714 249.741 72.3714 249.941 71.8714C250.141 70.8714 248.941 70.0714 248.541 69.1714C248.041 67.8714 247.841 65.4714 247.041 64.2714C244.841 60.8714 245.241 61.5714 246.041 57.8714C245.941 56.6714 246.541 55.1714 246.141 54.0714C245.741 53.0714 244.841 51.1714 246.541 51.0714C247.541 50.9714 248.641 51.6714 249.641 51.1714C251.041 50.3714 250.841 48.2714 252.141 47.2714C253.041 46.0714 254.741 45.6714 255.641 44.6714C256.241 43.9714 255.541 42.4714 256.041 41.6714C256.241 41.1714 256.941 41.1714 257.241 41.6714C258.041 42.7714 257.941 44.0714 258.441 45.3714C259.141 46.6714 260.341 47.9714 260.641 49.5714C261.141 50.9714 259.341 51.0714 259.141 52.2714C259.141 54.8714 260.841 57.3714 261.041 59.8714C260.841 62.2714 260.441 67.3714 264.341 66.2714C266.141 65.8714 268.641 65.7714 269.541 67.4714C270.041 68.2714 270.441 69.2714 271.441 69.4714C272.541 69.8714 273.841 67.1714 274.241 69.1714C275.841 72.9714 276.841 68.0714 282.241 74.6714C284.941 76.2714 288.841 73.8714 289.041 70.9714C289.741 69.6714 291.541 69.3714 292.841 68.9714C293.741 68.8714 294.341 69.5714 294.741 70.1714C299.141 72.3714 298.441 75.3714 298.341 79.7714C299.141 82.3714 296.241 85.3714 297.741 87.5714C300.041 88.3714 300.341 89.6714 299.841 92.1714C299.841 93.0714 300.241 93.9714 300.141 94.5714C299.541 96.1714 298.641 97.4714 298.341 99.3714C297.941 100.671 296.941 101.471 296.841 102.971C296.841 105.571 295.741 107.671 293.641 109.071C291.641 113.471 291.141 111.871 287.041 112.671C284.541 112.771 283.641 115.171 281.841 116.271C278.841 117.471 277.241 120.271 276.141 123.171C275.741 124.171 274.741 124.271 273.941 124.971C272.741 126.371 271.941 127.671 270.641 128.771C269.441 129.571 268.841 130.871 267.541 131.571C266.541 131.971 265.641 132.671 265.141 133.571C263.941 137.371 260.841 139.971 260.841 144.171C258.941 150.071 262.141 149.171 262.541 153.471C262.241 155.671 258.941 156.471 259.041 158.871C259.541 160.071 261.941 160.971 263.041 159.671C263.941 159.271 264.641 157.671 265.641 158.171C267.941 160.071 270.941 161.271 273.841 161.871C274.641 162.471 273.941 163.971 274.641 164.671C276.841 166.171 281.041 166.871 278.341 170.171C277.841 170.971 277.741 172.571 276.741 172.771C272.941 171.871 274.441 173.571 272.941 175.871C272.541 176.471 271.741 176.571 271.241 176.771C270.641 177.171 271.341 177.671 272.041 177.771C272.841 177.871 273.741 177.471 274.441 177.371C277.141 176.871 276.241 180.471 275.241 181.571C274.941 181.871 274.941 182.171 275.241 182.471C276.341 183.171 276.741 184.971 277.541 185.771C277.841 186.071 278.341 186.171 278.541 186.571C277.741 188.971 277.641 191.571 276.441 193.871C275.441 195.471 273.341 194.871 271.541 195.271C270.541 195.571 269.641 196.271 268.541 196.871C266.741 198.071 265.741 200.271 264.341 201.571C263.141 201.971 261.341 202.871 260.741 203.971C260.541 204.171 260.341 204.071 260.041 203.971C258.641 202.871 256.741 202.471 255.441 201.171C254.141 200.471 253.641 198.371 252.241 199.671C248.741 202.571 251.941 207.271 252.941 210.471C252.641 211.971 253.141 213.471 252.941 214.971C252.741 216.371 252.041 217.671 252.541 219.071C252.741 221.271 255.241 222.071 255.941 223.871C258.641 230.171 259.741 232.271 253.341 236.571C252.841 237.071 253.241 238.671 252.541 239.571C251.941 240.271 251.441 240.471 251.441 239.071C251.441 236.971 248.541 237.471 247.341 236.571C243.341 234.471 240.541 231.571 236.241 234.171C234.441 234.071 232.141 233.771 230.941 235.371C230.441 236.571 230.341 238.071 229.641 239.171C229.341 239.571 228.541 239.271 228.141 239.271C227.741 239.371 227.241 239.771 226.741 239.971C224.041 241.171 222.341 244.071 219.441 244.871C217.941 244.771 219.941 242.271 219.241 241.271C218.941 240.271 217.741 239.571 216.841 240.171C214.841 241.571 213.741 238.671 212.341 237.971C210.141 237.271 207.541 236.571 206.141 234.971C205.641 234.371 205.741 233.771 205.541 233.171C203.841 230.771 204.641 226.971 205.241 224.371C205.641 218.871 206.741 213.271 200.441 210.771C199.041 209.971 197.241 209.771 195.841 209.071C194.941 208.571 194.741 207.371 193.841 206.971C192.341 206.671 191.441 208.671 190.041 209.071C188.641 209.571 187.741 207.471 186.941 209.371C186.141 210.971 184.541 210.871 183.141 211.971C182.141 213.271 180.841 213.871 179.441 214.171C178.541 214.571 178.941 215.671 178.041 215.771C176.541 215.871 175.541 217.371 174.241 217.771C172.641 218.071 170.841 216.971 169.241 217.171C167.341 217.671 166.041 219.971 164.341 220.671C162.741 220.571 161.741 221.871 160.541 222.571C160.041 222.771 159.441 222.771 158.941 222.471C157.241 221.671 154.941 221.671 152.941 221.471C151.441 221.271 150.041 220.371 148.441 220.671C145.641 221.471 144.641 219.171 143.941 216.971C142.541 215.971 142.441 213.971 143.541 212.671C144.441 211.171 144.341 209.171 144.141 207.571C142.041 206.171 138.741 207.371 136.241 206.771C134.941 206.671 133.441 206.671 132.641 207.671C132.341 207.971 132.641 208.771 132.141 208.671C131.541 208.371 130.641 208.971 130.041 209.071C129.341 209.071 129.041 209.171 128.441 209.271C126.741 209.071 124.941 209.371 126.041 206.771C126.641 205.871 127.841 206.071 128.541 205.271C128.741 205.171 129.341 205.171 129.041 204.971C127.141 203.671 124.141 204.671 122.341 202.971C122.141 202.671 122.341 202.471 122.441 202.271C122.341 201.371 120.641 201.471 119.941 201.071C118.941 200.671 119.341 199.671 119.641 198.971C120.441 197.071 118.141 195.271 116.341 195.071C113.541 194.071 110.841 194.671 108.541 192.871C107.641 192.371 106.441 192.271 106.141 191.571C106.141 190.671 105.841 190.271 105.241 189.271C103.941 187.971 101.041 187.071 100.241 189.471C97.5406 192.071 99.1406 189.171 97.1406 188.671C96.1406 188.171 95.3406 189.671 94.4406 189.571C93.1406 189.271 91.1406 188.471 90.2406 188.071C87.6406 185.871 79.4406 185.971 82.6406 180.671C83.2406 180.071 83.7406 179.571 84.3406 179.071C84.4406 178.571 84.7406 178.171 85.1406 177.771C85.0406 175.571 86.2406 173.271 86.3406 170.971C86.3406 170.271 86.0406 169.771 85.8406 169.271C85.7406 168.671 86.1406 168.071 86.3406 167.571C86.2406 166.471 86.2406 165.071 86.6406 163.971C87.6406 161.271 85.0406 158.671 83.9406 155.771C82.4406 153.171 81.5406 149.371 78.8406 147.771C73.9406 146.371 68.8406 145.971 63.7406 144.771C61.3406 145.271 59.8406 143.671 57.5406 143.271C52.7406 143.271 48.1406 143.071 43.7406 141.171C42.3406 141.171 41.3406 140.971 40.7406 139.771C40.4406 138.971 40.5406 137.971 40.2406 137.171C39.4406 135.471 38.6406 134.471 37.6406 133.171C36.7406 132.571 35.1406 132.571 34.4406 133.371C34.1406 133.671 33.6406 134.271 33.1406 134.071C31.3406 132.471 33.8406 130.471 30.0406 130.371C28.6406 129.871 27.1406 129.071 25.9406 128.171C25.0406 127.371 27.0406 124.671 24.9406 124.871C22.5406 126.271 20.2406 122.371 20.1406 126.571C20.3406 128.671 18.1406 128.771 17.0406 129.771C16.1406 130.871 15.9406 132.571 15.0406 133.671C14.3406 134.371 12.9406 134.271 12.4406 134.771C11.7406 135.871 10.3406 134.771 9.54061 134.471C8.74061 133.771 7.04061 134.471 6.04061 134.171C4.84061 133.671 1.64061 134.771 2.14061 132.571C2.54061 131.771 2.64061 130.471 2.44061 129.571C1.54061 127.071 6.24061 126.971 5.14061 124.571C4.14061 122.871 2.44061 125.371 1.14061 124.871C-0.059394 124.471 -0.359394 121.771 1.14061 121.471C2.04061 121.371 3.04061 121.671 3.84061 121.271C4.64061 120.771 5.64061 120.671 6.54061 120.971C7.94061 121.371 9.24061 121.271 10.4406 121.671C11.2406 121.971 12.3406 122.271 13.0406 121.671C13.7406 121.171 14.2406 120.171 15.0406 120.071C16.5406 120.071 17.5406 119.371 19.2406 119.871C20.1406 120.171 21.1406 120.271 21.9406 119.771C25.0406 115.471 28.6406 111.071 33.6406 108.771C37.0406 107.471 40.4406 106.371 43.7406 104.471C45.2406 103.571 46.3406 101.471 48.2406 101.371C50.2406 101.271 51.5406 104.871 53.6406 103.071C61.7406 99.1714 54.0406 98.0714 59.0406 95.0714C59.3406 94.7714 59.7406 94.3714 60.1406 94.1714C60.9406 93.8714 61.9406 94.6714 62.1406 94.0714C62.2406 93.7714 62.0406 93.2714 61.9406 92.9714C61.2406 91.3714 58.9406 91.6714 58.1406 90.1714C57.5406 88.8714 57.9406 86.5714 59.3406 86.0714C61.2406 85.7714 62.9406 85.4714 64.9406 85.9714C65.9406 86.1714 67.2406 86.5714 67.7406 85.6714C68.0406 85.1714 68.3406 84.5714 68.9406 84.4714C69.7406 84.1714 70.8406 84.4714 71.5406 83.9714C72.4406 83.3714 72.0406 81.9714 72.9406 81.2714C74.2406 80.5714 75.0406 78.2714 76.7406 78.7714C77.6406 79.2714 78.7406 78.6714 79.6406 78.6714C80.5406 79.0714 81.1406 80.6714 82.2406 81.0714C84.9406 82.1714 83.5406 85.4714 86.0406 86.6714C90.1406 88.1714 91.7406 89.8714 95.4406 86.7714C96.2406 86.4714 97.6406 87.7714 97.2406 85.9714C96.6406 80.1714 90.4406 76.5714 92.9406 70.5714C93.3406 69.5714 93.6406 68.3714 94.6406 67.7714C95.9406 67.2714 96.8406 66.4714 97.5406 65.3714C98.2406 64.7714 98.6406 63.5714 99.2406 63.1714C100.241 62.7714 101.141 62.3714 101.141 61.0714C100.841 58.0714 102.041 55.8714 102.941 53.1714C104.041 49.7714 105.341 44.7714 109.341 49.0714C110.241 49.8714 112.341 49.8714 113.241 48.9714C113.641 48.3714 113.741 47.4714 114.441 47.1714C115.441 46.7714 117.241 47.4714 117.441 45.8714C116.941 42.7714 119.841 39.2714 118.541 36.2714C118.441 34.4714 120.641 32.9714 121.741 31.7714C122.441 30.9714 123.241 30.0714 124.541 29.6714C128.741 26.5714 126.041 17.2714 134.541 18.7714L135.141 19.2714Z"/>
    </mask>
    <path fill-rule="evenodd" clip-rule="evenodd" d="M135.141 19.2714C137.041 20.1714 138.941 20.9714 141.241 20.8714C142.341 21.0714 143.441 21.7714 144.341 21.0714C145.141 20.2714 146.241 19.6714 147.241 20.5714C148.341 21.3714 149.841 21.9714 150.541 23.2714C151.041 24.0714 151.441 25.1714 152.441 25.1714C153.441 25.2714 153.841 25.8714 154.941 26.1714C157.341 26.4714 159.341 24.9714 161.441 24.4714C162.141 24.4714 162.241 25.2714 162.441 25.7714C162.841 26.6714 164.141 26.5714 164.841 26.9714C165.741 27.3714 166.541 26.9714 167.041 26.2714C168.041 25.0714 169.341 24.1714 169.641 22.5714C169.841 21.7714 170.341 21.1714 171.141 20.8714C174.541 19.7714 180.141 20.0714 183.341 21.8714C184.441 22.5714 185.641 23.3714 186.941 23.5714C188.241 23.8714 190.541 23.3714 190.541 25.3714C190.841 33.7714 194.841 28.4714 197.341 24.5714C197.441 23.4714 196.941 21.9714 197.841 20.9714C198.341 20.1714 198.341 18.6714 199.241 18.5714C200.641 18.7714 200.541 17.8714 200.441 16.7714C200.441 15.9714 200.141 14.7714 200.741 14.2714C201.541 13.7714 203.141 13.7714 203.741 14.6714C204.441 16.0714 204.541 17.9714 205.241 19.5714C205.341 21.1714 206.441 22.4714 206.141 24.0714C206.141 27.2714 206.841 31.3714 208.841 34.0714C210.541 35.5714 211.941 38.1714 214.541 37.7714C215.341 37.7714 215.641 38.7714 216.241 39.1714C216.941 39.7714 217.941 39.6714 218.541 40.1714C219.041 40.7714 219.241 41.6714 219.641 42.2714C220.241 43.4714 221.341 44.2714 221.341 45.3714C220.741 48.1714 224.141 47.9714 224.641 50.2714C225.141 53.0714 223.341 55.7714 226.641 57.3714C227.741 59.0714 229.041 60.3714 230.641 61.4714C231.541 62.6714 233.841 63.2714 233.141 64.9714C232.041 66.6714 230.841 68.5714 230.641 70.4714C231.841 71.9714 234.041 73.2714 235.741 74.1714C238.141 74.4714 240.941 75.8714 243.341 75.4714C244.541 74.2714 246.941 73.1714 248.641 72.6714C249.141 72.5714 249.741 72.3714 249.941 71.8714C250.141 70.8714 248.941 70.0714 248.541 69.1714C248.041 67.8714 247.841 65.4714 247.041 64.2714C244.841 60.8714 245.241 61.5714 246.041 57.8714C245.941 56.6714 246.541 55.1714 246.141 54.0714C245.741 53.0714 244.841 51.1714 246.541 51.0714C247.541 50.9714 248.641 51.6714 249.641 51.1714C251.041 50.3714 250.841 48.2714 252.141 47.2714C253.041 46.0714 254.741 45.6714 255.641 44.6714C256.241 43.9714 255.541 42.4714 256.041 41.6714C256.241 41.1714 256.941 41.1714 257.241 41.6714C258.041 42.7714 257.941 44.0714 258.441 45.3714C259.141 46.6714 260.341 47.9714 260.641 49.5714C261.141 50.9714 259.341 51.0714 259.141 52.2714C259.141 54.8714 260.841 57.3714 261.041 59.8714C260.841 62.2714 260.441 67.3714 264.341 66.2714C266.141 65.8714 268.641 65.7714 269.541 67.4714C270.041 68.2714 270.441 69.2714 271.441 69.4714C272.541 69.8714 273.841 67.1714 274.241 69.1714C275.841 72.9714 276.841 68.0714 282.241 74.6714C284.941 76.2714 288.841 73.8714 289.041 70.9714C289.741 69.6714 291.541 69.3714 292.841 68.9714C293.741 68.8714 294.341 69.5714 294.741 70.1714C299.141 72.3714 298.441 75.3714 298.341 79.7714C299.141 82.3714 296.241 85.3714 297.741 87.5714C300.041 88.3714 300.341 89.6714 299.841 92.1714C299.841 93.0714 300.241 93.9714 300.141 94.5714C299.541 96.1714 298.641 97.4714 298.341 99.3714C297.941 100.671 296.941 101.471 296.841 102.971C296.841 105.571 295.741 107.671 293.641 109.071C291.641 113.471 291.141 111.871 287.041 112.671C284.541 112.771 283.641 115.171 281.841 116.271C278.841 117.471 277.241 120.271 276.141 123.171C275.741 124.171 274.741 124.271 273.941 124.971C272.741 126.371 271.941 127.671 270.641 128.771C269.441 129.571 268.841 130.871 267.541 131.571C266.541 131.971 265.641 132.671 265.141 133.571C263.941 137.371 260.841 139.971 260.841 144.171C258.941 150.071 262.141 149.171 262.541 153.471C262.241 155.671 258.941 156.471 259.041 158.871C259.541 160.071 261.941 160.971 263.041 159.671C263.941 159.271 264.641 157.671 265.641 158.171C267.941 160.071 270.941 161.271 273.841 161.871C274.641 162.471 273.941 163.971 274.641 164.671C276.841 166.171 281.041 166.871 278.341 170.171C277.841 170.971 277.741 172.571 276.741 172.771C272.941 171.871 274.441 173.571 272.941 175.871C272.541 176.471 271.741 176.571 271.241 176.771C270.641 177.171 271.341 177.671 272.041 177.771C272.841 177.871 273.741 177.471 274.441 177.371C277.141 176.871 276.241 180.471 275.241 181.571C274.941 181.871 274.941 182.171 275.241 182.471C276.341 183.171 276.741 184.971 277.541 185.771C277.841 186.071 278.341 186.171 278.541 186.571C277.741 188.971 277.641 191.571 276.441 193.871C275.441 195.471 273.341 194.871 271.541 195.271C270.541 195.571 269.641 196.271 268.541 196.871C266.741 198.071 265.741 200.271 264.341 201.571C263.141 201.971 261.341 202.871 260.741 203.971C260.541 204.171 260.341 204.071 260.041 203.971C258.641 202.871 256.741 202.471 255.441 201.171C254.141 200.471 253.641 198.371 252.241 199.671C248.741 202.571 251.941 207.271 252.941 210.471C252.641 211.971 253.141 213.471 252.941 214.971C252.741 216.371 252.041 217.671 252.541 219.071C252.741 221.271 255.241 222.071 255.941 223.871C258.641 230.171 259.741 232.271 253.341 236.571C252.841 237.071 253.241 238.671 252.541 239.571C251.941 240.271 251.441 240.471 251.441 239.071C251.441 236.971 248.541 237.471 247.341 236.571C243.341 234.471 240.541 231.571 236.241 234.171C234.441 234.071 232.141 233.771 230.941 235.371C230.441 236.571 230.341 238.071 229.641 239.171C229.341 239.571 228.541 239.271 228.141 239.271C227.741 239.371 227.241 239.771 226.741 239.971C224.041 241.171 222.341 244.071 219.441 244.871C217.941 244.771 219.941 242.271 219.241 241.271C218.941 240.271 217.741 239.571 216.841 240.171C214.841 241.571 213.741 238.671 212.341 237.971C210.141 237.271 207.541 236.571 206.141 234.971C205.641 234.371 205.741 233.771 205.541 233.171C203.841 230.771 204.641 226.971 205.241 224.371C205.641 218.871 206.741 213.271 200.441 210.771C199.041 209.971 197.241 209.771 195.841 209.071C194.941 208.571 194.741 207.371 193.841 206.971C192.341 206.671 191.441 208.671 190.041 209.071C188.641 209.571 187.741 207.471 186.941 209.371C186.141 210.971 184.541 210.871 183.141 211.971C182.141 213.271 180.841 213.871 179.441 214.171C178.541 214.571 178.941 215.671 178.041 215.771C176.541 215.871 175.541 217.371 174.241 217.771C172.641 218.071 170.841 216.971 169.241 217.171C167.341 217.671 166.041 219.971 164.341 220.671C162.741 220.571 161.741 221.871 160.541 222.571C160.041 222.771 159.441 222.771 158.941 222.471C157.241 221.671 154.941 221.671 152.941 221.471C151.441 221.271 150.041 220.371 148.441 220.671C145.641 221.471 144.641 219.171 143.941 216.971C142.541 215.971 142.441 213.971 143.541 212.671C144.441 211.171 144.341 209.171 144.141 207.571C142.041 206.171 138.741 207.371 136.241 206.771C134.941 206.671 133.441 206.671 132.641 207.671C132.341 207.971 132.641 208.771 132.141 208.671C131.541 208.371 130.641 208.971 130.041 209.071C129.341 209.071 129.041 209.171 128.441 209.271C126.741 209.071 124.941 209.371 126.041 206.771C126.641 205.871 127.841 206.071 128.541 205.271C128.741 205.171 129.341 205.171 129.041 204.971C127.141 203.671 124.141 204.671 122.341 202.971C122.141 202.671 122.341 202.471 122.441 202.271C122.341 201.371 120.641 201.471 119.941 201.071C118.941 200.671 119.341 199.671 119.641 198.971C120.441 197.071 118.141 195.271 116.341 195.071C113.541 194.071 110.841 194.671 108.541 192.871C107.641 192.371 106.441 192.271 106.141 191.571C106.141 190.671 105.841 190.271 105.241 189.271C103.941 187.971 101.041 187.071 100.241 189.471C97.5406 192.071 99.1406 189.171 97.1406 188.671C96.1406 188.171 95.3406 189.671 94.4406 189.571C93.1406 189.271 91.1406 188.471 90.2406 188.071C87.6406 185.871 79.4406 185.971 82.6406 180.671C83.2406 180.071 83.7406 179.571 84.3406 179.071C84.4406 178.571 84.7406 178.171 85.1406 177.771C85.0406 175.571 86.2406 173.271 86.3406 170.971C86.3406 170.271 86.0406 169.771 85.8406 169.271C85.7406 168.671 86.1406 168.071 86.3406 167.571C86.2406 166.471 86.2406 165.071 86.6406 163.971C87.6406 161.271 85.0406 158.671 83.9406 155.771C82.4406 153.171 81.5406 149.371 78.8406 147.771C73.9406 146.371 68.8406 145.971 63.7406 144.771C61.3406 145.271 59.8406 143.671 57.5406 143.271C52.7406 143.271 48.1406 143.071 43.7406 141.171C42.3406 141.171 41.3406 140.971 40.7406 139.771C40.4406 138.971 40.5406 137.971 40.2406 137.171C39.4406 135.471 38.6406 134.471 37.6406 133.171C36.7406 132.571 35.1406 132.571 34.4406 133.371C34.1406 133.671 33.6406 134.271 33.1406 134.071C31.3406 132.471 33.8406 130.471 30.0406 130.371C28.6406 129.871 27.1406 129.071 25.9406 128.171C25.0406 127.371 27.0406 124.671 24.9406 124.871C22.5406 126.271 20.2406 122.371 20.1406 126.571C20.3406 128.671 18.1406 128.771 17.0406 129.771C16.1406 130.871 15.9406 132.571 15.0406 133.671C14.3406 134.371 12.9406 134.271 12.4406 134.771C11.7406 135.871 10.3406 134.771 9.54061 134.471C8.74061 133.771 7.04061 134.471 6.04061 134.171C4.84061 133.671 1.64061 134.771 2.14061 132.571C2.54061 131.771 2.64061 130.471 2.44061 129.571C1.54061 127.071 6.24061 126.971 5.14061 124.571C4.14061 122.871 2.44061 125.371 1.14061 124.871C-0.059394 124.471 -0.359394 121.771 1.14061 121.471C2.04061 121.371 3.04061 121.671 3.84061 121.271C4.64061 120.771 5.64061 120.671 6.54061 120.971C7.94061 121.371 9.24061 121.271 10.4406 121.671C11.2406 121.971 12.3406 122.271 13.0406 121.671C13.7406 121.171 14.2406 120.171 15.0406 120.071C16.5406 120.071 17.5406 119.371 19.2406 119.871C20.1406 120.171 21.1406 120.271 21.9406 119.771C25.0406 115.471 28.6406 111.071 33.6406 108.771C37.0406 107.471 40.4406 106.371 43.7406 104.471C45.2406 103.571 46.3406 101.471 48.2406 101.371C50.2406 101.271 51.5406 104.871 53.6406 103.071C61.7406 99.1714 54.0406 98.0714 59.0406 95.0714C59.3406 94.7714 59.7406 94.3714 60.1406 94.1714C60.9406 93.8714 61.9406 94.6714 62.1406 94.0714C62.2406 93.7714 62.0406 93.2714 61.9406 92.9714C61.2406 91.3714 58.9406 91.6714 58.1406 90.1714C57.5406 88.8714 57.9406 86.5714 59.3406 86.0714C61.2406 85.7714 62.9406 85.4714 64.9406 85.9714C65.9406 86.1714 67.2406 86.5714 67.7406 85.6714C68.0406 85.1714 68.3406 84.5714 68.9406 84.4714C69.7406 84.1714 70.8406 84.4714 71.5406 83.9714C72.4406 83.3714 72.0406 81.9714 72.9406 81.2714C74.2406 80.5714 75.0406 78.2714 76.7406 78.7714C77.6406 79.2714 78.7406 78.6714 79.6406 78.6714C80.5406 79.0714 81.1406 80.6714 82.2406 81.0714C84.9406 82.1714 83.5406 85.4714 86.0406 86.6714C90.1406 88.1714 91.7406 89.8714 95.4406 86.7714C96.2406 86.4714 97.6406 87.7714 97.2406 85.9714C96.6406 80.1714 90.4406 76.5714 92.9406 70.5714C93.3406 69.5714 93.6406 68.3714 94.6406 67.7714C95.9406 67.2714 96.8406 66.4714 97.5406 65.3714C98.2406 64.7714 98.6406 63.5714 99.2406 63.1714C100.241 62.7714 101.141 62.3714 101.141 61.0714C100.841 58.0714 102.041 55.8714 102.941 53.1714C104.041 49.7714 105.341 44.7714 109.341 49.0714C110.241 49.8714 112.341 49.8714 113.241 48.9714C113.641 48.3714 113.741 47.4714 114.441 47.1714C115.441 46.7714 117.241 47.4714 117.441 45.8714C116.941 42.7714 119.841 39.2714 118.541 36.2714C118.441 34.4714 120.641 32.9714 121.741 31.7714C122.441 30.9714 123.241 30.0714 124.541 29.6714C128.741 26.5714 126.041 17.2714 134.541 18.7714L135.141 19.2714Z" fill="#ECDFCF" fill-opacity="0.8" stroke="#6E553B" stroke-width="2" mask="url(#path-1-inside-1_6273_16474)"/>
    <g clip-path="url(#clip0_6273_16474)">
    <path d="M198.128 171.638C198.221 171.394 198.3 171.145 198.411 170.909C198.773 170.14 199.278 169.739 200.399 169.318C200.399 168.067 200.399 166.807 200.399 165.547C200.399 164.915 200.568 164.75 201.21 164.748C201.664 164.747 202.118 164.745 202.572 164.742C202.595 164.742 202.617 164.726 202.599 164.733C202.775 163.709 202.87 162.688 203.131 161.71C204.421 156.875 207.403 153.491 212.011 151.547C212.294 151.427 212.424 151.296 212.403 150.975C212.373 150.523 212.383 150.067 212.4 149.614C212.409 149.371 212.319 149.278 212.087 149.195C210.939 148.782 210.27 147.966 210.145 146.739C210.085 146.152 210.279 145.947 210.861 145.942C211.34 145.938 211.819 145.951 212.297 145.933C212.409 145.929 212.583 145.85 212.615 145.763C213.236 144.076 213.839 142.382 214.45 140.679C214.194 140.549 213.952 140.448 213.733 140.308C212.924 139.795 212.478 139.055 212.409 138.096C212.37 137.567 212.575 137.346 213.103 137.344C213.984 137.34 214.865 137.344 215.8 137.344C215.8 136.917 215.826 136.518 215.795 136.122C215.712 135.066 216.105 134.315 217.125 133.938C217.378 133.938 217.63 133.938 217.883 133.938C218.111 134.063 218.36 134.162 218.564 134.319C219.015 134.663 219.206 135.146 219.206 135.708C219.206 136.237 219.206 136.767 219.206 137.345C219.67 137.345 220.108 137.345 220.546 137.345C221 137.345 221.454 137.342 221.908 137.345C222.432 137.35 222.64 137.571 222.596 138.102C222.506 139.218 221.933 140.006 220.938 140.498C220.827 140.553 220.709 140.595 220.567 140.653C220.602 140.766 220.629 140.873 220.666 140.976C221.222 142.529 221.787 144.08 222.331 145.637C222.411 145.865 222.513 145.956 222.757 145.948C223.249 145.931 223.741 145.936 224.232 145.946C224.7 145.955 224.889 146.169 224.871 146.64C224.83 147.795 224.075 148.817 222.941 149.187C222.664 149.277 222.597 149.407 222.608 149.669C222.625 150.123 222.629 150.578 222.607 151.031C222.593 151.303 222.696 151.417 222.944 151.521C227.406 153.386 230.377 156.621 231.753 161.263C232.083 162.377 232.208 163.553 232.436 164.752C232.871 164.752 233.385 164.749 233.899 164.752C234.409 164.757 234.606 164.953 234.608 165.464C234.611 166.75 234.608 168.036 234.608 169.338C235.231 169.504 235.766 169.791 236.181 170.275C236.615 170.782 236.852 171.368 236.874 172.033C236.888 172.464 236.669 172.683 236.236 172.7C236.173 172.702 236.11 172.7 236.047 172.7C223.684 172.7 211.323 172.7 198.96 172.705C198.606 172.705 198.314 172.645 198.125 172.321C198.125 172.094 198.125 171.868 198.125 171.64L198.128 171.638ZM231.17 164.729C230.965 157.601 224.724 151.062 216.489 151.66C208.827 152.216 203.895 158.766 203.862 164.732H211.323C211.316 164.667 211.312 164.62 211.305 164.575C211.17 163.702 211.469 163.047 212.262 162.625C212.349 162.579 212.422 162.441 212.439 162.337C212.62 161.176 213.132 160.189 213.963 159.362C214.973 158.357 215.977 157.346 216.987 156.34C217.375 155.954 217.632 155.95 218.016 156.332C219.053 157.364 220.088 158.399 221.118 159.436C221.752 160.074 222.219 160.822 222.421 161.701C222.538 162.208 222.675 162.613 223.163 162.937C223.762 163.335 223.828 164.023 223.681 164.729H231.171H231.17ZM235.617 171.542C235.58 171.445 235.564 171.374 235.528 171.313C235.147 170.653 234.556 170.423 233.815 170.424C223.737 170.43 213.658 170.428 203.58 170.428C203.441 170.428 203.299 170.442 203.164 170.418C202.852 170.36 202.668 170.164 202.676 169.841C202.684 169.538 202.868 169.355 203.164 169.302C203.287 169.281 203.416 169.292 203.541 169.292C206.329 169.292 209.117 169.292 211.904 169.292H212.366V165.916H201.534C201.534 167.171 201.534 168.394 201.534 169.618C201.534 170.232 201.41 170.37 200.808 170.436C200.128 170.511 199.559 170.964 199.43 171.543H235.618L235.617 171.542ZM213.641 138.489C213.92 139.163 214.395 139.509 215.053 139.602C215.761 139.702 215.923 139.945 215.684 140.615C215.094 142.261 214.501 143.907 213.909 145.553C213.869 145.666 213.838 145.782 213.798 145.917H221.181C221.188 145.869 221.201 145.843 221.194 145.823C220.615 144.199 220.036 142.575 219.444 140.956C219.41 140.864 219.255 140.763 219.153 140.758C218.649 140.738 218.145 140.751 217.641 140.748C217.199 140.745 216.945 140.534 216.946 140.18C216.946 139.826 217.201 139.617 217.644 139.615C218.362 139.611 219.081 139.624 219.799 139.61C220.542 139.595 221.16 139.133 221.325 138.489H213.641ZM233.461 165.912H222.637V169.27H233.461V165.912ZM219.207 169.27C219.207 169.114 219.207 168.979 219.207 168.842C219.207 166.991 219.207 165.139 219.207 163.287C219.207 163.137 219.202 162.985 219.186 162.835C219.09 161.999 218.389 161.362 217.551 161.343C216.549 161.32 215.812 162.075 215.807 163.16C215.798 165.1 215.804 167.04 215.806 168.98C215.806 169.075 215.824 169.171 215.834 169.27H219.21H219.207ZM213.577 162.478C213.902 162.478 214.193 162.499 214.477 162.466C214.587 162.454 214.737 162.339 214.775 162.237C215.219 160.989 216.248 160.212 217.489 160.207C218.753 160.202 219.782 160.97 220.231 162.245C220.263 162.334 220.354 162.46 220.424 162.465C220.753 162.489 221.086 162.475 221.424 162.475C221.292 161.661 221.035 161.009 220.537 160.491C219.559 159.475 218.55 158.488 217.553 157.491C217.539 157.477 217.507 157.481 217.527 157.485C216.492 158.499 215.459 159.478 214.468 160.498C213.959 161.023 213.693 161.695 213.576 162.478H213.577ZM223.632 147.112H211.404C211.703 147.875 212.264 148.21 213.229 148.211C216.077 148.213 218.925 148.213 221.772 148.211C221.96 148.211 222.153 148.205 222.337 148.172C222.949 148.059 223.37 147.711 223.631 147.113L223.632 147.112ZM213.558 151.008C216.199 150.305 218.813 150.314 221.453 151.003V149.372H213.558V151.009V151.008ZM213.563 165.897V169.267H214.634V165.897H213.563ZM221.457 165.912H220.365V169.263H221.457V165.912ZM214.648 163.615C214.054 163.615 213.503 163.604 212.952 163.619C212.624 163.628 212.4 163.872 212.407 164.176C212.415 164.499 212.592 164.719 212.907 164.734C213.48 164.763 214.057 164.742 214.648 164.742V163.614V163.615ZM220.356 164.745C220.955 164.745 221.519 164.76 222.081 164.739C222.378 164.728 222.568 164.541 222.597 164.237C222.628 163.932 222.478 163.671 222.19 163.648C221.584 163.603 220.974 163.634 220.355 163.634V164.744L220.356 164.745ZM218.064 137.331C218.064 136.734 218.078 136.17 218.059 135.607C218.048 135.287 217.843 135.096 217.525 135.08C217.243 135.066 216.996 135.215 216.979 135.494C216.941 136.1 216.968 136.71 216.968 137.331H218.065H218.064Z" fill="#6E553B"/>
    </g>
    <g clip-path="url(#clip1_6273_16474)">
    <path d="M214.067 77.6073L211.019 74.9342L208.348 73.5119L206.119 70.0875L202.346 69.2372L198.536 66.9607L196.862 68.8406L192.836 68.9893L190.373 70.9799L188.78 71.487L186.853 68.1466L185.305 68.894C183.62 68.6652 181.785 68.4021 181.492 68.3411C181.235 68.2267 179.754 67.4411 178.448 66.7395L178.128 66.5679L176.361 67.9864L173.157 67.464L172.275 68.1771L170.482 67.5899L166.047 64.9473L163.308 67.0064C162.75 66.2133 162.475 66.1179 162.374 66.0836C162.084 65.9845 159.361 65.0884 159.361 65.0884L159.011 64.974L156.994 67.3496H152.801L149.196 69.9617L148.414 68.4364L144.586 67.2467L140.988 72.9818L136.653 73.9923L135.139 77.92L132.623 80.1164L128.125 84.7114L128.914 85.5198L133.364 80.9592L136.072 78.5949L137.471 74.9609L141.676 73.9809L145.066 68.5775L147.64 69.3783L148.797 71.6357L148.969 71.5099L150.688 72.9551H153.37L155.424 75.857L158.345 76.7913L158.125 77.0811L153.82 80.0135L147.927 85.9012L148.708 86.721L154.483 80.9401L158.895 77.9353L161.054 75.1058L162.851 72.5204L163.308 71.5366L166.869 73.0657L167.948 74.2974L168.904 78.9992L173.191 80.4291L176.766 82.454L182.291 88.0213L183.073 87.2053L177.436 81.5312L173.682 79.4034L172.424 78.9801L175.788 77.2374L179.613 73.1725L183.757 72.3717L185.748 69.9503L186.414 69.63L188.274 72.8522L188.427 72.8026L190.6 74.4194L192.408 74.8465L195.668 75.1706L197.956 79.8152L199.816 82.4235L203.306 84.6199L203.89 83.6437L200.586 81.5617L198.931 79.2546L196.386 74.0915L192.62 73.7216L191.069 73.3555L189.755 72.3793L190.901 72.0132L193.242 70.1219L197.372 69.9693L198.756 68.4173L201.937 70.3202L205.442 71.1095L207.581 74.3965L210.346 75.8532L213.248 78.3928L216.277 82.0154L217.125 81.2719L214.067 77.6149V77.6073ZM162.746 70.0494L161.909 71.895L160.157 74.4194L159.082 75.8303L156.112 74.8808L153.943 71.815H151.093L149.921 70.8311L153.158 68.486H157.508L159.375 66.2857C160.082 66.5183 161.634 67.0293 161.984 67.1475C162.118 67.2619 162.445 67.7043 162.706 68.1199L163.026 68.6347L166.125 66.3048L169.983 68.6042L171.323 69.0503L169.41 70.8655L167.189 71.9599L162.75 70.057L162.746 70.0494ZM183.158 71.3116L179.054 72.1048L175.114 76.2955L170.925 78.4691L169.864 78.1107L168.979 73.7597L168.112 72.7683L170.043 71.8188L172.755 69.241L173.47 68.6652L176.673 69.1876L178.254 67.9178C179.531 68.6042 180.948 69.3554 181.149 69.424C181.302 69.4774 182.37 69.6376 184.319 69.9083L183.162 71.3192L183.158 71.3116Z" fill="#6E553B"/>
    </g>
    <g clip-path="url(#clip2_6273_16474)">
    <path d="M138.868 144.601V143.649L144.423 137.777L133.988 133.68C133.842 132.146 132.833 131.252 132.464 130.973L131.5 128.936L130.536 130.973C130.167 131.252 129.158 132.146 129.012 133.68L118.577 137.777L124.132 143.649V144.601L110.125 151.532L117.842 156.426V157.564H119.271V164.66H118.986V166.936H144.015V164.66H143.729V157.564H145.159V156.426L152.876 151.532L138.868 144.601H138.868ZM130.002 134.428V134.057C130.002 132.58 131.141 131.824 131.187 131.794L131.314 131.713L131.5 131.319L131.688 131.712L131.81 131.792C131.859 131.823 132.998 132.58 132.998 134.057V134.428L141.089 137.605H121.911L130.003 134.428L130.002 134.428ZM120.85 138.671H142.15L137.973 143.087H125.028L120.851 138.671H120.85ZM125.138 145.281H137.862L149.536 151.057H113.464L125.138 145.281ZM142.72 157.182V165.041H120.28V157.182H142.72ZM144.201 155.79H118.799L113.018 152.123H149.982L144.201 155.79Z" fill="#6E553B"/>
    </g>
    <circle cx="210.492" cy="110.68" r="3" fill="#6E553B"/>
    <mask id="path-6-inside-2_6273_16474" fill="white">
    <path fill-rule="evenodd" clip-rule="evenodd" d="M536.096 21.8485C536.096 20.7485 535.396 19.3485 536.096 18.3485C536.696 17.7485 537.796 17.5485 538.496 17.0485C540.196 15.9485 540.696 13.9485 542.296 13.0485C545.196 11.9485 547.696 13.4485 550.596 12.3485C551.496 12.3485 552.496 11.8485 552.696 10.9485C552.896 10.2485 552.496 9.44848 552.496 8.74848C552.396 7.94848 553.196 7.24848 553.796 6.44848C554.296 5.64848 554.796 4.54848 555.796 4.74848C556.396 4.74848 556.896 5.04848 557.496 5.04848C558.896 5.34848 559.596 4.04848 560.596 3.44848C562.496 2.74848 564.296 1.94848 566.196 1.44848C567.896 1.44848 569.996 3.24848 571.496 1.74848C571.996 1.34848 572.596 0.848485 573.296 0.948485C574.596 1.04848 577.696 2.64848 576.396 4.14848C576.096 4.54848 576.096 4.94848 576.596 5.14848C581.496 7.74848 580.696 3.44848 583.696 5.64848C584.496 6.44848 585.596 6.54848 586.696 6.14848C588.396 5.24848 590.896 7.04848 591.296 8.54848C591.296 9.64848 589.996 11.5485 591.496 12.2485C592.896 13.0485 594.596 13.0485 596.196 12.8485C597.496 13.1485 598.896 12.8485 600.096 12.7485C601.496 12.9485 600.796 14.9485 600.696 16.0485C600.396 17.5485 598.596 17.4485 597.696 18.3485C595.896 20.3485 597.396 23.6485 597.696 25.9485C597.796 26.8485 597.896 27.7485 598.696 28.2485C599.796 28.7485 601.196 29.0485 601.096 30.6485C600.796 33.2485 598.696 36.0485 599.996 38.7485C600.696 40.0485 602.296 38.3485 603.496 38.8485C604.796 39.2485 606.296 39.9485 606.796 41.2485C607.696 43.1485 606.296 44.8485 605.996 46.7485C606.096 51.2485 602.596 55.7485 604.396 60.2485C605.696 61.8485 607.696 60.4485 609.096 60.4485C610.396 61.2485 611.396 62.8485 612.796 63.4485C613.896 63.8485 615.096 64.1485 616.196 64.6485C616.996 64.9485 617.696 63.7485 618.496 64.0485C619.196 64.2485 619.696 64.9485 620.396 65.0485C621.696 65.1485 623.096 64.6485 624.396 65.4485C627.696 66.7485 624.196 69.0485 626.496 69.3485C627.296 69.3485 628.296 69.6485 628.796 70.4485C629.096 70.9485 629.096 71.5485 629.096 72.1485C629.096 73.5485 630.696 74.3485 630.496 75.6485C629.596 77.9485 631.496 78.5485 632.896 79.8485C633.796 80.3485 634.796 80.9485 635.496 81.7485C636.096 82.3485 636.996 81.7485 637.596 81.3485C638.896 80.2485 640.396 81.5485 641.796 81.0485C642.896 80.5485 644.096 80.2485 644.996 81.3485C647.196 83.3485 650.396 81.6485 652.896 82.6485C654.496 83.3485 655.096 84.9485 655.696 86.5485C656.196 87.3485 657.096 87.8485 657.496 88.7485C657.796 89.3485 658.396 89.7485 659.096 90.0485C663.596 91.1485 659.896 93.9485 661.696 96.0485C662.996 96.4485 663.896 97.5485 664.996 98.1485C666.896 98.6485 669.096 99.1485 670.896 99.5485C673.396 100.548 677.596 103.648 679.496 104.448C680.196 104.748 680.596 104.148 681.196 103.848C681.996 103.348 683.096 103.448 683.796 102.848C685.096 101.748 685.996 102.248 687.796 101.748C688.596 101.548 689.396 101.448 690.196 101.748C690.996 102.048 691.096 103.148 691.896 103.048C693.296 102.748 694.996 102.348 695.796 101.248C696.096 100.648 695.796 99.9485 696.096 99.2485C697.596 96.5485 699.996 94.4485 702.096 92.2485C702.996 91.4485 703.596 90.0485 704.896 89.8485C705.596 89.9485 706.296 90.5485 707.096 90.6485C708.196 90.9485 709.296 89.5485 710.496 89.3485C712.696 88.8485 713.796 91.5485 714.996 92.9485C715.696 94.3485 717.196 94.8485 718.696 94.7485C719.796 94.7485 719.696 95.8485 720.296 96.4485C720.896 97.1485 721.096 98.1485 720.596 98.9485C720.196 99.9485 718.896 100.648 718.796 101.448C718.996 103.348 720.396 104.848 719.996 106.948C719.996 107.848 720.096 109.148 719.196 109.648C716.796 110.148 716.696 112.948 715.996 114.948C715.096 116.848 712.096 115.248 711.296 117.348C710.896 118.448 709.896 119.448 709.796 120.648C709.796 121.248 710.296 121.648 710.596 122.048C711.596 123.548 711.096 126.148 712.096 127.848C713.296 129.148 710.996 135.148 709.596 135.448C701.596 135.448 703.796 142.848 700.296 147.048C697.696 148.048 695.896 150.348 694.096 152.348C692.596 153.448 693.896 155.048 693.996 156.448C693.596 158.648 692.296 161.148 692.396 163.348C692.796 167.148 689.696 164.548 688.496 166.648C688.196 167.348 687.996 168.348 686.996 168.348C686.096 168.348 685.096 168.648 684.196 168.248C682.496 166.548 679.896 164.948 678.496 167.748C677.396 170.848 676.196 174.448 674.896 177.548C674.796 178.948 675.496 181.448 673.996 182.348C671.996 182.948 671.396 185.248 669.896 186.548C668.596 187.448 666.896 187.848 666.496 189.648C665.496 191.748 665.296 194.148 665.796 196.448C667.796 200.048 670.396 203.348 670.796 207.648C670.596 208.748 669.396 207.348 668.796 207.848C667.696 208.748 666.196 210.048 664.696 209.848C662.196 208.848 657.296 208.548 656.996 205.048C656.996 202.848 654.996 202.148 653.596 200.948C653.096 200.448 652.796 199.448 652.096 199.248C651.096 199.248 650.396 200.048 649.296 199.448C647.396 198.548 646.696 200.848 645.396 201.648C644.096 202.248 644.596 203.748 643.796 204.648C642.996 205.648 641.196 204.948 640.396 205.648C638.996 208.448 637.196 206.748 634.696 206.648C633.396 206.748 632.096 206.848 630.796 206.948C629.396 207.448 628.796 210.048 629.496 211.448C630.196 212.848 632.296 212.648 633.196 213.948C633.596 214.448 634.196 215.548 633.396 215.748C631.496 215.048 631.196 215.948 629.896 217.048C627.696 217.848 628.896 219.648 628.996 221.248C628.996 223.248 626.796 223.448 625.196 224.748C622.496 226.848 621.896 224.148 619.496 223.248C617.196 222.848 616.096 225.348 614.396 226.348C612.596 227.548 610.096 228.248 608.296 229.448C606.696 229.648 605.096 230.248 603.596 230.948C599.696 232.748 596.496 236.048 593.596 239.148C592.696 240.248 592.396 241.948 591.196 242.648C590.096 243.348 588.496 242.648 587.296 242.448C586.196 242.348 585.296 242.948 584.196 242.848C581.896 242.848 582.196 246.048 578.996 244.648C577.596 244.148 576.296 244.348 574.996 243.848C573.696 243.248 572.496 243.848 571.296 244.348C570.396 244.648 568.896 243.948 568.296 244.748C567.596 245.448 567.796 247.048 568.496 247.748C569.996 249.348 571.996 245.548 573.196 247.648C574.296 249.548 571.196 250.348 570.496 251.448C569.996 252.348 570.596 253.448 570.596 254.348C570.596 257.048 567.196 258.048 565.096 258.648C563.596 259.448 561.096 259.948 560.896 261.948C560.696 264.148 559.796 266.148 560.496 268.348C560.596 271.648 557.596 267.848 556.396 267.448C551.596 264.948 546.996 262.548 542.196 260.048C538.596 258.348 534.996 256.048 531.296 254.548C526.496 253.848 520.696 253.948 515.796 253.548C513.496 253.748 504.696 252.148 504.296 253.648C504.396 254.348 505.396 254.648 505.496 255.448C505.796 256.748 503.996 257.448 503.796 258.548C504.196 261.048 508.196 261.548 504.996 264.148C503.896 264.648 503.896 265.848 503.696 266.948C501.896 269.048 500.496 271.848 497.796 272.648C497.196 272.748 496.596 272.448 496.096 272.548C495.496 272.548 495.296 273.048 494.396 272.948C494.096 272.948 493.796 272.848 493.496 272.848C491.696 272.248 489.496 270.148 489.596 267.948C489.596 267.148 489.896 266.448 489.396 265.748C487.696 263.548 484.696 262.848 482.996 260.848C481.796 259.448 481.196 257.348 479.396 256.648C475.996 255.548 472.696 256.648 469.296 256.548C466.496 256.548 463.796 257.448 460.896 256.948C457.896 255.948 454.596 255.948 451.796 254.348C449.396 251.748 449.896 249.548 445.396 250.248C441.996 250.948 438.696 249.848 435.296 250.448C433.296 250.948 431.296 250.248 429.196 250.248C427.896 250.248 425.396 250.448 425.696 248.648C425.896 248.048 426.196 247.848 426.596 247.648C427.396 246.848 426.396 246.248 426.296 245.448C426.196 244.648 425.696 243.748 426.396 243.048C426.796 242.048 426.796 240.748 427.496 239.648C428.196 238.648 427.696 237.948 426.896 237.248C426.396 236.548 425.396 235.448 425.496 234.448C425.596 233.748 425.696 232.848 425.396 232.248C425.496 231.748 425.496 231.048 425.196 230.748C424.996 230.448 424.996 230.248 424.796 229.748C424.396 229.148 423.496 228.948 423.196 228.148C422.596 227.248 423.296 226.148 423.196 225.048C422.996 224.548 422.596 224.048 422.296 223.648C421.396 222.348 422.296 220.648 421.896 219.148C421.796 218.148 420.796 216.248 421.196 215.548C421.496 215.148 422.796 215.348 423.496 214.948C424.296 214.648 424.596 213.748 425.196 213.248C426.096 212.448 428.196 212.648 429.696 212.748C432.496 213.848 434.496 212.748 432.996 209.948C432.496 209.048 431.896 209.348 431.396 209.648C430.396 209.748 429.696 208.448 428.796 208.148C427.996 207.548 426.896 206.648 427.496 205.548C428.296 204.248 430.196 204.048 431.296 203.048C431.696 202.648 432.696 202.048 433.096 201.848C433.796 201.548 432.296 200.948 432.996 200.548C433.096 200.448 433.196 200.448 433.296 200.448C434.296 200.148 433.796 199.548 434.096 198.748C434.696 197.648 435.596 195.948 436.396 195.448C437.096 195.148 437.896 195.448 438.596 195.548C439.596 195.748 440.296 195.048 441.196 195.248C441.896 195.348 442.796 195.648 443.396 195.048C444.496 193.648 446.596 195.948 447.796 194.548C448.296 193.848 448.796 192.948 449.796 192.448C450.796 191.948 451.896 192.248 452.796 192.348C453.596 192.348 454.696 192.348 455.396 192.348C456.096 192.348 456.796 191.848 457.496 192.048C458.796 193.348 458.796 192.548 458.896 191.248C459.496 188.548 458.196 186.148 455.596 185.248C454.796 184.948 454.196 183.848 453.596 183.748C452.996 183.648 452.296 183.848 451.996 183.148C451.896 182.748 452.796 182.248 453.296 181.948C453.796 181.548 453.996 181.048 454.096 180.248C454.296 179.448 454.196 178.248 453.596 177.548C453.196 177.048 452.596 176.748 452.696 176.048C454.096 173.248 456.896 170.848 457.496 167.648C457.996 167.048 458.896 167.848 459.396 168.148C462.696 170.048 464.396 166.348 463.496 163.648C463.696 162.548 463.396 162.248 462.596 161.648C461.796 161.148 461.996 160.348 461.596 159.748C460.996 159.048 461.096 158.248 461.296 157.348C461.796 155.248 460.496 153.348 460.296 151.448C460.196 150.748 459.996 150.348 460.696 150.048C462.396 149.248 464.496 149.848 466.196 150.248C467.596 149.548 468.496 147.448 468.596 145.848C468.596 144.648 467.496 143.748 466.696 142.848C465.796 141.948 465.496 140.748 464.596 139.948C463.496 138.848 461.796 138.848 460.396 138.548C458.096 138.048 456.996 135.948 455.496 134.448C454.596 133.848 453.196 133.948 452.396 133.448C451.296 132.448 451.096 130.248 450.196 128.948C449.796 128.448 449.396 128.148 448.796 128.048C446.496 127.848 447.496 125.048 446.496 123.748C445.596 121.748 442.296 120.848 442.996 118.248C443.196 117.048 445.996 118.148 445.996 117.148C445.196 115.648 443.296 114.348 442.896 112.648C448.096 111.748 445.896 109.848 447.196 106.348C448.996 103.448 455.396 112.948 455.096 105.148C454.896 104.648 454.196 104.348 453.596 103.948C452.196 103.148 451.096 100.948 452.296 99.5485C454.596 97.0485 454.396 96.7485 457.796 97.7485C459.596 98.2485 461.496 96.5485 463.096 97.4485C463.696 97.7485 464.396 98.0485 465.096 97.8485C466.596 97.8485 467.596 96.2485 468.996 96.3485C469.396 96.3485 469.796 96.4485 470.196 96.4485C471.496 96.0485 471.596 93.5485 471.596 92.3485C471.596 91.6485 471.496 90.8485 472.296 90.7485C472.896 90.5485 473.696 90.5485 473.996 89.8485C474.596 88.4485 475.296 87.1485 474.996 85.5485C474.696 84.1485 473.696 81.9485 475.196 80.9485C476.796 80.4485 479.196 81.3485 480.596 82.0485C481.696 82.7485 482.896 82.4485 483.896 81.9485C484.496 81.6485 485.096 81.8485 485.696 82.2485C488.696 84.8485 491.496 83.4485 494.796 82.4485C496.696 81.6485 498.696 82.7485 500.596 82.1485C501.796 81.5485 502.396 79.4485 503.796 79.0485C506.096 78.8485 508.396 78.4485 510.696 77.6485C511.896 77.0485 513.096 76.3485 514.396 75.9485C517.396 74.2485 513.196 69.5485 515.696 67.5485C516.496 67.2485 517.396 66.9485 517.696 66.0485C518.196 64.4485 516.796 62.9485 518.396 61.7485C521.096 59.0485 523.096 55.1485 526.096 52.8485C527.096 51.7485 527.196 49.9485 528.196 48.8485C528.896 48.2485 530.096 48.8485 530.596 47.9485C531.596 44.8485 530.096 41.5485 531.696 38.6485C532.296 37.6485 532.996 36.7485 532.596 35.5485C532.396 34.4485 531.296 33.8485 531.596 32.7485C532.496 30.8485 535.096 32.3485 535.496 30.0485C535.796 28.9485 538.296 29.5485 538.496 28.4485C538.996 26.0485 536.196 24.3485 536.496 21.9485L536.096 21.8485Z"/>
    </mask>
    <path fill-rule="evenodd" clip-rule="evenodd" d="M536.096 21.8485C536.096 20.7485 535.396 19.3485 536.096 18.3485C536.696 17.7485 537.796 17.5485 538.496 17.0485C540.196 15.9485 540.696 13.9485 542.296 13.0485C545.196 11.9485 547.696 13.4485 550.596 12.3485C551.496 12.3485 552.496 11.8485 552.696 10.9485C552.896 10.2485 552.496 9.44848 552.496 8.74848C552.396 7.94848 553.196 7.24848 553.796 6.44848C554.296 5.64848 554.796 4.54848 555.796 4.74848C556.396 4.74848 556.896 5.04848 557.496 5.04848C558.896 5.34848 559.596 4.04848 560.596 3.44848C562.496 2.74848 564.296 1.94848 566.196 1.44848C567.896 1.44848 569.996 3.24848 571.496 1.74848C571.996 1.34848 572.596 0.848485 573.296 0.948485C574.596 1.04848 577.696 2.64848 576.396 4.14848C576.096 4.54848 576.096 4.94848 576.596 5.14848C581.496 7.74848 580.696 3.44848 583.696 5.64848C584.496 6.44848 585.596 6.54848 586.696 6.14848C588.396 5.24848 590.896 7.04848 591.296 8.54848C591.296 9.64848 589.996 11.5485 591.496 12.2485C592.896 13.0485 594.596 13.0485 596.196 12.8485C597.496 13.1485 598.896 12.8485 600.096 12.7485C601.496 12.9485 600.796 14.9485 600.696 16.0485C600.396 17.5485 598.596 17.4485 597.696 18.3485C595.896 20.3485 597.396 23.6485 597.696 25.9485C597.796 26.8485 597.896 27.7485 598.696 28.2485C599.796 28.7485 601.196 29.0485 601.096 30.6485C600.796 33.2485 598.696 36.0485 599.996 38.7485C600.696 40.0485 602.296 38.3485 603.496 38.8485C604.796 39.2485 606.296 39.9485 606.796 41.2485C607.696 43.1485 606.296 44.8485 605.996 46.7485C606.096 51.2485 602.596 55.7485 604.396 60.2485C605.696 61.8485 607.696 60.4485 609.096 60.4485C610.396 61.2485 611.396 62.8485 612.796 63.4485C613.896 63.8485 615.096 64.1485 616.196 64.6485C616.996 64.9485 617.696 63.7485 618.496 64.0485C619.196 64.2485 619.696 64.9485 620.396 65.0485C621.696 65.1485 623.096 64.6485 624.396 65.4485C627.696 66.7485 624.196 69.0485 626.496 69.3485C627.296 69.3485 628.296 69.6485 628.796 70.4485C629.096 70.9485 629.096 71.5485 629.096 72.1485C629.096 73.5485 630.696 74.3485 630.496 75.6485C629.596 77.9485 631.496 78.5485 632.896 79.8485C633.796 80.3485 634.796 80.9485 635.496 81.7485C636.096 82.3485 636.996 81.7485 637.596 81.3485C638.896 80.2485 640.396 81.5485 641.796 81.0485C642.896 80.5485 644.096 80.2485 644.996 81.3485C647.196 83.3485 650.396 81.6485 652.896 82.6485C654.496 83.3485 655.096 84.9485 655.696 86.5485C656.196 87.3485 657.096 87.8485 657.496 88.7485C657.796 89.3485 658.396 89.7485 659.096 90.0485C663.596 91.1485 659.896 93.9485 661.696 96.0485C662.996 96.4485 663.896 97.5485 664.996 98.1485C666.896 98.6485 669.096 99.1485 670.896 99.5485C673.396 100.548 677.596 103.648 679.496 104.448C680.196 104.748 680.596 104.148 681.196 103.848C681.996 103.348 683.096 103.448 683.796 102.848C685.096 101.748 685.996 102.248 687.796 101.748C688.596 101.548 689.396 101.448 690.196 101.748C690.996 102.048 691.096 103.148 691.896 103.048C693.296 102.748 694.996 102.348 695.796 101.248C696.096 100.648 695.796 99.9485 696.096 99.2485C697.596 96.5485 699.996 94.4485 702.096 92.2485C702.996 91.4485 703.596 90.0485 704.896 89.8485C705.596 89.9485 706.296 90.5485 707.096 90.6485C708.196 90.9485 709.296 89.5485 710.496 89.3485C712.696 88.8485 713.796 91.5485 714.996 92.9485C715.696 94.3485 717.196 94.8485 718.696 94.7485C719.796 94.7485 719.696 95.8485 720.296 96.4485C720.896 97.1485 721.096 98.1485 720.596 98.9485C720.196 99.9485 718.896 100.648 718.796 101.448C718.996 103.348 720.396 104.848 719.996 106.948C719.996 107.848 720.096 109.148 719.196 109.648C716.796 110.148 716.696 112.948 715.996 114.948C715.096 116.848 712.096 115.248 711.296 117.348C710.896 118.448 709.896 119.448 709.796 120.648C709.796 121.248 710.296 121.648 710.596 122.048C711.596 123.548 711.096 126.148 712.096 127.848C713.296 129.148 710.996 135.148 709.596 135.448C701.596 135.448 703.796 142.848 700.296 147.048C697.696 148.048 695.896 150.348 694.096 152.348C692.596 153.448 693.896 155.048 693.996 156.448C693.596 158.648 692.296 161.148 692.396 163.348C692.796 167.148 689.696 164.548 688.496 166.648C688.196 167.348 687.996 168.348 686.996 168.348C686.096 168.348 685.096 168.648 684.196 168.248C682.496 166.548 679.896 164.948 678.496 167.748C677.396 170.848 676.196 174.448 674.896 177.548C674.796 178.948 675.496 181.448 673.996 182.348C671.996 182.948 671.396 185.248 669.896 186.548C668.596 187.448 666.896 187.848 666.496 189.648C665.496 191.748 665.296 194.148 665.796 196.448C667.796 200.048 670.396 203.348 670.796 207.648C670.596 208.748 669.396 207.348 668.796 207.848C667.696 208.748 666.196 210.048 664.696 209.848C662.196 208.848 657.296 208.548 656.996 205.048C656.996 202.848 654.996 202.148 653.596 200.948C653.096 200.448 652.796 199.448 652.096 199.248C651.096 199.248 650.396 200.048 649.296 199.448C647.396 198.548 646.696 200.848 645.396 201.648C644.096 202.248 644.596 203.748 643.796 204.648C642.996 205.648 641.196 204.948 640.396 205.648C638.996 208.448 637.196 206.748 634.696 206.648C633.396 206.748 632.096 206.848 630.796 206.948C629.396 207.448 628.796 210.048 629.496 211.448C630.196 212.848 632.296 212.648 633.196 213.948C633.596 214.448 634.196 215.548 633.396 215.748C631.496 215.048 631.196 215.948 629.896 217.048C627.696 217.848 628.896 219.648 628.996 221.248C628.996 223.248 626.796 223.448 625.196 224.748C622.496 226.848 621.896 224.148 619.496 223.248C617.196 222.848 616.096 225.348 614.396 226.348C612.596 227.548 610.096 228.248 608.296 229.448C606.696 229.648 605.096 230.248 603.596 230.948C599.696 232.748 596.496 236.048 593.596 239.148C592.696 240.248 592.396 241.948 591.196 242.648C590.096 243.348 588.496 242.648 587.296 242.448C586.196 242.348 585.296 242.948 584.196 242.848C581.896 242.848 582.196 246.048 578.996 244.648C577.596 244.148 576.296 244.348 574.996 243.848C573.696 243.248 572.496 243.848 571.296 244.348C570.396 244.648 568.896 243.948 568.296 244.748C567.596 245.448 567.796 247.048 568.496 247.748C569.996 249.348 571.996 245.548 573.196 247.648C574.296 249.548 571.196 250.348 570.496 251.448C569.996 252.348 570.596 253.448 570.596 254.348C570.596 257.048 567.196 258.048 565.096 258.648C563.596 259.448 561.096 259.948 560.896 261.948C560.696 264.148 559.796 266.148 560.496 268.348C560.596 271.648 557.596 267.848 556.396 267.448C551.596 264.948 546.996 262.548 542.196 260.048C538.596 258.348 534.996 256.048 531.296 254.548C526.496 253.848 520.696 253.948 515.796 253.548C513.496 253.748 504.696 252.148 504.296 253.648C504.396 254.348 505.396 254.648 505.496 255.448C505.796 256.748 503.996 257.448 503.796 258.548C504.196 261.048 508.196 261.548 504.996 264.148C503.896 264.648 503.896 265.848 503.696 266.948C501.896 269.048 500.496 271.848 497.796 272.648C497.196 272.748 496.596 272.448 496.096 272.548C495.496 272.548 495.296 273.048 494.396 272.948C494.096 272.948 493.796 272.848 493.496 272.848C491.696 272.248 489.496 270.148 489.596 267.948C489.596 267.148 489.896 266.448 489.396 265.748C487.696 263.548 484.696 262.848 482.996 260.848C481.796 259.448 481.196 257.348 479.396 256.648C475.996 255.548 472.696 256.648 469.296 256.548C466.496 256.548 463.796 257.448 460.896 256.948C457.896 255.948 454.596 255.948 451.796 254.348C449.396 251.748 449.896 249.548 445.396 250.248C441.996 250.948 438.696 249.848 435.296 250.448C433.296 250.948 431.296 250.248 429.196 250.248C427.896 250.248 425.396 250.448 425.696 248.648C425.896 248.048 426.196 247.848 426.596 247.648C427.396 246.848 426.396 246.248 426.296 245.448C426.196 244.648 425.696 243.748 426.396 243.048C426.796 242.048 426.796 240.748 427.496 239.648C428.196 238.648 427.696 237.948 426.896 237.248C426.396 236.548 425.396 235.448 425.496 234.448C425.596 233.748 425.696 232.848 425.396 232.248C425.496 231.748 425.496 231.048 425.196 230.748C424.996 230.448 424.996 230.248 424.796 229.748C424.396 229.148 423.496 228.948 423.196 228.148C422.596 227.248 423.296 226.148 423.196 225.048C422.996 224.548 422.596 224.048 422.296 223.648C421.396 222.348 422.296 220.648 421.896 219.148C421.796 218.148 420.796 216.248 421.196 215.548C421.496 215.148 422.796 215.348 423.496 214.948C424.296 214.648 424.596 213.748 425.196 213.248C426.096 212.448 428.196 212.648 429.696 212.748C432.496 213.848 434.496 212.748 432.996 209.948C432.496 209.048 431.896 209.348 431.396 209.648C430.396 209.748 429.696 208.448 428.796 208.148C427.996 207.548 426.896 206.648 427.496 205.548C428.296 204.248 430.196 204.048 431.296 203.048C431.696 202.648 432.696 202.048 433.096 201.848C433.796 201.548 432.296 200.948 432.996 200.548C433.096 200.448 433.196 200.448 433.296 200.448C434.296 200.148 433.796 199.548 434.096 198.748C434.696 197.648 435.596 195.948 436.396 195.448C437.096 195.148 437.896 195.448 438.596 195.548C439.596 195.748 440.296 195.048 441.196 195.248C441.896 195.348 442.796 195.648 443.396 195.048C444.496 193.648 446.596 195.948 447.796 194.548C448.296 193.848 448.796 192.948 449.796 192.448C450.796 191.948 451.896 192.248 452.796 192.348C453.596 192.348 454.696 192.348 455.396 192.348C456.096 192.348 456.796 191.848 457.496 192.048C458.796 193.348 458.796 192.548 458.896 191.248C459.496 188.548 458.196 186.148 455.596 185.248C454.796 184.948 454.196 183.848 453.596 183.748C452.996 183.648 452.296 183.848 451.996 183.148C451.896 182.748 452.796 182.248 453.296 181.948C453.796 181.548 453.996 181.048 454.096 180.248C454.296 179.448 454.196 178.248 453.596 177.548C453.196 177.048 452.596 176.748 452.696 176.048C454.096 173.248 456.896 170.848 457.496 167.648C457.996 167.048 458.896 167.848 459.396 168.148C462.696 170.048 464.396 166.348 463.496 163.648C463.696 162.548 463.396 162.248 462.596 161.648C461.796 161.148 461.996 160.348 461.596 159.748C460.996 159.048 461.096 158.248 461.296 157.348C461.796 155.248 460.496 153.348 460.296 151.448C460.196 150.748 459.996 150.348 460.696 150.048C462.396 149.248 464.496 149.848 466.196 150.248C467.596 149.548 468.496 147.448 468.596 145.848C468.596 144.648 467.496 143.748 466.696 142.848C465.796 141.948 465.496 140.748 464.596 139.948C463.496 138.848 461.796 138.848 460.396 138.548C458.096 138.048 456.996 135.948 455.496 134.448C454.596 133.848 453.196 133.948 452.396 133.448C451.296 132.448 451.096 130.248 450.196 128.948C449.796 128.448 449.396 128.148 448.796 128.048C446.496 127.848 447.496 125.048 446.496 123.748C445.596 121.748 442.296 120.848 442.996 118.248C443.196 117.048 445.996 118.148 445.996 117.148C445.196 115.648 443.296 114.348 442.896 112.648C448.096 111.748 445.896 109.848 447.196 106.348C448.996 103.448 455.396 112.948 455.096 105.148C454.896 104.648 454.196 104.348 453.596 103.948C452.196 103.148 451.096 100.948 452.296 99.5485C454.596 97.0485 454.396 96.7485 457.796 97.7485C459.596 98.2485 461.496 96.5485 463.096 97.4485C463.696 97.7485 464.396 98.0485 465.096 97.8485C466.596 97.8485 467.596 96.2485 468.996 96.3485C469.396 96.3485 469.796 96.4485 470.196 96.4485C471.496 96.0485 471.596 93.5485 471.596 92.3485C471.596 91.6485 471.496 90.8485 472.296 90.7485C472.896 90.5485 473.696 90.5485 473.996 89.8485C474.596 88.4485 475.296 87.1485 474.996 85.5485C474.696 84.1485 473.696 81.9485 475.196 80.9485C476.796 80.4485 479.196 81.3485 480.596 82.0485C481.696 82.7485 482.896 82.4485 483.896 81.9485C484.496 81.6485 485.096 81.8485 485.696 82.2485C488.696 84.8485 491.496 83.4485 494.796 82.4485C496.696 81.6485 498.696 82.7485 500.596 82.1485C501.796 81.5485 502.396 79.4485 503.796 79.0485C506.096 78.8485 508.396 78.4485 510.696 77.6485C511.896 77.0485 513.096 76.3485 514.396 75.9485C517.396 74.2485 513.196 69.5485 515.696 67.5485C516.496 67.2485 517.396 66.9485 517.696 66.0485C518.196 64.4485 516.796 62.9485 518.396 61.7485C521.096 59.0485 523.096 55.1485 526.096 52.8485C527.096 51.7485 527.196 49.9485 528.196 48.8485C528.896 48.2485 530.096 48.8485 530.596 47.9485C531.596 44.8485 530.096 41.5485 531.696 38.6485C532.296 37.6485 532.996 36.7485 532.596 35.5485C532.396 34.4485 531.296 33.8485 531.596 32.7485C532.496 30.8485 535.096 32.3485 535.496 30.0485C535.796 28.9485 538.296 29.5485 538.496 28.4485C538.996 26.0485 536.196 24.3485 536.496 21.9485L536.096 21.8485Z" fill="#ECDFCF" fill-opacity="0.8" stroke="#6E553B" stroke-width="2" mask="url(#path-6-inside-2_6273_16474)"/>
    <g clip-path="url(#clip3_6273_16474)">
    <path d="M483.674 232.647C487.358 230.834 491.353 228.129 495.579 225.264C502.495 220.573 509.65 215.726 516.316 214.235C516.835 214.12 517.365 214.017 517.876 213.916C518.788 213.739 519.729 213.558 520.626 213.296C522.674 212.696 524.61 211.644 526.484 210.626L527.089 210.299C532.317 207.47 537.783 204.946 543.328 202.793L543.644 203.61C538.134 205.749 532.704 208.258 527.503 211.069L526.902 211.396C524.989 212.435 523.011 213.51 520.872 214.136C519.937 214.41 518.972 214.596 518.043 214.776C517.537 214.874 517.013 214.976 516.505 215.088C510.002 216.541 502.918 221.341 496.071 225.985C491.819 228.867 487.802 231.591 484.062 233.429L483.675 232.641L483.674 232.647Z" fill="#6E553B"/>
    <path d="M486.333 239.13C490.243 236.606 494.58 234.751 498.776 232.953C500.964 232.016 503.226 231.049 505.397 229.998C508.36 228.564 511.287 226.912 514.117 225.316C518.72 222.719 523.48 220.032 528.544 218.197C530.548 217.47 532.637 216.863 534.659 216.275C538.958 215.026 543.403 213.732 547.142 211.243L547.627 211.975C543.776 214.537 539.265 215.853 534.904 217.122C532.897 217.705 530.823 218.311 528.845 219.026C523.851 220.838 519.124 223.505 514.552 226.082C511.709 227.686 508.772 229.345 505.784 230.789C503.598 231.849 501.325 232.819 499.129 233.762C494.968 235.542 490.664 237.387 486.818 239.868L486.342 239.13L486.333 239.13Z" fill="#6E553B"/>
    <path d="M538.052 203.262L538.696 202.667C540.372 204.476 541.481 206.701 542.557 208.854C543.479 210.697 544.43 212.604 545.724 214.204L545.041 214.757C543.689 213.083 542.715 211.134 541.774 209.248C540.728 207.15 539.643 204.981 538.053 203.265L538.052 203.262Z" fill="#6E553B"/>
    <path d="M530.712 206.862L531.352 206.262C534.242 209.355 536.75 212.798 538.805 216.496L538.038 216.922C536.015 213.285 533.551 209.901 530.712 206.859L530.712 206.862Z" fill="#6E553B"/>
    <path d="M524.032 209.562L524.796 209.128C526.962 212.95 529.746 216.344 533.067 219.218L532.493 219.88C529.095 216.939 526.249 213.466 524.034 209.558L524.032 209.562Z" fill="#6E553B"/>
    <path d="M508.467 216.069L509.239 215.648C511.306 219.44 513.54 223.206 515.876 226.84L515.137 227.316C512.789 223.663 510.546 219.879 508.467 216.069Z" fill="#6E553B"/>
    <path d="M498.834 220.874L499.604 220.45C501.47 223.848 504.344 228.232 506.925 231.618L506.227 232.151C503.622 228.733 500.723 224.305 498.837 220.873L498.834 220.874Z" fill="#6E553B"/>
    <path d="M491.158 225.094L491.988 224.808C492.363 225.892 493.068 226.877 493.75 227.828L494.025 228.213C495.769 230.67 497.281 233.307 498.522 236.052L497.722 236.415C496.505 233.72 495.02 231.133 493.31 228.721L493.036 228.341C492.317 227.341 491.576 226.303 491.159 225.097L491.158 225.094Z" fill="#6E553B"/>
    <path d="M516.322 212.426L517.12 212.058C518.893 215.902 521.122 219.537 523.745 222.861L523.056 223.403C520.391 220.026 518.125 216.331 516.322 212.426Z" fill="#6E553B"/>
    </g>
    <g clip-path="url(#clip4_6273_16474)">
    <path d="M606.043 86.6073L602.996 83.9342L600.324 82.5119L598.096 79.0875L594.323 78.2372L590.513 75.9607L588.838 77.8406L584.813 77.9893L582.349 79.9799L580.757 80.487L578.83 77.1466L577.282 77.894C575.596 77.6652 573.762 77.4021 573.468 77.3411C573.211 77.2267 571.73 76.4411 570.425 75.7395L570.105 75.5679L568.337 76.9864L565.134 76.464L564.252 77.1771L562.458 76.5899L558.023 73.9473L555.285 76.0064C554.727 75.2133 554.451 75.1179 554.351 75.0836C554.061 74.9845 551.337 74.0884 551.337 74.0884L550.987 73.974L548.971 76.3496H544.777L541.172 78.9617L540.391 77.4364L536.562 76.2467L532.964 81.9818L528.629 82.9923L527.115 86.92L524.6 89.1164L520.102 93.7114L520.89 94.5198L525.34 89.9592L528.049 87.5949L529.448 83.9609L533.652 82.9809L537.042 77.5775L539.617 78.3783L540.774 80.6357L540.945 80.5099L542.664 81.9551H545.347L547.401 84.857L550.321 85.7913L550.102 86.0811L545.797 89.0135L539.903 94.9012L540.685 95.721L546.459 89.9401L550.872 86.9353L553.03 84.1058L554.827 81.5204L555.285 80.5366L558.846 82.0657L559.925 83.2974L560.881 87.9992L565.167 89.4291L568.743 91.454L574.268 97.0213L575.049 96.2053L569.412 90.5312L565.658 88.4034L564.401 87.9801L567.764 86.2374L571.589 82.1725L575.734 81.3717L577.725 78.9503L578.391 78.63L580.251 81.8522L580.404 81.8026L582.576 83.4194L584.385 83.8465L587.644 84.1706L589.932 88.8152L591.793 91.4235L595.283 93.6199L595.867 92.6437L592.563 90.5617L590.907 88.2546L588.362 83.0915L584.597 82.7216L583.045 82.3555L581.732 81.3793L582.878 81.0132L585.218 79.1219L589.348 78.9693L590.732 77.4173L593.914 79.3202L597.418 80.1095L599.558 83.3965L602.322 84.8532L605.225 87.3928L608.253 91.0154L609.102 90.2719L606.043 86.6149V86.6073ZM554.723 79.0494L553.886 80.895L552.133 83.4194L551.058 84.8303L548.089 83.8808L545.92 80.815H543.07L541.898 79.8311L545.135 77.486H549.484L551.352 75.2857C552.059 75.5183 553.611 76.0293 553.96 76.1475C554.094 76.2619 554.422 76.7043 554.682 77.1199L555.002 77.6347L558.101 75.3048L561.96 77.6042L563.299 78.0503L561.387 79.8655L559.166 80.9599L554.727 79.057L554.723 79.0494ZM575.135 80.3116L571.031 81.1048L567.091 85.2955L562.901 87.4691L561.841 87.1107L560.955 82.7597L560.088 81.7683L562.019 80.8188L564.732 78.241L565.446 77.6652L568.65 78.1876L570.231 76.9178C571.507 77.6042 572.925 78.3554 573.126 78.424C573.278 78.4774 574.346 78.6376 576.296 78.9083L575.139 80.3192L575.135 80.3116Z" fill="#6E553B"/>
    </g>
    <g clip-path="url(#clip5_6273_16474)">
    <path d="M622.036 176.06C621.92 175.317 621.77 174.764 621.519 174.148C621.383 173.817 621.135 173.633 620.917 173.472C620.861 173.431 620.806 173.391 620.754 173.348C620.618 173.235 620.48 173.098 620.334 172.953C619.98 172.6 619.579 172.201 619.07 172.045C618.287 171.806 617.263 172.009 616.643 172.3C616.215 172.501 615.761 172.688 615.281 172.885C614.336 173.272 613.36 173.672 612.55 174.207C612.075 174.519 611.703 175.001 611.375 175.426C611.302 175.521 611.23 175.615 611.157 175.705C610.879 176.051 610.622 176.213 610.296 176.416C610.134 176.518 609.95 176.633 609.754 176.78C609.324 177.102 609.032 177.501 608.749 177.889C608.379 178.396 608.059 178.833 607.481 179.054C607.219 179.154 606.928 179.174 606.619 179.197C606.617 179.197 606.615 179.197 606.612 179.197L604.309 158.703L603.312 95.9744V-0.808594H602.675V98.2596L599.911 182.274C599.777 182.259 599.645 182.23 599.508 182.174C599.384 182.125 599.273 182.076 599.168 182.031C598.75 181.85 598.389 181.693 597.788 181.686C596.522 181.671 595.65 182.165 594.556 182.864C594.014 183.21 593.762 183.41 593.457 184.004C593.292 184.327 593.058 184.658 592.764 184.99C592.429 185.367 592.164 185.855 591.953 186.48C591.834 186.831 591.754 187.185 591.678 187.528L591.647 187.665C591.635 187.714 591.627 187.746 591.621 187.754C591.593 187.79 591.547 187.82 591.49 187.859C591.391 187.926 591.269 188.009 591.169 188.159C591.066 188.314 590.953 188.46 590.833 188.614L590.749 188.724C589.51 190.329 589.448 192.667 589.393 194.728C589.377 195.304 589.363 195.85 589.324 196.358C589.308 196.568 589.291 196.778 589.275 196.99C589.192 198.043 589.106 199.133 589.102 200.189C589.096 201.634 589.31 202.866 589.55 204.105C589.97 206.283 590.532 208.755 591.886 210.518C591.981 210.643 592.083 210.8 592.182 210.951C592.274 211.094 592.371 211.241 592.464 211.366C592.608 211.558 592.766 211.727 592.919 211.891C592.984 211.961 593.047 212.03 593.112 212.1C594.06 213.158 594.893 213.924 596.106 214.472C596.773 214.773 597.506 214.937 598.173 214.937H598.19C598.563 214.936 598.916 214.917 599.236 214.88C599.46 214.855 599.701 214.755 599.914 214.668C600.023 214.623 600.127 214.58 600.198 214.562C600.624 214.446 601.113 214.257 601.585 214.075C602.011 213.91 602.451 213.74 602.834 213.628C604.089 213.261 605.696 212.755 606.997 212.093C607.82 211.673 608.489 210.84 608.984 209.616C609.727 207.774 610.993 206.322 612.331 204.785C613.528 203.411 614.765 201.99 615.581 200.275C615.704 200.016 615.833 199.755 615.961 199.491C616.509 198.37 617.076 197.211 617.415 196.021C617.658 195.166 617.883 194.287 618.102 193.438C618.276 192.761 618.455 192.061 618.641 191.385C618.93 190.334 619.355 189.303 619.765 188.306C619.927 187.912 620.095 187.504 620.252 187.1C620.737 185.856 621.03 184.497 621.204 182.694C621.275 181.97 621.449 181.24 621.617 180.534C621.785 179.834 621.958 179.109 622.034 178.377C622.068 178.052 622.166 176.926 622.033 176.062L622.036 176.06ZM607.706 179.661C608.461 179.374 608.868 178.815 609.262 178.275C609.528 177.91 609.779 177.567 610.133 177.302C610.308 177.171 610.472 177.069 610.631 176.969C610.978 176.752 611.306 176.547 611.651 176.115C611.726 176.022 611.801 175.925 611.876 175.828C612.189 175.424 612.51 175.006 612.897 174.751C613.482 174.365 614.179 174.045 614.888 173.748C614.739 174.43 614.635 175.755 614.554 176.961C613.539 177.399 612.266 178.103 611.344 178.628C611.114 178.759 610.885 178.89 610.655 179.017L610.189 179.278C609.094 179.893 607.979 180.518 606.826 181.077L606.687 179.842C607.021 179.818 607.365 179.79 607.706 179.661ZM602.909 110.582L603.675 158.729V158.745L605.982 179.27C605.837 179.3 605.694 179.341 605.554 179.404C605.097 179.61 604.685 179.88 604.288 180.139C604.171 180.215 604.054 180.292 603.934 180.369C603.751 180.484 603.525 180.581 603.285 180.683C602.863 180.863 602.426 181.049 602.134 181.386C602.024 181.513 601.938 181.625 601.862 181.723C601.617 182.045 601.543 182.142 601.051 182.195C600.953 182.206 600.856 182.218 600.761 182.23C600.689 182.238 600.62 182.247 600.552 182.256L602.909 110.582ZM600.531 182.911C600.635 182.9 600.738 182.888 600.841 182.875C600.932 182.863 601.025 182.852 601.119 182.841C601.843 182.763 602.064 182.517 602.366 182.123C602.436 182.032 602.514 181.928 602.612 181.816C602.808 181.591 603.176 181.434 603.532 181.283C603.784 181.175 604.046 181.064 604.272 180.92C604.394 180.843 604.514 180.765 604.632 180.687C605.026 180.428 605.398 180.185 605.811 179.999C605.887 179.964 605.969 179.939 606.055 179.92L606.217 181.366C605.477 181.705 604.723 182.012 603.948 182.266C603.519 182.407 603.096 182.56 602.688 182.707C601.95 182.972 601.251 183.223 600.513 183.416L600.53 182.911H600.531ZM597.785 182.335C598.26 182.34 598.523 182.455 598.921 182.628C599.032 182.675 599.149 182.726 599.278 182.778C599.489 182.863 599.693 182.906 599.892 182.924L599.872 183.538C598.844 183.649 597.742 183.394 596.753 183.163H596.751L596.611 183.796C597.472 183.997 598.414 184.216 599.352 184.216C599.519 184.216 599.685 184.208 599.85 184.192L599.72 188.158C599.666 188.234 599.607 188.329 599.52 188.44C599.201 188.436 598.764 189.239 598.879 189.485C599.052 189.858 599.488 190.002 599.831 189.875C600.011 189.809 600.152 189.681 600.339 189.635C600.58 189.575 600.72 189.642 600.889 189.426C601.142 189.102 601.309 188.343 600.905 188.147C600.758 188.077 600.553 188.029 600.362 187.999L600.491 184.09C600.511 184.085 600.531 184.082 600.551 184.077C601.361 183.873 602.143 183.592 602.9 183.319C603.304 183.173 603.723 183.023 604.143 182.885C604.879 182.644 605.594 182.357 606.293 182.044L606.837 186.884C606.504 186.923 605.982 187.365 605.99 187.598C606.002 188.01 606.347 188.319 606.711 188.343C606.902 188.355 607.081 188.295 607.269 188.329C607.513 188.372 607.616 188.491 607.855 188.361C608.213 188.167 608.666 187.539 608.37 187.195C608.215 187.015 607.931 186.828 607.721 186.711C607.61 186.65 607.528 186.634 607.452 186.649L606.903 181.76C608.14 181.169 609.33 180.503 610.496 179.848L610.961 179.587C611.192 179.459 611.422 179.327 611.655 179.196C612.578 178.671 613.533 178.129 614.505 177.717C614.455 178.523 614.414 179.181 614.376 179.406C614.244 180.178 613.928 180.875 613.635 181.603C612.409 184.636 610.789 187.911 608.936 190.477C608.055 191.698 607.023 192.71 606.175 193.954C605.256 195.302 604.441 196.135 603.038 196.916C600.323 198.424 596.996 197.882 596.247 194.525C595.885 192.907 595.683 191.332 595.437 189.672C595.221 188.204 595.17 185.032 595.087 183.294C596.027 182.702 596.758 182.323 597.785 182.336V182.335ZM621.404 178.306C621.333 178.996 621.172 179.667 621.002 180.378C620.827 181.105 620.648 181.859 620.574 182.629C620.406 184.37 620.125 185.674 619.664 186.858C619.509 187.258 619.342 187.662 619.181 188.053C618.762 189.069 618.33 190.118 618.031 191.209C617.844 191.89 617.663 192.592 617.489 193.272C617.273 194.117 617.047 194.992 616.806 195.839C616.484 196.973 615.93 198.105 615.394 199.2C615.264 199.466 615.135 199.729 615.011 199.989C614.232 201.624 613.024 203.011 611.857 204.352C610.542 205.863 609.183 207.425 608.398 209.367C607.964 210.441 607.398 211.163 606.716 211.51C605.462 212.149 603.891 212.643 602.662 213.003C602.253 213.122 601.801 213.297 601.362 213.467C600.905 213.643 600.432 213.827 600.036 213.934C599.929 213.963 599.808 214.013 599.679 214.065C599.504 214.136 599.305 214.219 599.168 214.234C598.869 214.267 598.54 214.286 598.189 214.287H598.175C597.604 214.287 596.944 214.138 596.366 213.877C595.402 213.443 594.713 212.869 593.954 212.064C593.965 212.071 593.975 212.079 593.985 212.087C594.649 212.64 594.966 212.833 595.789 213.044C596.48 213.221 597.094 213.334 597.713 213.334C598.332 213.334 598.926 213.225 599.614 212.965C600.085 212.786 600.547 212.564 600.993 212.351C601.635 212.043 602.3 211.725 602.992 211.535C604.141 211.221 604.936 210.484 605.778 209.704C605.883 209.607 605.988 209.51 606.095 209.413C607.255 208.354 608.125 207.098 608.967 205.884C609.588 204.988 610.231 204.061 610.979 203.232C612.71 201.317 614.618 199.038 615.357 196.234C615.493 195.718 615.606 195.188 615.715 194.674C615.916 193.728 616.124 192.751 616.478 191.877C616.852 190.954 617.087 190.018 617.314 189.111C617.527 188.262 617.747 187.383 618.081 186.534L617.489 186.293C617.141 187.181 616.915 188.08 616.697 188.95C616.475 189.834 616.246 190.748 615.889 191.628C615.513 192.556 615.299 193.562 615.093 194.535C614.985 195.04 614.874 195.564 614.742 196.064C614.04 198.727 612.19 200.933 610.511 202.791C609.734 203.651 609.08 204.594 608.447 205.508C607.625 206.692 606.775 207.918 605.669 208.927C605.561 209.025 605.455 209.124 605.349 209.221C604.566 209.947 603.827 210.632 602.827 210.906C602.079 211.11 601.389 211.441 600.721 211.762C600.267 211.979 599.837 212.186 599.391 212.354C598.146 212.826 597.219 212.739 595.944 212.412C595.213 212.225 594.983 212.079 594.387 211.582C594.192 211.42 593.981 211.373 593.793 211.332C593.474 211.263 593.144 211.19 592.669 210.519C592.578 210.379 592.484 210.238 592.388 210.114C591.12 208.463 590.581 206.079 590.175 203.974C589.943 202.769 589.734 201.571 589.74 200.185C589.744 199.154 589.829 198.078 589.911 197.037C589.928 196.825 589.944 196.614 589.96 196.403C590 195.878 590.015 195.325 590.03 194.741C590.074 193.087 590.123 191.249 590.801 189.851C590.818 191.972 590.923 195.117 591.273 196.909C591.618 198.677 591.419 200.64 591.853 202.417C592.06 203.268 592.727 204.019 593.288 204.699C593.718 205.22 594.387 206.331 594.954 206.631C596.24 207.309 599.109 206.993 600.352 206.414C602.293 205.509 604.248 205.632 605.67 203.849C606.841 202.38 608.208 201.036 609.451 199.617C610.691 198.203 611.969 196.496 612.836 194.752C613.766 192.88 614.292 190.768 614.998 188.822C616.528 184.605 619.184 180.953 620.104 176.459C620.202 175.982 620.352 174.686 620.48 173.948C620.5 173.963 620.52 173.978 620.539 173.994C620.711 174.121 620.86 174.232 620.927 174.395C621.159 174.959 621.297 175.469 621.403 176.158C621.486 176.688 621.485 177.489 621.4 178.302L621.404 178.306Z" fill="#6E553B"/>
    </g>
    <path d="M575.491 134.178C575.767 134.179 575.991 133.956 575.992 133.68L576.007 129.18C576.007 128.904 575.784 128.679 575.508 128.678C575.232 128.677 575.007 128.901 575.007 129.177L574.994 133.177L570.994 133.164C570.718 133.163 570.493 133.386 570.492 133.662C570.491 133.938 570.714 134.163 570.991 134.164L575.491 134.178ZM210.871 112.008C240.046 78.1777 292.181 44.4995 356.473 38.8656C420.743 33.2337 497.227 55.6207 575.138 134.031L575.847 133.326C497.757 54.736 420.992 32.208 356.386 37.8694C291.803 43.5288 239.438 77.3521 210.114 111.355L210.871 112.008Z" fill="#6E553B"/>
    <defs>
    <clipPath id="clip0_6273_16474">
    <rect width="38.75" height="38.7662" fill="white" transform="translate(198.125 133.936)"/>
    </clipPath>
    <clipPath id="clip1_6273_16474">
    <rect width="89" height="23.0741" fill="white" transform="translate(128.125 64.9355)"/>
    </clipPath>
    <clipPath id="clip2_6273_16474">
    <rect width="42.75" height="38" fill="white" transform="translate(110.125 128.936)"/>
    </clipPath>
    <clipPath id="clip3_6273_16474">
    <rect width="19.5217" height="67.2137" fill="white" transform="translate(544.062 200.936) rotate(72.1072)"/>
    </clipPath>
    <clipPath id="clip4_6273_16474">
    <rect width="89" height="23.0741" fill="white" transform="translate(520.102 73.9355)"/>
    </clipPath>
    <clipPath id="clip5_6273_16474">
    <rect width="33" height="130" fill="white" transform="translate(589.102 84.9355)"/>
    </clipPath>
    </defs>
    </svg>
    