<svg width="651" height="273" viewBox="0 0 651 273" fill="none" xmlns="http://www.w3.org/2000/svg">
    <mask id="path-1-inside-1_6273_16578" fill="white">
    <path fill-rule="evenodd" clip-rule="evenodd" d="M115.971 20.9266C115.971 19.8266 115.271 18.4266 115.971 17.4266C116.571 16.8266 117.671 16.6266 118.371 16.1266C120.071 15.0266 120.571 13.0266 122.171 12.1266C125.071 11.0266 127.571 12.5266 130.471 11.4266C131.371 11.4266 132.371 10.9266 132.571 10.0266C132.771 9.32661 132.371 8.52661 132.371 7.82661C132.271 7.02661 133.071 6.32661 133.671 5.52661C134.171 4.72661 134.671 3.62661 135.671 3.82661C136.271 3.82661 136.771 4.12661 137.371 4.12661C138.771 4.42661 139.471 3.12661 140.471 2.52661C142.371 1.82661 144.171 1.02661 146.071 0.52661C147.771 0.52661 149.871 2.32661 151.371 0.82661C151.871 0.42661 152.471 -0.0733903 153.171 0.0266098C154.471 0.12661 157.571 1.72661 156.271 3.22661C155.971 3.62661 155.971 4.02661 156.471 4.22661C161.371 6.82661 160.571 2.52661 163.571 4.72661C164.371 5.52661 165.471 5.62661 166.571 5.22661C168.271 4.32661 170.771 6.12661 171.171 7.62661C171.171 8.72661 169.871 10.6266 171.371 11.3266C172.771 12.1266 174.471 12.1266 176.071 11.9266C177.371 12.2266 178.771 11.9266 179.971 11.8266C181.371 12.0266 180.671 14.0266 180.571 15.1266C180.271 16.6266 178.471 16.5266 177.571 17.4266C175.771 19.4266 177.271 22.7266 177.571 25.0266C177.671 25.9266 177.771 26.8266 178.571 27.3266C179.671 27.8266 181.071 28.1266 180.971 29.7266C180.671 32.3266 178.571 35.1266 179.871 37.8266C180.571 39.1266 182.171 37.4266 183.371 37.9266C184.671 38.3266 186.171 39.0266 186.671 40.3266C187.571 42.2266 186.171 43.9266 185.871 45.8266C185.971 50.3266 182.471 54.8266 184.271 59.3266C185.571 60.9266 187.571 59.5266 188.971 59.5266C190.271 60.3266 191.271 61.9266 192.671 62.5266C193.771 62.9266 194.971 63.2266 196.071 63.7266C196.871 64.0266 197.571 62.8266 198.371 63.1266C199.071 63.3266 199.571 64.0266 200.271 64.1266C201.571 64.2266 202.971 63.7266 204.271 64.5266C207.571 65.8266 204.071 68.1266 206.371 68.4266C207.171 68.4266 208.171 68.7266 208.671 69.5266C208.971 70.0266 208.971 70.6266 208.971 71.2266C208.971 72.6266 210.571 73.4266 210.371 74.7266C209.471 77.0266 211.371 77.6266 212.771 78.9266C213.671 79.4266 214.671 80.0266 215.371 80.8266C215.971 81.4266 216.871 80.8266 217.471 80.4266C218.771 79.3266 220.271 80.6266 221.671 80.1266C222.771 79.6266 223.971 79.3266 224.871 80.4266C227.071 82.4266 230.271 80.7266 232.771 81.7266C234.371 82.4266 234.971 84.0266 235.571 85.6266C236.071 86.4266 236.971 86.9266 237.371 87.8266C237.671 88.4266 238.271 88.8266 238.971 89.1266C243.471 90.2266 239.771 93.0266 241.571 95.1266C242.871 95.5266 243.771 96.6266 244.871 97.2266C246.771 97.7266 248.971 98.2266 250.771 98.6266C253.271 99.6266 257.471 102.727 259.371 103.527C260.071 103.827 260.471 103.227 261.071 102.927C261.871 102.427 262.971 102.527 263.671 101.927C264.971 100.827 265.871 101.327 267.671 100.827C268.471 100.627 269.271 100.527 270.071 100.827C270.871 101.127 270.971 102.227 271.771 102.127C273.171 101.827 274.871 101.427 275.671 100.327C275.971 99.7266 275.671 99.0266 275.971 98.3266C277.471 95.6266 279.871 93.5266 281.971 91.3266C282.871 90.5266 283.471 89.1266 284.771 88.9266C285.471 89.0266 286.171 89.6266 286.971 89.7266C288.071 90.0266 289.171 88.6266 290.371 88.4266C292.571 87.9266 293.671 90.6266 294.871 92.0266C295.571 93.4266 297.071 93.9266 298.571 93.8266C299.671 93.8266 299.571 94.9266 300.171 95.5266C300.771 96.2266 300.971 97.2266 300.471 98.0266C300.071 99.0266 298.771 99.7266 298.671 100.527C298.871 102.427 300.271 103.927 299.871 106.027C299.871 106.927 299.971 108.227 299.071 108.727C296.671 109.227 296.571 112.027 295.871 114.027C294.971 115.927 291.971 114.327 291.171 116.427C290.771 117.527 289.771 118.527 289.671 119.727C289.671 120.327 290.171 120.727 290.471 121.127C291.471 122.627 290.971 125.227 291.971 126.927C293.171 128.227 290.871 134.227 289.471 134.527C281.471 134.527 283.671 141.927 280.171 146.127C277.571 147.127 275.771 149.427 273.971 151.427C272.471 152.527 273.771 154.127 273.871 155.527C273.471 157.727 272.171 160.227 272.271 162.427C272.671 166.227 269.571 163.627 268.371 165.727C268.071 166.427 267.871 167.427 266.871 167.427C265.971 167.427 264.971 167.727 264.071 167.327C262.371 165.627 259.771 164.027 258.371 166.827C257.271 169.927 256.071 173.527 254.771 176.627C254.671 178.027 255.371 180.527 253.871 181.427C251.871 182.027 251.271 184.327 249.771 185.627C248.471 186.527 246.771 186.927 246.371 188.727C245.371 190.827 245.171 193.227 245.671 195.527C247.671 199.127 250.271 202.427 250.671 206.727C250.471 207.827 249.271 206.427 248.671 206.927C247.571 207.827 246.071 209.127 244.571 208.927C242.071 207.927 237.171 207.627 236.871 204.127C236.871 201.927 234.871 201.227 233.471 200.027C232.971 199.527 232.671 198.527 231.971 198.327C230.971 198.327 230.271 199.127 229.171 198.527C227.271 197.627 226.571 199.927 225.271 200.727C223.971 201.327 224.471 202.827 223.671 203.727C222.871 204.727 221.071 204.027 220.271 204.727C218.871 207.527 217.071 205.827 214.571 205.727C213.271 205.827 211.971 205.927 210.671 206.027C209.271 206.527 208.671 209.127 209.371 210.527C210.071 211.927 212.171 211.727 213.071 213.027C213.471 213.527 214.071 214.627 213.271 214.827C211.371 214.127 211.071 215.027 209.771 216.127C207.571 216.927 208.771 218.727 208.871 220.327C208.871 222.327 206.671 222.527 205.071 223.827C202.371 225.927 201.771 223.227 199.371 222.327C197.071 221.927 195.971 224.427 194.271 225.427C192.471 226.627 189.971 227.327 188.171 228.527C186.571 228.727 184.971 229.327 183.471 230.027C179.571 231.827 176.371 235.127 173.471 238.227C172.571 239.327 172.271 241.027 171.071 241.727C169.971 242.427 168.371 241.727 167.171 241.527C166.071 241.427 165.171 242.027 164.071 241.927C161.771 241.927 162.071 245.127 158.871 243.727C157.471 243.227 156.171 243.427 154.871 242.927C153.571 242.327 152.371 242.927 151.171 243.427C150.271 243.727 148.771 243.027 148.171 243.827C147.471 244.527 147.671 246.127 148.371 246.827C149.871 248.427 151.871 244.627 153.071 246.727C154.171 248.627 151.071 249.427 150.371 250.527C149.871 251.427 150.471 252.527 150.471 253.427C150.471 256.127 147.071 257.127 144.971 257.727C143.471 258.527 140.971 259.027 140.771 261.027C140.571 263.227 139.671 265.227 140.371 267.427C140.471 270.727 137.471 266.927 136.271 266.527C131.471 264.027 126.871 261.627 122.071 259.127C118.471 257.427 114.871 255.127 111.171 253.627C106.371 252.927 100.571 253.027 95.6706 252.627C93.3706 252.827 84.5706 251.227 84.1706 252.727C84.2706 253.427 85.2706 253.727 85.3706 254.527C85.6706 255.827 83.8706 256.527 83.6706 257.627C84.0706 260.127 88.0705 260.627 84.8706 263.227C83.7706 263.727 83.7705 264.927 83.5705 266.027C81.7705 268.127 80.3706 270.927 77.6706 271.727C77.0706 271.827 76.4706 271.527 75.9706 271.627C75.3706 271.627 75.1706 272.127 74.2706 272.027C73.9706 272.027 73.6706 271.927 73.3706 271.927C71.5705 271.327 69.3706 269.227 69.4706 267.027C69.4706 266.227 69.7706 265.527 69.2706 264.827C67.5706 262.627 64.5705 261.927 62.8705 259.927C61.6705 258.527 61.0705 256.427 59.2705 255.727C55.8705 254.627 52.5705 255.727 49.1705 255.627C46.3705 255.627 43.6706 256.527 40.7705 256.027C37.7705 255.027 34.4706 255.027 31.6705 253.427C29.2705 250.827 29.7705 248.627 25.2705 249.327C21.8706 250.027 18.5705 248.927 15.1705 249.527C13.1705 250.027 11.1705 249.327 9.07055 249.327C7.77055 249.327 5.27055 249.527 5.57055 247.727C5.77055 247.127 6.07055 246.927 6.47055 246.727C7.27055 245.927 6.27055 245.327 6.17055 244.527C6.07055 243.727 5.57055 242.827 6.27055 242.127C6.67055 241.127 6.67055 239.827 7.37055 238.727C8.07055 237.727 7.57055 237.027 6.77055 236.327C6.27055 235.627 5.27055 234.527 5.37055 233.527C5.47055 232.827 5.57055 231.927 5.27055 231.327C5.37055 230.827 5.37055 230.127 5.07055 229.827C4.87055 229.527 4.87055 229.327 4.67055 228.827C4.27055 228.227 3.37055 228.027 3.07055 227.227C2.47055 226.327 3.17055 225.227 3.07055 224.127C2.87055 223.627 2.47055 223.127 2.17055 222.727C1.27055 221.427 2.17055 219.727 1.77055 218.227C1.67055 217.227 0.67055 215.327 1.07055 214.627C1.37055 214.227 2.67055 214.427 3.37055 214.027C4.17055 213.727 4.47055 212.827 5.07055 212.327C5.97055 211.527 8.07055 211.727 9.57055 211.827C12.3705 212.927 14.3705 211.827 12.8705 209.027C12.3705 208.127 11.7705 208.427 11.2705 208.727C10.2705 208.827 9.57055 207.527 8.67055 207.227C7.87055 206.627 6.77055 205.727 7.37055 204.627C8.17055 203.327 10.0705 203.127 11.1705 202.127C11.5705 201.727 12.5705 201.127 12.9705 200.927C13.6705 200.627 12.1705 200.027 12.8705 199.627C12.9705 199.527 13.0705 199.527 13.1705 199.527C14.1705 199.227 13.6705 198.627 13.9705 197.827C14.5705 196.727 15.4705 195.027 16.2705 194.527C16.9705 194.227 17.7705 194.527 18.4706 194.627C19.4706 194.827 20.1706 194.127 21.0706 194.327C21.7706 194.427 22.6705 194.727 23.2705 194.127C24.3706 192.727 26.4705 195.027 27.6705 193.627C28.1705 192.927 28.6705 192.027 29.6705 191.527C30.6705 191.027 31.7705 191.327 32.6705 191.427C33.4706 191.427 34.5705 191.427 35.2705 191.427C35.9706 191.427 36.6705 190.927 37.3705 191.127C38.6705 192.427 38.6706 191.627 38.7705 190.327C39.3705 187.627 38.0705 185.227 35.4705 184.327C34.6705 184.027 34.0705 182.927 33.4705 182.827C32.8705 182.727 32.1705 182.927 31.8706 182.227C31.7705 181.827 32.6705 181.327 33.1705 181.027C33.6705 180.627 33.8705 180.127 33.9705 179.327C34.1705 178.527 34.0705 177.327 33.4705 176.627C33.0705 176.127 32.4706 175.827 32.5706 175.127C33.9706 172.327 36.7705 169.927 37.3705 166.727C37.8705 166.127 38.7705 166.927 39.2705 167.227C42.5705 169.127 44.2705 165.427 43.3705 162.727C43.5705 161.627 43.2705 161.327 42.4705 160.727C41.6705 160.227 41.8705 159.427 41.4705 158.827C40.8705 158.127 40.9705 157.327 41.1705 156.427C41.6705 154.327 40.3705 152.427 40.1705 150.527C40.0705 149.827 39.8705 149.427 40.5705 149.127C42.2705 148.327 44.3705 148.927 46.0705 149.327C47.4706 148.627 48.3705 146.527 48.4705 144.927C48.4705 143.727 47.3705 142.827 46.5705 141.927C45.6705 141.027 45.3705 139.827 44.4705 139.027C43.3705 137.927 41.6706 137.927 40.2705 137.627C37.9706 137.127 36.8705 135.027 35.3705 133.527C34.4705 132.927 33.0706 133.027 32.2706 132.527C31.1706 131.527 30.9706 129.327 30.0706 128.027C29.6706 127.527 29.2705 127.227 28.6705 127.127C26.3706 126.927 27.3706 124.127 26.3706 122.827C25.4706 120.827 22.1705 119.927 22.8706 117.327C23.0706 116.127 25.8706 117.227 25.8706 116.227C25.0706 114.727 23.1705 113.427 22.7705 111.727C27.9706 110.827 25.7706 108.927 27.0706 105.427C28.8706 102.527 35.2705 112.027 34.9705 104.227C34.7705 103.727 34.0705 103.427 33.4705 103.027C32.0705 102.227 30.9705 100.027 32.1705 98.6266C34.4706 96.1266 34.2705 95.8266 37.6705 96.8266C39.4705 97.3266 41.3705 95.6266 42.9705 96.5266C43.5705 96.8266 44.2705 97.1266 44.9705 96.9266C46.4705 96.9266 47.4705 95.3266 48.8705 95.4266C49.2705 95.4266 49.6705 95.5266 50.0705 95.5266C51.3705 95.1266 51.4705 92.6266 51.4705 91.4266C51.4705 90.7266 51.3705 89.9266 52.1705 89.8266C52.7705 89.6266 53.5705 89.6266 53.8705 88.9266C54.4705 87.5266 55.1705 86.2266 54.8705 84.6266C54.5705 83.2266 53.5705 81.0266 55.0705 80.0266C56.6705 79.5266 59.0705 80.4266 60.4705 81.1266C61.5705 81.8266 62.7705 81.5266 63.7705 81.0266C64.3705 80.7266 64.9706 80.9266 65.5705 81.3266C68.5705 83.9266 71.3706 82.5266 74.6706 81.5266C76.5706 80.7266 78.5705 81.8266 80.4706 81.2266C81.6705 80.6266 82.2706 78.5266 83.6706 78.1266C85.9706 77.9266 88.2705 77.5266 90.5705 76.7266C91.7705 76.1266 92.9706 75.4266 94.2706 75.0266C97.2706 73.3266 93.0705 68.6266 95.5705 66.6266C96.3706 66.3266 97.2705 66.0266 97.5705 65.1266C98.0705 63.5266 96.6706 62.0266 98.2706 60.8266C100.971 58.1266 102.971 54.2266 105.971 51.9266C106.971 50.8266 107.071 49.0266 108.071 47.9266C108.771 47.3266 109.971 47.9266 110.471 47.0266C111.471 43.9266 109.971 40.6266 111.571 37.7266C112.171 36.7266 112.871 35.8266 112.471 34.6266C112.271 33.5266 111.171 32.9266 111.471 31.8266C112.371 29.9266 114.971 31.4266 115.371 29.1266C115.671 28.0266 118.171 28.6266 118.371 27.5266C118.871 25.1266 116.071 23.4266 116.371 21.0266L115.971 20.9266Z"/>
    </mask>
    <path fill-rule="evenodd" clip-rule="evenodd" d="M115.971 20.9266C115.971 19.8266 115.271 18.4266 115.971 17.4266C116.571 16.8266 117.671 16.6266 118.371 16.1266C120.071 15.0266 120.571 13.0266 122.171 12.1266C125.071 11.0266 127.571 12.5266 130.471 11.4266C131.371 11.4266 132.371 10.9266 132.571 10.0266C132.771 9.32661 132.371 8.52661 132.371 7.82661C132.271 7.02661 133.071 6.32661 133.671 5.52661C134.171 4.72661 134.671 3.62661 135.671 3.82661C136.271 3.82661 136.771 4.12661 137.371 4.12661C138.771 4.42661 139.471 3.12661 140.471 2.52661C142.371 1.82661 144.171 1.02661 146.071 0.52661C147.771 0.52661 149.871 2.32661 151.371 0.82661C151.871 0.42661 152.471 -0.0733903 153.171 0.0266098C154.471 0.12661 157.571 1.72661 156.271 3.22661C155.971 3.62661 155.971 4.02661 156.471 4.22661C161.371 6.82661 160.571 2.52661 163.571 4.72661C164.371 5.52661 165.471 5.62661 166.571 5.22661C168.271 4.32661 170.771 6.12661 171.171 7.62661C171.171 8.72661 169.871 10.6266 171.371 11.3266C172.771 12.1266 174.471 12.1266 176.071 11.9266C177.371 12.2266 178.771 11.9266 179.971 11.8266C181.371 12.0266 180.671 14.0266 180.571 15.1266C180.271 16.6266 178.471 16.5266 177.571 17.4266C175.771 19.4266 177.271 22.7266 177.571 25.0266C177.671 25.9266 177.771 26.8266 178.571 27.3266C179.671 27.8266 181.071 28.1266 180.971 29.7266C180.671 32.3266 178.571 35.1266 179.871 37.8266C180.571 39.1266 182.171 37.4266 183.371 37.9266C184.671 38.3266 186.171 39.0266 186.671 40.3266C187.571 42.2266 186.171 43.9266 185.871 45.8266C185.971 50.3266 182.471 54.8266 184.271 59.3266C185.571 60.9266 187.571 59.5266 188.971 59.5266C190.271 60.3266 191.271 61.9266 192.671 62.5266C193.771 62.9266 194.971 63.2266 196.071 63.7266C196.871 64.0266 197.571 62.8266 198.371 63.1266C199.071 63.3266 199.571 64.0266 200.271 64.1266C201.571 64.2266 202.971 63.7266 204.271 64.5266C207.571 65.8266 204.071 68.1266 206.371 68.4266C207.171 68.4266 208.171 68.7266 208.671 69.5266C208.971 70.0266 208.971 70.6266 208.971 71.2266C208.971 72.6266 210.571 73.4266 210.371 74.7266C209.471 77.0266 211.371 77.6266 212.771 78.9266C213.671 79.4266 214.671 80.0266 215.371 80.8266C215.971 81.4266 216.871 80.8266 217.471 80.4266C218.771 79.3266 220.271 80.6266 221.671 80.1266C222.771 79.6266 223.971 79.3266 224.871 80.4266C227.071 82.4266 230.271 80.7266 232.771 81.7266C234.371 82.4266 234.971 84.0266 235.571 85.6266C236.071 86.4266 236.971 86.9266 237.371 87.8266C237.671 88.4266 238.271 88.8266 238.971 89.1266C243.471 90.2266 239.771 93.0266 241.571 95.1266C242.871 95.5266 243.771 96.6266 244.871 97.2266C246.771 97.7266 248.971 98.2266 250.771 98.6266C253.271 99.6266 257.471 102.727 259.371 103.527C260.071 103.827 260.471 103.227 261.071 102.927C261.871 102.427 262.971 102.527 263.671 101.927C264.971 100.827 265.871 101.327 267.671 100.827C268.471 100.627 269.271 100.527 270.071 100.827C270.871 101.127 270.971 102.227 271.771 102.127C273.171 101.827 274.871 101.427 275.671 100.327C275.971 99.7266 275.671 99.0266 275.971 98.3266C277.471 95.6266 279.871 93.5266 281.971 91.3266C282.871 90.5266 283.471 89.1266 284.771 88.9266C285.471 89.0266 286.171 89.6266 286.971 89.7266C288.071 90.0266 289.171 88.6266 290.371 88.4266C292.571 87.9266 293.671 90.6266 294.871 92.0266C295.571 93.4266 297.071 93.9266 298.571 93.8266C299.671 93.8266 299.571 94.9266 300.171 95.5266C300.771 96.2266 300.971 97.2266 300.471 98.0266C300.071 99.0266 298.771 99.7266 298.671 100.527C298.871 102.427 300.271 103.927 299.871 106.027C299.871 106.927 299.971 108.227 299.071 108.727C296.671 109.227 296.571 112.027 295.871 114.027C294.971 115.927 291.971 114.327 291.171 116.427C290.771 117.527 289.771 118.527 289.671 119.727C289.671 120.327 290.171 120.727 290.471 121.127C291.471 122.627 290.971 125.227 291.971 126.927C293.171 128.227 290.871 134.227 289.471 134.527C281.471 134.527 283.671 141.927 280.171 146.127C277.571 147.127 275.771 149.427 273.971 151.427C272.471 152.527 273.771 154.127 273.871 155.527C273.471 157.727 272.171 160.227 272.271 162.427C272.671 166.227 269.571 163.627 268.371 165.727C268.071 166.427 267.871 167.427 266.871 167.427C265.971 167.427 264.971 167.727 264.071 167.327C262.371 165.627 259.771 164.027 258.371 166.827C257.271 169.927 256.071 173.527 254.771 176.627C254.671 178.027 255.371 180.527 253.871 181.427C251.871 182.027 251.271 184.327 249.771 185.627C248.471 186.527 246.771 186.927 246.371 188.727C245.371 190.827 245.171 193.227 245.671 195.527C247.671 199.127 250.271 202.427 250.671 206.727C250.471 207.827 249.271 206.427 248.671 206.927C247.571 207.827 246.071 209.127 244.571 208.927C242.071 207.927 237.171 207.627 236.871 204.127C236.871 201.927 234.871 201.227 233.471 200.027C232.971 199.527 232.671 198.527 231.971 198.327C230.971 198.327 230.271 199.127 229.171 198.527C227.271 197.627 226.571 199.927 225.271 200.727C223.971 201.327 224.471 202.827 223.671 203.727C222.871 204.727 221.071 204.027 220.271 204.727C218.871 207.527 217.071 205.827 214.571 205.727C213.271 205.827 211.971 205.927 210.671 206.027C209.271 206.527 208.671 209.127 209.371 210.527C210.071 211.927 212.171 211.727 213.071 213.027C213.471 213.527 214.071 214.627 213.271 214.827C211.371 214.127 211.071 215.027 209.771 216.127C207.571 216.927 208.771 218.727 208.871 220.327C208.871 222.327 206.671 222.527 205.071 223.827C202.371 225.927 201.771 223.227 199.371 222.327C197.071 221.927 195.971 224.427 194.271 225.427C192.471 226.627 189.971 227.327 188.171 228.527C186.571 228.727 184.971 229.327 183.471 230.027C179.571 231.827 176.371 235.127 173.471 238.227C172.571 239.327 172.271 241.027 171.071 241.727C169.971 242.427 168.371 241.727 167.171 241.527C166.071 241.427 165.171 242.027 164.071 241.927C161.771 241.927 162.071 245.127 158.871 243.727C157.471 243.227 156.171 243.427 154.871 242.927C153.571 242.327 152.371 242.927 151.171 243.427C150.271 243.727 148.771 243.027 148.171 243.827C147.471 244.527 147.671 246.127 148.371 246.827C149.871 248.427 151.871 244.627 153.071 246.727C154.171 248.627 151.071 249.427 150.371 250.527C149.871 251.427 150.471 252.527 150.471 253.427C150.471 256.127 147.071 257.127 144.971 257.727C143.471 258.527 140.971 259.027 140.771 261.027C140.571 263.227 139.671 265.227 140.371 267.427C140.471 270.727 137.471 266.927 136.271 266.527C131.471 264.027 126.871 261.627 122.071 259.127C118.471 257.427 114.871 255.127 111.171 253.627C106.371 252.927 100.571 253.027 95.6706 252.627C93.3706 252.827 84.5706 251.227 84.1706 252.727C84.2706 253.427 85.2706 253.727 85.3706 254.527C85.6706 255.827 83.8706 256.527 83.6706 257.627C84.0706 260.127 88.0705 260.627 84.8706 263.227C83.7706 263.727 83.7705 264.927 83.5705 266.027C81.7705 268.127 80.3706 270.927 77.6706 271.727C77.0706 271.827 76.4706 271.527 75.9706 271.627C75.3706 271.627 75.1706 272.127 74.2706 272.027C73.9706 272.027 73.6706 271.927 73.3706 271.927C71.5705 271.327 69.3706 269.227 69.4706 267.027C69.4706 266.227 69.7706 265.527 69.2706 264.827C67.5706 262.627 64.5705 261.927 62.8705 259.927C61.6705 258.527 61.0705 256.427 59.2705 255.727C55.8705 254.627 52.5705 255.727 49.1705 255.627C46.3705 255.627 43.6706 256.527 40.7705 256.027C37.7705 255.027 34.4706 255.027 31.6705 253.427C29.2705 250.827 29.7705 248.627 25.2705 249.327C21.8706 250.027 18.5705 248.927 15.1705 249.527C13.1705 250.027 11.1705 249.327 9.07055 249.327C7.77055 249.327 5.27055 249.527 5.57055 247.727C5.77055 247.127 6.07055 246.927 6.47055 246.727C7.27055 245.927 6.27055 245.327 6.17055 244.527C6.07055 243.727 5.57055 242.827 6.27055 242.127C6.67055 241.127 6.67055 239.827 7.37055 238.727C8.07055 237.727 7.57055 237.027 6.77055 236.327C6.27055 235.627 5.27055 234.527 5.37055 233.527C5.47055 232.827 5.57055 231.927 5.27055 231.327C5.37055 230.827 5.37055 230.127 5.07055 229.827C4.87055 229.527 4.87055 229.327 4.67055 228.827C4.27055 228.227 3.37055 228.027 3.07055 227.227C2.47055 226.327 3.17055 225.227 3.07055 224.127C2.87055 223.627 2.47055 223.127 2.17055 222.727C1.27055 221.427 2.17055 219.727 1.77055 218.227C1.67055 217.227 0.67055 215.327 1.07055 214.627C1.37055 214.227 2.67055 214.427 3.37055 214.027C4.17055 213.727 4.47055 212.827 5.07055 212.327C5.97055 211.527 8.07055 211.727 9.57055 211.827C12.3705 212.927 14.3705 211.827 12.8705 209.027C12.3705 208.127 11.7705 208.427 11.2705 208.727C10.2705 208.827 9.57055 207.527 8.67055 207.227C7.87055 206.627 6.77055 205.727 7.37055 204.627C8.17055 203.327 10.0705 203.127 11.1705 202.127C11.5705 201.727 12.5705 201.127 12.9705 200.927C13.6705 200.627 12.1705 200.027 12.8705 199.627C12.9705 199.527 13.0705 199.527 13.1705 199.527C14.1705 199.227 13.6705 198.627 13.9705 197.827C14.5705 196.727 15.4705 195.027 16.2705 194.527C16.9705 194.227 17.7705 194.527 18.4706 194.627C19.4706 194.827 20.1706 194.127 21.0706 194.327C21.7706 194.427 22.6705 194.727 23.2705 194.127C24.3706 192.727 26.4705 195.027 27.6705 193.627C28.1705 192.927 28.6705 192.027 29.6705 191.527C30.6705 191.027 31.7705 191.327 32.6705 191.427C33.4706 191.427 34.5705 191.427 35.2705 191.427C35.9706 191.427 36.6705 190.927 37.3705 191.127C38.6705 192.427 38.6706 191.627 38.7705 190.327C39.3705 187.627 38.0705 185.227 35.4705 184.327C34.6705 184.027 34.0705 182.927 33.4705 182.827C32.8705 182.727 32.1705 182.927 31.8706 182.227C31.7705 181.827 32.6705 181.327 33.1705 181.027C33.6705 180.627 33.8705 180.127 33.9705 179.327C34.1705 178.527 34.0705 177.327 33.4705 176.627C33.0705 176.127 32.4706 175.827 32.5706 175.127C33.9706 172.327 36.7705 169.927 37.3705 166.727C37.8705 166.127 38.7705 166.927 39.2705 167.227C42.5705 169.127 44.2705 165.427 43.3705 162.727C43.5705 161.627 43.2705 161.327 42.4705 160.727C41.6705 160.227 41.8705 159.427 41.4705 158.827C40.8705 158.127 40.9705 157.327 41.1705 156.427C41.6705 154.327 40.3705 152.427 40.1705 150.527C40.0705 149.827 39.8705 149.427 40.5705 149.127C42.2705 148.327 44.3705 148.927 46.0705 149.327C47.4706 148.627 48.3705 146.527 48.4705 144.927C48.4705 143.727 47.3705 142.827 46.5705 141.927C45.6705 141.027 45.3705 139.827 44.4705 139.027C43.3705 137.927 41.6706 137.927 40.2705 137.627C37.9706 137.127 36.8705 135.027 35.3705 133.527C34.4705 132.927 33.0706 133.027 32.2706 132.527C31.1706 131.527 30.9706 129.327 30.0706 128.027C29.6706 127.527 29.2705 127.227 28.6705 127.127C26.3706 126.927 27.3706 124.127 26.3706 122.827C25.4706 120.827 22.1705 119.927 22.8706 117.327C23.0706 116.127 25.8706 117.227 25.8706 116.227C25.0706 114.727 23.1705 113.427 22.7705 111.727C27.9706 110.827 25.7706 108.927 27.0706 105.427C28.8706 102.527 35.2705 112.027 34.9705 104.227C34.7705 103.727 34.0705 103.427 33.4705 103.027C32.0705 102.227 30.9705 100.027 32.1705 98.6266C34.4706 96.1266 34.2705 95.8266 37.6705 96.8266C39.4705 97.3266 41.3705 95.6266 42.9705 96.5266C43.5705 96.8266 44.2705 97.1266 44.9705 96.9266C46.4705 96.9266 47.4705 95.3266 48.8705 95.4266C49.2705 95.4266 49.6705 95.5266 50.0705 95.5266C51.3705 95.1266 51.4705 92.6266 51.4705 91.4266C51.4705 90.7266 51.3705 89.9266 52.1705 89.8266C52.7705 89.6266 53.5705 89.6266 53.8705 88.9266C54.4705 87.5266 55.1705 86.2266 54.8705 84.6266C54.5705 83.2266 53.5705 81.0266 55.0705 80.0266C56.6705 79.5266 59.0705 80.4266 60.4705 81.1266C61.5705 81.8266 62.7705 81.5266 63.7705 81.0266C64.3705 80.7266 64.9706 80.9266 65.5705 81.3266C68.5705 83.9266 71.3706 82.5266 74.6706 81.5266C76.5706 80.7266 78.5705 81.8266 80.4706 81.2266C81.6705 80.6266 82.2706 78.5266 83.6706 78.1266C85.9706 77.9266 88.2705 77.5266 90.5705 76.7266C91.7705 76.1266 92.9706 75.4266 94.2706 75.0266C97.2706 73.3266 93.0705 68.6266 95.5705 66.6266C96.3706 66.3266 97.2705 66.0266 97.5705 65.1266C98.0705 63.5266 96.6706 62.0266 98.2706 60.8266C100.971 58.1266 102.971 54.2266 105.971 51.9266C106.971 50.8266 107.071 49.0266 108.071 47.9266C108.771 47.3266 109.971 47.9266 110.471 47.0266C111.471 43.9266 109.971 40.6266 111.571 37.7266C112.171 36.7266 112.871 35.8266 112.471 34.6266C112.271 33.5266 111.171 32.9266 111.471 31.8266C112.371 29.9266 114.971 31.4266 115.371 29.1266C115.671 28.0266 118.171 28.6266 118.371 27.5266C118.871 25.1266 116.071 23.4266 116.371 21.0266L115.971 20.9266Z" fill="#ECDFCF" fill-opacity="0.8" stroke="#6E553B" stroke-width="2" mask="url(#path-1-inside-1_6273_16578)"/>
    <g clip-path="url(#clip0_6273_16578)">
    <path d="M63.5492 231.725C67.2326 229.912 71.2279 227.207 75.4544 224.342C82.3702 219.652 89.5245 214.804 96.1907 213.313C96.7101 213.198 97.2396 213.095 97.7515 212.994C98.663 212.817 99.6042 212.636 100.501 212.374C102.549 211.774 104.485 210.722 106.359 209.705L106.964 209.377C112.192 206.548 117.658 204.024 123.203 201.871L123.519 202.688C118.009 204.827 112.579 207.337 107.378 210.147L106.777 210.474C104.864 211.513 102.886 212.588 100.747 213.214C99.8118 213.488 98.8474 213.674 97.9183 213.854C97.412 213.953 96.8881 214.054 96.3798 214.166C89.8768 215.619 82.7934 220.419 75.9455 225.063C71.6939 227.945 67.6771 230.669 63.937 232.507L63.5502 231.719L63.5492 231.725Z" fill="#6E553B"/>
    <path d="M66.2081 238.208C70.1176 235.685 74.4548 233.829 78.6508 232.032C80.8394 231.094 83.1014 230.127 85.2716 229.076C88.235 227.643 91.1615 225.99 93.9922 224.394C98.5947 221.797 103.355 219.11 108.419 217.276C110.423 216.548 112.512 215.942 114.534 215.354C118.833 214.104 123.278 212.81 127.017 210.321L127.502 211.053C123.651 213.616 119.14 214.931 114.779 216.2C112.772 216.784 110.698 217.389 108.72 218.104C103.726 219.916 98.9991 222.583 94.4274 225.16C91.5837 226.764 88.6469 228.423 85.6593 229.867C83.4733 230.927 81.2001 231.897 79.0041 232.84C74.8425 234.62 70.5387 236.465 66.6926 238.946L66.2174 238.208L66.2081 238.208Z" fill="#6E553B"/>
    <path d="M117.927 202.341L118.571 201.745C120.247 203.554 121.356 205.779 122.432 207.932C123.354 209.775 124.305 211.683 125.599 213.282L124.916 213.835C123.564 212.162 122.59 210.212 121.649 208.326C120.603 206.228 119.518 204.06 117.928 202.343L117.927 202.341Z" fill="#6E553B"/>
    <path d="M110.587 205.94L111.227 205.34C114.117 208.433 116.625 211.877 118.68 215.574L117.913 216C115.89 212.363 113.426 208.979 110.587 205.937L110.587 205.94Z" fill="#6E553B"/>
    <path d="M103.907 208.64L104.671 208.206C106.837 212.028 109.621 215.422 112.942 218.296L112.368 218.958C108.97 216.017 106.124 212.544 103.909 208.637L103.907 208.64Z" fill="#6E553B"/>
    <path d="M88.3424 215.147L89.1137 214.726C91.1807 218.518 93.4146 222.284 95.7506 225.919L95.0121 226.394C92.6642 222.741 90.4213 218.957 88.3424 215.147Z" fill="#6E553B"/>
    <path d="M78.7088 219.952L79.4792 219.528C81.3454 222.926 84.2185 227.31 86.8003 230.696L86.102 231.229C83.4974 227.811 80.5978 223.383 78.7116 219.951L78.7088 219.952Z" fill="#6E553B"/>
    <path d="M71.0328 224.172L71.8629 223.886C72.2377 224.971 72.9429 225.955 73.6253 226.906L73.9003 227.291C75.644 229.748 77.1564 232.385 78.3966 235.131L77.5972 235.493C76.3796 232.798 74.8954 230.211 73.1846 227.799L72.9115 227.42C72.1916 226.419 71.4508 225.381 71.0337 224.175L71.0328 224.172Z" fill="#6E553B"/>
    <path d="M96.1974 211.504L96.995 211.136C98.7681 214.98 100.997 218.615 103.62 221.939L102.931 222.481C100.266 219.104 97.9995 215.41 96.1974 211.504Z" fill="#6E553B"/>
    </g>
    <g clip-path="url(#clip1_6273_16578)">
    <path d="M185.918 85.6854L182.871 83.0123L180.199 81.59L177.971 78.1657L174.198 77.3153L170.388 75.0388L168.713 76.9187L164.688 77.0675L162.224 79.058L160.632 79.5651L158.705 76.2247L157.157 76.9721C155.471 76.7433 153.637 76.4802 153.343 76.4192C153.086 76.3048 151.605 75.5193 150.3 74.8176L149.98 74.646L148.212 76.0646L145.009 75.5421L144.127 76.2552L142.333 75.668L137.898 73.0254L135.16 75.0846C134.602 74.2914 134.326 74.1961 134.226 74.1617C133.936 74.0626 131.212 73.1665 131.212 73.1665L130.862 73.0521L128.846 75.4277H124.652L121.047 78.0398L120.266 76.5145L116.437 75.3248L112.839 81.0599L108.504 82.0705L106.99 85.9981L104.475 88.1946L99.9766 92.7896L100.765 93.598L105.215 89.0373L107.924 86.6731L109.323 83.039L113.527 82.059L116.917 76.6556L119.492 77.4564L120.649 79.7139L120.82 79.588L122.539 81.0332H125.222L127.276 83.9351L130.196 84.8694L129.977 85.1592L125.672 88.0916L119.778 93.9793L120.56 94.7991L126.334 89.0182L130.747 86.0134L132.905 83.1839L134.702 80.5985L135.16 79.6147L138.721 81.1438L139.8 82.3755L140.756 87.0773L145.042 88.5073L148.618 90.5321L154.143 96.0995L154.924 95.2834L149.287 89.6093L145.533 87.4815L144.276 87.0582L147.639 85.3155L151.464 81.2506L155.609 80.4498L157.6 78.0284L158.266 77.7081L160.126 80.9303L160.279 80.8807L162.451 82.4975L164.26 82.9246L167.519 83.2488L169.807 87.8933L171.668 90.5016L175.158 92.698L175.742 91.7218L172.438 89.6398L170.782 87.3328L168.237 82.1696L164.472 81.7997L162.92 81.4336L161.607 80.4574L162.753 80.0914L165.093 78.2L169.223 78.0475L170.607 76.4955L173.789 78.3983L177.293 79.1876L179.433 82.4747L182.197 83.9313L185.1 86.471L188.128 90.0936L188.977 89.35L185.918 85.6931V85.6854ZM134.598 78.1275L133.761 79.9732L132.008 82.4975L130.933 83.9085L127.964 82.9589L125.795 79.8931H122.945L121.773 78.9093L125.01 76.5641H129.359L131.227 74.3638C131.934 74.5965 133.486 75.1074 133.835 75.2256C133.969 75.34 134.297 75.7824 134.557 76.198L134.877 76.7128L137.976 74.3829L141.835 76.6823L143.174 77.1285L141.262 78.9436L139.041 80.038L134.602 78.1352L134.598 78.1275ZM155.01 79.3897L150.906 80.1829L146.966 84.3737L142.776 86.5472L141.716 86.1888L140.83 81.8378L139.963 80.8464L141.894 79.8969L144.607 77.3191L145.321 76.7433L148.525 77.2657L150.106 75.9959C151.382 76.6823 152.8 77.4335 153.001 77.5022C153.153 77.5556 154.221 77.7157 156.171 77.9865L155.014 79.3974L155.01 79.3897Z" fill="#6E553B"/>
    </g>
    <g clip-path="url(#clip2_6273_16578)">
    <path d="M201.911 175.138C201.795 174.395 201.645 173.842 201.394 173.226C201.258 172.895 201.01 172.711 200.792 172.55C200.736 172.509 200.681 172.469 200.629 172.426C200.493 172.313 200.355 172.176 200.209 172.031C199.855 171.678 199.454 171.279 198.945 171.123C198.162 170.884 197.138 171.087 196.518 171.378C196.09 171.58 195.636 171.766 195.156 171.963C194.211 172.35 193.235 172.75 192.425 173.285C191.95 173.598 191.578 174.079 191.25 174.504C191.177 174.599 191.105 174.694 191.032 174.783C190.754 175.13 190.497 175.291 190.171 175.494C190.009 175.596 189.825 175.711 189.629 175.858C189.199 176.18 188.907 176.579 188.624 176.967C188.254 177.474 187.934 177.911 187.356 178.132C187.094 178.232 186.803 178.252 186.494 178.275C186.492 178.275 186.49 178.275 186.487 178.275L184.184 157.781L183.187 95.0525V-1.73047H182.55V97.3377L179.786 181.352C179.652 181.337 179.52 181.308 179.383 181.253C179.259 181.203 179.148 181.154 179.043 181.109C178.625 180.928 178.264 180.771 177.663 180.765C176.397 180.749 175.525 181.243 174.431 181.942C173.889 182.288 173.637 182.488 173.332 183.082C173.167 183.405 172.933 183.736 172.639 184.068C172.304 184.446 172.039 184.934 171.828 185.558C171.709 185.909 171.629 186.263 171.553 186.606L171.522 186.743C171.51 186.792 171.502 186.824 171.496 186.832C171.468 186.868 171.422 186.898 171.365 186.937C171.266 187.004 171.144 187.087 171.044 187.237C170.941 187.392 170.828 187.538 170.708 187.693L170.624 187.802C169.385 189.408 169.323 191.745 169.268 193.806C169.252 194.383 169.238 194.928 169.199 195.436C169.183 195.646 169.166 195.856 169.15 196.068C169.067 197.121 168.981 198.211 168.977 199.267C168.971 200.712 169.185 201.945 169.425 203.183C169.845 205.362 170.407 207.833 171.761 209.596C171.856 209.721 171.958 209.878 172.057 210.029C172.149 210.172 172.246 210.319 172.339 210.444C172.483 210.636 172.641 210.805 172.794 210.969C172.859 211.039 172.922 211.108 172.987 211.178C173.935 212.236 174.768 213.003 175.981 213.55C176.648 213.851 177.381 214.015 178.048 214.015H178.065C178.438 214.014 178.791 213.995 179.111 213.958C179.335 213.933 179.576 213.834 179.789 213.746C179.898 213.702 180.002 213.658 180.073 213.64C180.499 213.524 180.988 213.335 181.46 213.153C181.886 212.988 182.326 212.819 182.709 212.706C183.964 212.339 185.571 211.833 186.872 211.171C187.695 210.751 188.364 209.918 188.859 208.694C189.602 206.853 190.868 205.4 192.206 203.863C193.403 202.489 194.64 201.068 195.456 199.353C195.579 199.095 195.708 198.833 195.836 198.569C196.384 197.448 196.951 196.289 197.29 195.099C197.533 194.244 197.758 193.365 197.977 192.516C198.151 191.839 198.33 191.139 198.516 190.464C198.805 189.412 199.23 188.381 199.64 187.384C199.802 186.99 199.97 186.582 200.127 186.178C200.612 184.935 200.905 183.576 201.079 181.772C201.15 181.048 201.324 180.318 201.492 179.612C201.66 178.912 201.833 178.187 201.909 177.455C201.943 177.13 202.041 176.004 201.908 175.14L201.911 175.138ZM187.581 178.739C188.336 178.452 188.743 177.893 189.137 177.353C189.403 176.988 189.654 176.645 190.008 176.38C190.183 176.249 190.347 176.147 190.506 176.047C190.853 175.83 191.181 175.625 191.526 175.193C191.601 175.1 191.676 175.003 191.751 174.906C192.064 174.502 192.385 174.084 192.772 173.829C193.357 173.443 194.054 173.124 194.763 172.826C194.614 173.508 194.51 174.833 194.429 176.04C193.414 176.477 192.141 177.181 191.219 177.706C190.989 177.837 190.76 177.968 190.53 178.095L190.064 178.356C188.969 178.971 187.854 179.596 186.701 180.155L186.562 178.92C186.896 178.896 187.24 178.868 187.581 178.739ZM182.784 109.66L183.55 157.807V157.823L185.857 178.349C185.712 178.378 185.569 178.419 185.429 178.482C184.972 178.688 184.56 178.958 184.163 179.217C184.046 179.293 183.929 179.37 183.809 179.447C183.626 179.563 183.4 179.659 183.16 179.762C182.738 179.941 182.301 180.127 182.009 180.464C181.899 180.592 181.813 180.703 181.737 180.801C181.492 181.123 181.418 181.22 180.926 181.273C180.828 181.284 180.731 181.296 180.636 181.308C180.564 181.316 180.495 181.325 180.427 181.334L182.784 109.66ZM180.406 181.989C180.51 181.979 180.613 181.966 180.716 181.953C180.807 181.941 180.9 181.93 180.994 181.919C181.718 181.841 181.939 181.596 182.241 181.201C182.311 181.11 182.389 181.006 182.487 180.894C182.683 180.669 183.051 180.513 183.407 180.361C183.659 180.253 183.921 180.142 184.147 179.999C184.269 179.921 184.389 179.843 184.507 179.765C184.901 179.506 185.273 179.263 185.686 179.077C185.762 179.042 185.844 179.017 185.93 178.998L186.092 180.444C185.352 180.783 184.598 181.09 183.823 181.345C183.394 181.485 182.971 181.638 182.563 181.785C181.825 182.05 181.126 182.301 180.388 182.494L180.405 181.989H180.406ZM177.66 181.413C178.135 181.418 178.398 181.533 178.796 181.706C178.907 181.754 179.024 181.804 179.153 181.856C179.364 181.941 179.568 181.984 179.767 182.002L179.747 182.616C178.719 182.727 177.617 182.472 176.628 182.242H176.626L176.486 182.875C177.347 183.075 178.289 183.294 179.227 183.294C179.394 183.294 179.56 183.286 179.725 183.271L179.595 187.236C179.541 187.312 179.482 187.407 179.395 187.518C179.076 187.514 178.639 188.317 178.754 188.564C178.927 188.936 179.363 189.08 179.706 188.953C179.886 188.887 180.027 188.759 180.214 188.713C180.455 188.653 180.595 188.72 180.764 188.504C181.017 188.181 181.184 187.421 180.78 187.225C180.633 187.155 180.428 187.107 180.237 187.077L180.366 183.168C180.386 183.163 180.406 183.16 180.426 183.155C181.236 182.951 182.018 182.67 182.775 182.397C183.179 182.251 183.598 182.101 184.018 181.963C184.754 181.722 185.469 181.435 186.168 181.122L186.712 185.962C186.379 186.001 185.857 186.443 185.865 186.677C185.877 187.088 186.222 187.397 186.586 187.421C186.777 187.433 186.956 187.373 187.144 187.407C187.388 187.45 187.491 187.569 187.73 187.439C188.088 187.245 188.541 186.617 188.245 186.273C188.09 186.093 187.806 185.906 187.596 185.789C187.485 185.728 187.403 185.713 187.327 185.727L186.778 180.838C188.015 180.247 189.205 179.581 190.371 178.926L190.836 178.666C191.067 178.537 191.297 178.405 191.53 178.274C192.453 177.749 193.408 177.207 194.38 176.795C194.33 177.601 194.289 178.259 194.251 178.484C194.119 179.256 193.803 179.953 193.51 180.681C192.284 183.714 190.664 186.989 188.811 189.555C187.93 190.776 186.898 191.788 186.05 193.032C185.131 194.38 184.316 195.214 182.913 195.994C180.198 197.502 176.871 196.96 176.122 193.604C175.76 191.985 175.558 190.411 175.312 188.75C175.096 187.283 175.045 184.11 174.962 182.372C175.902 181.781 176.633 181.401 177.66 181.414V181.413ZM201.279 177.384C201.208 178.074 201.047 178.746 200.877 179.456C200.702 180.184 200.523 180.937 200.449 181.707C200.281 183.448 200 184.752 199.539 185.937C199.384 186.336 199.217 186.74 199.056 187.131C198.637 188.147 198.205 189.197 197.906 190.287C197.719 190.968 197.538 191.67 197.364 192.351C197.148 193.196 196.922 194.07 196.681 194.917C196.359 196.051 195.805 197.183 195.269 198.278C195.139 198.544 195.01 198.807 194.886 199.068C194.107 200.702 192.899 202.09 191.732 203.43C190.417 204.941 189.058 206.503 188.273 208.445C187.839 209.52 187.273 210.241 186.591 210.589C185.337 211.227 183.766 211.721 182.537 212.081C182.128 212.2 181.676 212.375 181.237 212.545C180.78 212.721 180.307 212.905 179.911 213.012C179.804 213.041 179.683 213.091 179.554 213.143C179.379 213.215 179.18 213.297 179.043 213.312C178.744 213.346 178.415 213.364 178.064 213.365H178.05C177.479 213.365 176.819 213.216 176.241 212.955C175.277 212.521 174.588 211.948 173.829 211.143C173.84 211.149 173.85 211.157 173.86 211.165C174.524 211.718 174.841 211.911 175.664 212.122C176.355 212.299 176.969 212.412 177.588 212.412C178.207 212.412 178.801 212.304 179.489 212.043C179.96 211.864 180.422 211.642 180.868 211.429C181.51 211.121 182.175 210.803 182.867 210.614C184.016 210.299 184.811 209.562 185.653 208.782C185.758 208.685 185.863 208.588 185.97 208.491C187.13 207.432 188 206.176 188.842 204.962C189.463 204.066 190.106 203.139 190.854 202.31C192.585 200.395 194.493 198.117 195.232 195.312C195.368 194.796 195.481 194.266 195.59 193.752C195.791 192.806 195.999 191.829 196.353 190.955C196.727 190.032 196.962 189.096 197.189 188.189C197.402 187.34 197.622 186.461 197.956 185.612L197.364 185.371C197.016 186.259 196.79 187.158 196.572 188.028C196.35 188.912 196.121 189.826 195.764 190.706C195.388 191.634 195.174 192.641 194.968 193.613C194.86 194.119 194.749 194.642 194.617 195.142C193.915 197.805 192.065 200.011 190.386 201.869C189.609 202.729 188.955 203.673 188.322 204.586C187.5 205.771 186.65 206.996 185.544 208.005C185.436 208.103 185.33 208.202 185.224 208.299C184.441 209.025 183.702 209.71 182.702 209.984C181.954 210.188 181.264 210.519 180.596 210.84C180.142 211.057 179.712 211.264 179.266 211.433C178.021 211.904 177.094 211.817 175.819 211.49C175.088 211.303 174.858 211.157 174.262 210.66C174.067 210.498 173.856 210.451 173.668 210.41C173.349 210.341 173.019 210.268 172.544 209.598C172.453 209.457 172.359 209.316 172.263 209.192C170.995 207.541 170.456 205.157 170.05 203.053C169.818 201.847 169.609 200.649 169.615 199.263C169.619 198.232 169.704 197.156 169.786 196.115C169.803 195.903 169.819 195.692 169.835 195.481C169.875 194.956 169.89 194.403 169.905 193.819C169.949 192.166 169.998 190.327 170.676 188.929C170.693 191.05 170.798 194.195 171.148 195.987C171.493 197.755 171.294 199.718 171.728 201.496C171.935 202.346 172.602 203.097 173.163 203.777C173.593 204.298 174.262 205.409 174.829 205.709C176.115 206.387 178.984 206.071 180.227 205.492C182.168 204.587 184.123 204.71 185.545 202.927C186.716 201.458 188.083 200.114 189.326 198.695C190.566 197.281 191.844 195.574 192.711 193.83C193.641 191.958 194.167 189.846 194.873 187.9C196.403 183.683 199.059 180.031 199.979 175.538C200.077 175.06 200.227 173.764 200.355 173.026C200.375 173.041 200.395 173.057 200.414 173.072C200.586 173.199 200.735 173.31 200.802 173.473C201.034 174.037 201.172 174.548 201.278 175.236C201.361 175.766 201.36 176.568 201.275 177.38L201.279 177.384Z" fill="#6E553B"/>
    </g>
    <mask id="path-13-inside-2_6273_16578" fill="white">
    <path fill-rule="evenodd" clip-rule="evenodd" d="M485.008 25.3495C486.908 26.2495 488.808 27.0495 491.108 26.9495C492.208 27.1495 493.308 27.8495 494.208 27.1495C495.008 26.3495 496.108 25.7495 497.108 26.6495C498.208 27.4495 499.708 28.0495 500.408 29.3495C500.908 30.1495 501.308 31.2495 502.308 31.2495C503.308 31.3495 503.708 31.9495 504.808 32.2495C507.208 32.5495 509.208 31.0495 511.308 30.5495C512.008 30.5495 512.108 31.3495 512.308 31.8495C512.708 32.7495 514.008 32.6495 514.708 33.0495C515.608 33.4495 516.408 33.0495 516.908 32.3495C517.908 31.1495 519.208 30.2495 519.508 28.6495C519.708 27.8495 520.208 27.2495 521.008 26.9495C524.408 25.8495 530.008 26.1495 533.208 27.9495C534.308 28.6495 535.508 29.4495 536.808 29.6495C538.108 29.9495 540.408 29.4495 540.408 31.4495C540.708 39.8495 544.708 34.5495 547.208 30.6495C547.308 29.5495 546.808 28.0495 547.708 27.0495C548.208 26.2495 548.208 24.7495 549.108 24.6495C550.508 24.8495 550.408 23.9495 550.308 22.8495C550.308 22.0495 550.008 20.8495 550.608 20.3495C551.408 19.8495 553.008 19.8495 553.608 20.7495C554.308 22.1495 554.408 24.0495 555.108 25.6495C555.208 27.2495 556.308 28.5495 556.008 30.1495C556.008 33.3495 556.708 37.4495 558.708 40.1495C560.408 41.6495 561.808 44.2495 564.408 43.8495C565.208 43.8495 565.508 44.8495 566.108 45.2495C566.808 45.8495 567.808 45.7495 568.408 46.2495C568.908 46.8495 569.108 47.7495 569.508 48.3495C570.108 49.5495 571.208 50.3495 571.208 51.4495C570.608 54.2495 574.008 54.0495 574.508 56.3495C575.008 59.1495 573.208 61.8495 576.508 63.4495C577.608 65.1495 578.908 66.4495 580.508 67.5495C581.408 68.7495 583.708 69.3495 583.008 71.0495C581.908 72.7495 580.708 74.6495 580.508 76.5495C581.708 78.0495 583.908 79.3495 585.608 80.2495C588.008 80.5495 590.808 81.9495 593.208 81.5495C594.408 80.3495 596.808 79.2495 598.508 78.7495C599.008 78.6495 599.608 78.4495 599.808 77.9495C600.008 76.9495 598.808 76.1495 598.408 75.2495C597.908 73.9495 597.708 71.5495 596.908 70.3495C594.708 66.9495 595.108 67.6495 595.908 63.9495C595.808 62.7495 596.408 61.2495 596.008 60.1495C595.608 59.1495 594.708 57.2495 596.408 57.1495C597.408 57.0495 598.508 57.7495 599.508 57.2495C600.908 56.4495 600.708 54.3495 602.008 53.3495C602.908 52.1495 604.608 51.7495 605.508 50.7495C606.108 50.0495 605.408 48.5495 605.908 47.7495C606.108 47.2495 606.808 47.2495 607.108 47.7495C607.908 48.8495 607.808 50.1495 608.308 51.4495C609.008 52.7495 610.208 54.0495 610.508 55.6495C611.008 57.0495 609.208 57.1495 609.008 58.3495C609.008 60.9495 610.708 63.4495 610.908 65.9495C610.708 68.3495 610.308 73.4495 614.208 72.3495C616.008 71.9495 618.508 71.8495 619.408 73.5495C619.908 74.3495 620.308 75.3495 621.308 75.5495C622.408 75.9495 623.708 73.2495 624.108 75.2495C625.708 79.0495 626.708 74.1495 632.108 80.7495C634.808 82.3495 638.708 79.9495 638.908 77.0495C639.608 75.7495 641.408 75.4495 642.708 75.0495C643.608 74.9495 644.208 75.6495 644.608 76.2495C649.008 78.4495 648.308 81.4495 648.208 85.8495C649.008 88.4495 646.108 91.4495 647.608 93.6495C649.908 94.4495 650.208 95.7495 649.708 98.2495C649.708 99.1495 650.108 100.05 650.008 100.65C649.408 102.25 648.508 103.55 648.208 105.45C647.808 106.75 646.808 107.55 646.708 109.05C646.708 111.65 645.608 113.75 643.508 115.15C641.508 119.55 641.008 117.95 636.908 118.75C634.408 118.85 633.508 121.25 631.708 122.35C628.708 123.55 627.108 126.35 626.008 129.25C625.608 130.25 624.608 130.35 623.808 131.05C622.608 132.45 621.808 133.75 620.508 134.85C619.308 135.65 618.708 136.95 617.408 137.65C616.408 138.05 615.508 138.75 615.008 139.65C613.808 143.45 610.708 146.05 610.708 150.25C608.808 156.15 612.008 155.25 612.408 159.55C612.108 161.75 608.808 162.55 608.908 164.95C609.408 166.15 611.808 167.05 612.908 165.75C613.808 165.35 614.508 163.75 615.508 164.25C617.808 166.15 620.808 167.35 623.708 167.95C624.508 168.55 623.808 170.05 624.508 170.75C626.708 172.25 630.908 172.95 628.208 176.25C627.708 177.05 627.608 178.65 626.608 178.85C622.808 177.95 624.308 179.65 622.808 181.95C622.408 182.55 621.608 182.65 621.108 182.85C620.508 183.25 621.208 183.75 621.908 183.85C622.708 183.95 623.608 183.55 624.308 183.45C627.008 182.95 626.108 186.55 625.108 187.65C624.808 187.95 624.808 188.25 625.108 188.55C626.208 189.25 626.608 191.05 627.408 191.85C627.708 192.15 628.208 192.25 628.408 192.65C627.608 195.05 627.508 197.65 626.308 199.95C625.308 201.55 623.208 200.95 621.408 201.35C620.408 201.65 619.508 202.35 618.408 202.95C616.608 204.15 615.608 206.35 614.208 207.65C613.008 208.05 611.208 208.95 610.608 210.05C610.408 210.25 610.208 210.15 609.908 210.05C608.508 208.95 606.608 208.55 605.308 207.25C604.008 206.55 603.508 204.45 602.108 205.75C598.608 208.65 601.808 213.35 602.808 216.55C602.508 218.05 603.008 219.55 602.808 221.05C602.608 222.45 601.908 223.75 602.408 225.15C602.608 227.35 605.108 228.15 605.808 229.95C608.508 236.25 609.608 238.35 603.208 242.65C602.708 243.15 603.108 244.75 602.408 245.65C601.808 246.35 601.308 246.55 601.308 245.15C601.308 243.05 598.408 243.55 597.208 242.65C593.208 240.55 590.408 237.65 586.108 240.25C584.308 240.15 582.008 239.85 580.808 241.45C580.308 242.65 580.208 244.15 579.508 245.25C579.208 245.65 578.408 245.35 578.008 245.35C577.608 245.45 577.108 245.85 576.608 246.05C573.908 247.25 572.208 250.15 569.308 250.95C567.808 250.85 569.808 248.35 569.108 247.35C568.808 246.35 567.608 245.65 566.708 246.25C564.708 247.65 563.608 244.75 562.208 244.05C560.008 243.35 557.408 242.65 556.008 241.05C555.508 240.45 555.608 239.85 555.408 239.25C553.708 236.85 554.508 233.05 555.108 230.45C555.508 224.95 556.608 219.35 550.308 216.85C548.908 216.05 547.108 215.85 545.708 215.15C544.808 214.65 544.608 213.45 543.708 213.05C542.208 212.75 541.308 214.75 539.908 215.15C538.508 215.65 537.608 213.55 536.808 215.45C536.008 217.05 534.408 216.95 533.008 218.05C532.008 219.35 530.708 219.95 529.308 220.25C528.408 220.65 528.808 221.75 527.908 221.85C526.408 221.95 525.408 223.45 524.108 223.85C522.508 224.15 520.708 223.05 519.108 223.25C517.208 223.75 515.908 226.05 514.208 226.75C512.608 226.65 511.608 227.95 510.408 228.65C509.908 228.85 509.308 228.85 508.808 228.55C507.108 227.75 504.808 227.75 502.808 227.55C501.308 227.35 499.908 226.45 498.308 226.75C495.508 227.55 494.508 225.25 493.808 223.05C492.408 222.05 492.308 220.05 493.408 218.75C494.308 217.25 494.208 215.25 494.008 213.65C491.908 212.25 488.608 213.45 486.108 212.85C484.808 212.75 483.308 212.75 482.508 213.75C482.208 214.05 482.508 214.85 482.008 214.75C481.408 214.45 480.508 215.05 479.908 215.15C479.208 215.15 478.908 215.25 478.308 215.35C476.608 215.15 474.808 215.45 475.908 212.85C476.508 211.95 477.708 212.15 478.408 211.35C478.608 211.25 479.208 211.25 478.908 211.05C477.008 209.75 474.008 210.75 472.208 209.05C472.008 208.75 472.208 208.55 472.308 208.35C472.208 207.45 470.508 207.55 469.808 207.15C468.808 206.75 469.208 205.75 469.508 205.05C470.308 203.15 468.008 201.35 466.208 201.15C463.408 200.15 460.708 200.75 458.408 198.95C457.508 198.45 456.308 198.35 456.008 197.65C456.008 196.75 455.708 196.35 455.108 195.35C453.808 194.05 450.908 193.15 450.108 195.55C447.408 198.15 449.008 195.25 447.008 194.75C446.008 194.25 445.208 195.75 444.308 195.65C443.008 195.35 441.008 194.55 440.108 194.15C437.508 191.95 429.308 192.05 432.508 186.75C433.108 186.15 433.608 185.65 434.208 185.15C434.308 184.65 434.608 184.25 435.008 183.85C434.908 181.65 436.108 179.35 436.208 177.05C436.208 176.35 435.908 175.85 435.708 175.35C435.608 174.75 436.008 174.15 436.208 173.65C436.108 172.55 436.108 171.15 436.508 170.05C437.508 167.35 434.908 164.75 433.808 161.85C432.308 159.25 431.408 155.45 428.708 153.85C423.808 152.45 418.708 152.05 413.608 150.85C411.208 151.35 409.708 149.75 407.408 149.35C402.608 149.35 398.008 149.15 393.608 147.25C392.208 147.25 391.208 147.05 390.608 145.85C390.308 145.05 390.408 144.05 390.108 143.25C389.308 141.55 388.508 140.55 387.508 139.25C386.608 138.65 385.008 138.65 384.308 139.45C384.008 139.75 383.508 140.35 383.008 140.15C381.208 138.55 383.708 136.55 379.908 136.45C378.508 135.95 377.008 135.15 375.808 134.25C374.908 133.45 376.908 130.75 374.808 130.95C372.408 132.35 370.108 128.45 370.008 132.65C370.208 134.75 368.008 134.85 366.908 135.85C366.008 136.95 365.808 138.65 364.908 139.75C364.208 140.45 362.808 140.35 362.308 140.85C361.608 141.95 360.208 140.85 359.408 140.55C358.608 139.85 356.908 140.55 355.908 140.25C354.708 139.75 351.508 140.85 352.008 138.65C352.408 137.85 352.508 136.55 352.308 135.65C351.408 133.15 356.108 133.05 355.008 130.65C354.008 128.95 352.308 131.45 351.008 130.95C349.808 130.55 349.508 127.85 351.008 127.55C351.908 127.45 352.908 127.75 353.708 127.35C354.508 126.85 355.508 126.75 356.408 127.05C357.808 127.45 359.108 127.35 360.308 127.75C361.108 128.05 362.208 128.35 362.908 127.75C363.608 127.25 364.108 126.25 364.908 126.15C366.408 126.15 367.408 125.45 369.108 125.95C370.008 126.25 371.008 126.35 371.808 125.85C374.908 121.55 378.508 117.15 383.508 114.85C386.908 113.55 390.308 112.45 393.608 110.55C395.108 109.65 396.208 107.55 398.108 107.45C400.108 107.35 401.408 110.95 403.508 109.15C411.608 105.25 403.908 104.15 408.908 101.15C409.208 100.85 409.608 100.45 410.008 100.25C410.808 99.9495 411.808 100.75 412.008 100.15C412.108 99.8495 411.908 99.3495 411.808 99.0495C411.108 97.4495 408.808 97.7495 408.008 96.2495C407.408 94.9495 407.808 92.6495 409.208 92.1495C411.108 91.8495 412.808 91.5495 414.808 92.0495C415.808 92.2495 417.108 92.6495 417.608 91.7495C417.908 91.2495 418.208 90.6495 418.808 90.5495C419.608 90.2495 420.708 90.5495 421.408 90.0495C422.308 89.4495 421.908 88.0495 422.808 87.3495C424.108 86.6495 424.908 84.3495 426.608 84.8495C427.508 85.3495 428.608 84.7495 429.508 84.7495C430.408 85.1495 431.008 86.7495 432.108 87.1495C434.808 88.2495 433.408 91.5495 435.908 92.7495C440.008 94.2495 441.608 95.9495 445.308 92.8495C446.108 92.5495 447.508 93.8495 447.108 92.0495C446.508 86.2495 440.308 82.6495 442.808 76.6495C443.208 75.6495 443.508 74.4495 444.508 73.8495C445.808 73.3495 446.708 72.5495 447.408 71.4495C448.108 70.8495 448.508 69.6495 449.108 69.2495C450.108 68.8495 451.008 68.4495 451.008 67.1495C450.708 64.1495 451.908 61.9495 452.808 59.2495C453.908 55.8495 455.208 50.8495 459.208 55.1495C460.108 55.9495 462.208 55.9495 463.108 55.0495C463.508 54.4495 463.608 53.5495 464.308 53.2495C465.308 52.8495 467.108 53.5495 467.308 51.9495C466.808 48.8495 469.708 45.3495 468.408 42.3495C468.308 40.5495 470.508 39.0495 471.608 37.8495C472.308 37.0495 473.108 36.1495 474.408 35.7495C478.608 32.6495 475.908 23.3495 484.408 24.8495L485.008 25.3495Z"/>
    </mask>
    <path fill-rule="evenodd" clip-rule="evenodd" d="M485.008 25.3495C486.908 26.2495 488.808 27.0495 491.108 26.9495C492.208 27.1495 493.308 27.8495 494.208 27.1495C495.008 26.3495 496.108 25.7495 497.108 26.6495C498.208 27.4495 499.708 28.0495 500.408 29.3495C500.908 30.1495 501.308 31.2495 502.308 31.2495C503.308 31.3495 503.708 31.9495 504.808 32.2495C507.208 32.5495 509.208 31.0495 511.308 30.5495C512.008 30.5495 512.108 31.3495 512.308 31.8495C512.708 32.7495 514.008 32.6495 514.708 33.0495C515.608 33.4495 516.408 33.0495 516.908 32.3495C517.908 31.1495 519.208 30.2495 519.508 28.6495C519.708 27.8495 520.208 27.2495 521.008 26.9495C524.408 25.8495 530.008 26.1495 533.208 27.9495C534.308 28.6495 535.508 29.4495 536.808 29.6495C538.108 29.9495 540.408 29.4495 540.408 31.4495C540.708 39.8495 544.708 34.5495 547.208 30.6495C547.308 29.5495 546.808 28.0495 547.708 27.0495C548.208 26.2495 548.208 24.7495 549.108 24.6495C550.508 24.8495 550.408 23.9495 550.308 22.8495C550.308 22.0495 550.008 20.8495 550.608 20.3495C551.408 19.8495 553.008 19.8495 553.608 20.7495C554.308 22.1495 554.408 24.0495 555.108 25.6495C555.208 27.2495 556.308 28.5495 556.008 30.1495C556.008 33.3495 556.708 37.4495 558.708 40.1495C560.408 41.6495 561.808 44.2495 564.408 43.8495C565.208 43.8495 565.508 44.8495 566.108 45.2495C566.808 45.8495 567.808 45.7495 568.408 46.2495C568.908 46.8495 569.108 47.7495 569.508 48.3495C570.108 49.5495 571.208 50.3495 571.208 51.4495C570.608 54.2495 574.008 54.0495 574.508 56.3495C575.008 59.1495 573.208 61.8495 576.508 63.4495C577.608 65.1495 578.908 66.4495 580.508 67.5495C581.408 68.7495 583.708 69.3495 583.008 71.0495C581.908 72.7495 580.708 74.6495 580.508 76.5495C581.708 78.0495 583.908 79.3495 585.608 80.2495C588.008 80.5495 590.808 81.9495 593.208 81.5495C594.408 80.3495 596.808 79.2495 598.508 78.7495C599.008 78.6495 599.608 78.4495 599.808 77.9495C600.008 76.9495 598.808 76.1495 598.408 75.2495C597.908 73.9495 597.708 71.5495 596.908 70.3495C594.708 66.9495 595.108 67.6495 595.908 63.9495C595.808 62.7495 596.408 61.2495 596.008 60.1495C595.608 59.1495 594.708 57.2495 596.408 57.1495C597.408 57.0495 598.508 57.7495 599.508 57.2495C600.908 56.4495 600.708 54.3495 602.008 53.3495C602.908 52.1495 604.608 51.7495 605.508 50.7495C606.108 50.0495 605.408 48.5495 605.908 47.7495C606.108 47.2495 606.808 47.2495 607.108 47.7495C607.908 48.8495 607.808 50.1495 608.308 51.4495C609.008 52.7495 610.208 54.0495 610.508 55.6495C611.008 57.0495 609.208 57.1495 609.008 58.3495C609.008 60.9495 610.708 63.4495 610.908 65.9495C610.708 68.3495 610.308 73.4495 614.208 72.3495C616.008 71.9495 618.508 71.8495 619.408 73.5495C619.908 74.3495 620.308 75.3495 621.308 75.5495C622.408 75.9495 623.708 73.2495 624.108 75.2495C625.708 79.0495 626.708 74.1495 632.108 80.7495C634.808 82.3495 638.708 79.9495 638.908 77.0495C639.608 75.7495 641.408 75.4495 642.708 75.0495C643.608 74.9495 644.208 75.6495 644.608 76.2495C649.008 78.4495 648.308 81.4495 648.208 85.8495C649.008 88.4495 646.108 91.4495 647.608 93.6495C649.908 94.4495 650.208 95.7495 649.708 98.2495C649.708 99.1495 650.108 100.05 650.008 100.65C649.408 102.25 648.508 103.55 648.208 105.45C647.808 106.75 646.808 107.55 646.708 109.05C646.708 111.65 645.608 113.75 643.508 115.15C641.508 119.55 641.008 117.95 636.908 118.75C634.408 118.85 633.508 121.25 631.708 122.35C628.708 123.55 627.108 126.35 626.008 129.25C625.608 130.25 624.608 130.35 623.808 131.05C622.608 132.45 621.808 133.75 620.508 134.85C619.308 135.65 618.708 136.95 617.408 137.65C616.408 138.05 615.508 138.75 615.008 139.65C613.808 143.45 610.708 146.05 610.708 150.25C608.808 156.15 612.008 155.25 612.408 159.55C612.108 161.75 608.808 162.55 608.908 164.95C609.408 166.15 611.808 167.05 612.908 165.75C613.808 165.35 614.508 163.75 615.508 164.25C617.808 166.15 620.808 167.35 623.708 167.95C624.508 168.55 623.808 170.05 624.508 170.75C626.708 172.25 630.908 172.95 628.208 176.25C627.708 177.05 627.608 178.65 626.608 178.85C622.808 177.95 624.308 179.65 622.808 181.95C622.408 182.55 621.608 182.65 621.108 182.85C620.508 183.25 621.208 183.75 621.908 183.85C622.708 183.95 623.608 183.55 624.308 183.45C627.008 182.95 626.108 186.55 625.108 187.65C624.808 187.95 624.808 188.25 625.108 188.55C626.208 189.25 626.608 191.05 627.408 191.85C627.708 192.15 628.208 192.25 628.408 192.65C627.608 195.05 627.508 197.65 626.308 199.95C625.308 201.55 623.208 200.95 621.408 201.35C620.408 201.65 619.508 202.35 618.408 202.95C616.608 204.15 615.608 206.35 614.208 207.65C613.008 208.05 611.208 208.95 610.608 210.05C610.408 210.25 610.208 210.15 609.908 210.05C608.508 208.95 606.608 208.55 605.308 207.25C604.008 206.55 603.508 204.45 602.108 205.75C598.608 208.65 601.808 213.35 602.808 216.55C602.508 218.05 603.008 219.55 602.808 221.05C602.608 222.45 601.908 223.75 602.408 225.15C602.608 227.35 605.108 228.15 605.808 229.95C608.508 236.25 609.608 238.35 603.208 242.65C602.708 243.15 603.108 244.75 602.408 245.65C601.808 246.35 601.308 246.55 601.308 245.15C601.308 243.05 598.408 243.55 597.208 242.65C593.208 240.55 590.408 237.65 586.108 240.25C584.308 240.15 582.008 239.85 580.808 241.45C580.308 242.65 580.208 244.15 579.508 245.25C579.208 245.65 578.408 245.35 578.008 245.35C577.608 245.45 577.108 245.85 576.608 246.05C573.908 247.25 572.208 250.15 569.308 250.95C567.808 250.85 569.808 248.35 569.108 247.35C568.808 246.35 567.608 245.65 566.708 246.25C564.708 247.65 563.608 244.75 562.208 244.05C560.008 243.35 557.408 242.65 556.008 241.05C555.508 240.45 555.608 239.85 555.408 239.25C553.708 236.85 554.508 233.05 555.108 230.45C555.508 224.95 556.608 219.35 550.308 216.85C548.908 216.05 547.108 215.85 545.708 215.15C544.808 214.65 544.608 213.45 543.708 213.05C542.208 212.75 541.308 214.75 539.908 215.15C538.508 215.65 537.608 213.55 536.808 215.45C536.008 217.05 534.408 216.95 533.008 218.05C532.008 219.35 530.708 219.95 529.308 220.25C528.408 220.65 528.808 221.75 527.908 221.85C526.408 221.95 525.408 223.45 524.108 223.85C522.508 224.15 520.708 223.05 519.108 223.25C517.208 223.75 515.908 226.05 514.208 226.75C512.608 226.65 511.608 227.95 510.408 228.65C509.908 228.85 509.308 228.85 508.808 228.55C507.108 227.75 504.808 227.75 502.808 227.55C501.308 227.35 499.908 226.45 498.308 226.75C495.508 227.55 494.508 225.25 493.808 223.05C492.408 222.05 492.308 220.05 493.408 218.75C494.308 217.25 494.208 215.25 494.008 213.65C491.908 212.25 488.608 213.45 486.108 212.85C484.808 212.75 483.308 212.75 482.508 213.75C482.208 214.05 482.508 214.85 482.008 214.75C481.408 214.45 480.508 215.05 479.908 215.15C479.208 215.15 478.908 215.25 478.308 215.35C476.608 215.15 474.808 215.45 475.908 212.85C476.508 211.95 477.708 212.15 478.408 211.35C478.608 211.25 479.208 211.25 478.908 211.05C477.008 209.75 474.008 210.75 472.208 209.05C472.008 208.75 472.208 208.55 472.308 208.35C472.208 207.45 470.508 207.55 469.808 207.15C468.808 206.75 469.208 205.75 469.508 205.05C470.308 203.15 468.008 201.35 466.208 201.15C463.408 200.15 460.708 200.75 458.408 198.95C457.508 198.45 456.308 198.35 456.008 197.65C456.008 196.75 455.708 196.35 455.108 195.35C453.808 194.05 450.908 193.15 450.108 195.55C447.408 198.15 449.008 195.25 447.008 194.75C446.008 194.25 445.208 195.75 444.308 195.65C443.008 195.35 441.008 194.55 440.108 194.15C437.508 191.95 429.308 192.05 432.508 186.75C433.108 186.15 433.608 185.65 434.208 185.15C434.308 184.65 434.608 184.25 435.008 183.85C434.908 181.65 436.108 179.35 436.208 177.05C436.208 176.35 435.908 175.85 435.708 175.35C435.608 174.75 436.008 174.15 436.208 173.65C436.108 172.55 436.108 171.15 436.508 170.05C437.508 167.35 434.908 164.75 433.808 161.85C432.308 159.25 431.408 155.45 428.708 153.85C423.808 152.45 418.708 152.05 413.608 150.85C411.208 151.35 409.708 149.75 407.408 149.35C402.608 149.35 398.008 149.15 393.608 147.25C392.208 147.25 391.208 147.05 390.608 145.85C390.308 145.05 390.408 144.05 390.108 143.25C389.308 141.55 388.508 140.55 387.508 139.25C386.608 138.65 385.008 138.65 384.308 139.45C384.008 139.75 383.508 140.35 383.008 140.15C381.208 138.55 383.708 136.55 379.908 136.45C378.508 135.95 377.008 135.15 375.808 134.25C374.908 133.45 376.908 130.75 374.808 130.95C372.408 132.35 370.108 128.45 370.008 132.65C370.208 134.75 368.008 134.85 366.908 135.85C366.008 136.95 365.808 138.65 364.908 139.75C364.208 140.45 362.808 140.35 362.308 140.85C361.608 141.95 360.208 140.85 359.408 140.55C358.608 139.85 356.908 140.55 355.908 140.25C354.708 139.75 351.508 140.85 352.008 138.65C352.408 137.85 352.508 136.55 352.308 135.65C351.408 133.15 356.108 133.05 355.008 130.65C354.008 128.95 352.308 131.45 351.008 130.95C349.808 130.55 349.508 127.85 351.008 127.55C351.908 127.45 352.908 127.75 353.708 127.35C354.508 126.85 355.508 126.75 356.408 127.05C357.808 127.45 359.108 127.35 360.308 127.75C361.108 128.05 362.208 128.35 362.908 127.75C363.608 127.25 364.108 126.25 364.908 126.15C366.408 126.15 367.408 125.45 369.108 125.95C370.008 126.25 371.008 126.35 371.808 125.85C374.908 121.55 378.508 117.15 383.508 114.85C386.908 113.55 390.308 112.45 393.608 110.55C395.108 109.65 396.208 107.55 398.108 107.45C400.108 107.35 401.408 110.95 403.508 109.15C411.608 105.25 403.908 104.15 408.908 101.15C409.208 100.85 409.608 100.45 410.008 100.25C410.808 99.9495 411.808 100.75 412.008 100.15C412.108 99.8495 411.908 99.3495 411.808 99.0495C411.108 97.4495 408.808 97.7495 408.008 96.2495C407.408 94.9495 407.808 92.6495 409.208 92.1495C411.108 91.8495 412.808 91.5495 414.808 92.0495C415.808 92.2495 417.108 92.6495 417.608 91.7495C417.908 91.2495 418.208 90.6495 418.808 90.5495C419.608 90.2495 420.708 90.5495 421.408 90.0495C422.308 89.4495 421.908 88.0495 422.808 87.3495C424.108 86.6495 424.908 84.3495 426.608 84.8495C427.508 85.3495 428.608 84.7495 429.508 84.7495C430.408 85.1495 431.008 86.7495 432.108 87.1495C434.808 88.2495 433.408 91.5495 435.908 92.7495C440.008 94.2495 441.608 95.9495 445.308 92.8495C446.108 92.5495 447.508 93.8495 447.108 92.0495C446.508 86.2495 440.308 82.6495 442.808 76.6495C443.208 75.6495 443.508 74.4495 444.508 73.8495C445.808 73.3495 446.708 72.5495 447.408 71.4495C448.108 70.8495 448.508 69.6495 449.108 69.2495C450.108 68.8495 451.008 68.4495 451.008 67.1495C450.708 64.1495 451.908 61.9495 452.808 59.2495C453.908 55.8495 455.208 50.8495 459.208 55.1495C460.108 55.9495 462.208 55.9495 463.108 55.0495C463.508 54.4495 463.608 53.5495 464.308 53.2495C465.308 52.8495 467.108 53.5495 467.308 51.9495C466.808 48.8495 469.708 45.3495 468.408 42.3495C468.308 40.5495 470.508 39.0495 471.608 37.8495C472.308 37.0495 473.108 36.1495 474.408 35.7495C478.608 32.6495 475.908 23.3495 484.408 24.8495L485.008 25.3495Z" fill="#ECDFCF" fill-opacity="0.8" stroke="#6E553B" stroke-width="2" mask="url(#path-13-inside-2_6273_16578)"/>
    <g clip-path="url(#clip3_6273_16578)">
    <path d="M547.995 177.716C548.088 177.472 548.167 177.223 548.278 176.987C548.64 176.218 549.145 175.817 550.266 175.396C550.266 174.145 550.266 172.885 550.266 171.625C550.266 170.993 550.435 170.829 551.077 170.827C551.531 170.826 551.985 170.824 552.439 170.82C552.462 170.82 552.484 170.804 552.466 170.811C552.642 169.787 552.737 168.766 552.998 167.788C554.288 162.953 557.27 159.569 561.878 157.625C562.162 157.505 562.291 157.374 562.27 157.053C562.24 156.602 562.251 156.146 562.267 155.693C562.276 155.449 562.186 155.356 561.954 155.273C560.806 154.86 560.137 154.044 560.012 152.817C559.952 152.231 560.146 152.025 560.728 152.02C561.207 152.016 561.686 152.029 562.165 152.011C562.276 152.007 562.45 151.928 562.482 151.841C563.103 150.154 563.707 148.46 564.317 146.758C564.061 146.627 563.819 146.526 563.6 146.386C562.792 145.873 562.346 145.133 562.276 144.174C562.237 143.645 562.443 143.424 562.97 143.422C563.851 143.418 564.732 143.422 565.667 143.422C565.667 142.995 565.693 142.596 565.662 142.201C565.579 141.144 565.972 140.393 566.993 140.016C567.245 140.016 567.497 140.016 567.75 140.016C567.978 140.141 568.227 140.24 568.431 140.397C568.882 140.742 569.073 141.224 569.073 141.786C569.073 142.315 569.073 142.845 569.073 143.423C569.537 143.423 569.975 143.423 570.413 143.423C570.867 143.423 571.321 143.42 571.775 143.423C572.299 143.428 572.507 143.649 572.464 144.18C572.374 145.297 571.8 146.084 570.805 146.577C570.694 146.631 570.576 146.673 570.434 146.731C570.469 146.845 570.496 146.951 570.533 147.054C571.09 148.607 571.654 150.158 572.199 151.715C572.279 151.943 572.381 152.034 572.624 152.026C573.116 152.009 573.608 152.014 574.1 152.024C574.568 152.033 574.756 152.247 574.739 152.718C574.697 153.874 573.942 154.895 572.808 155.265C572.531 155.355 572.465 155.485 572.475 155.747C572.492 156.201 572.496 156.656 572.474 157.109C572.461 157.381 572.564 157.495 572.811 157.599C577.273 159.464 580.244 162.699 581.62 167.341C581.951 168.456 582.075 169.631 582.304 170.831C582.738 170.831 583.252 170.828 583.767 170.831C584.276 170.835 584.473 171.031 584.475 171.542C584.478 172.829 584.475 174.115 584.475 175.416C585.098 175.582 585.633 175.869 586.049 176.353C586.482 176.86 586.719 177.446 586.741 178.111C586.755 178.542 586.536 178.762 586.103 178.778C586.04 178.78 585.977 178.778 585.914 178.778C573.552 178.778 561.19 178.778 548.827 178.783C548.473 178.783 548.181 178.723 547.992 178.4C547.992 178.172 547.992 177.946 547.992 177.718L547.995 177.716ZM581.038 170.807C580.832 163.679 574.591 157.14 566.357 157.738C558.695 158.294 553.762 164.844 553.729 170.81H561.19C561.183 170.745 561.179 170.698 561.172 170.653C561.037 169.78 561.337 169.125 562.129 168.703C562.216 168.657 562.289 168.519 562.306 168.415C562.487 167.254 562.999 166.268 563.83 165.44C564.84 164.435 565.844 163.424 566.854 162.418C567.242 162.032 567.499 162.028 567.883 162.41C568.92 163.443 569.955 164.477 570.985 165.514C571.619 166.152 572.086 166.9 572.289 167.779C572.405 168.286 572.542 168.691 573.03 169.015C573.629 169.413 573.695 170.102 573.548 170.807H581.039H581.038ZM585.484 177.62C585.447 177.523 585.431 177.452 585.395 177.392C585.014 176.731 584.423 176.501 583.683 176.502C573.604 176.508 563.526 176.506 553.447 176.506C553.308 176.506 553.166 176.52 553.031 176.496C552.719 176.438 552.535 176.242 552.543 175.919C552.551 175.616 552.735 175.433 553.031 175.38C553.154 175.359 553.283 175.37 553.409 175.37C556.196 175.37 558.984 175.37 561.771 175.37H562.233V171.994H551.402C551.402 173.249 551.402 174.473 551.402 175.696C551.402 176.31 551.277 176.448 550.676 176.514C549.995 176.589 549.426 177.042 549.298 177.621H585.485L585.484 177.62ZM563.508 144.568C563.787 145.241 564.263 145.587 564.92 145.68C565.629 145.78 565.79 146.024 565.551 146.693C564.961 148.339 564.368 149.985 563.776 151.631C563.736 151.744 563.706 151.861 563.665 151.995H571.048C571.055 151.947 571.068 151.921 571.061 151.901C570.482 150.277 569.904 148.653 569.311 147.035C569.278 146.943 569.122 146.841 569.02 146.836C568.516 146.816 568.012 146.829 567.508 146.826C567.066 146.823 566.813 146.612 566.814 146.258C566.814 145.904 567.068 145.695 567.511 145.693C568.229 145.689 568.948 145.702 569.666 145.688C570.409 145.673 571.027 145.212 571.193 144.568H563.508ZM583.328 171.99H572.504V175.348H583.328V171.99ZM569.074 175.348C569.074 175.192 569.074 175.057 569.074 174.92C569.074 173.069 569.074 171.217 569.074 169.366C569.074 169.215 569.069 169.063 569.053 168.914C568.957 168.077 568.256 167.44 567.418 167.421C566.416 167.398 565.679 168.153 565.674 169.238C565.665 171.178 565.671 173.118 565.673 175.058C565.673 175.153 565.691 175.249 565.701 175.348H569.077H569.074ZM563.445 168.556C563.769 168.556 564.06 168.577 564.345 168.545C564.454 168.532 564.604 168.417 564.642 168.315C565.087 167.067 566.115 166.29 567.357 166.285C568.62 166.28 569.649 167.048 570.099 168.323C570.13 168.412 570.221 168.538 570.291 168.544C570.62 168.567 570.953 168.554 571.291 168.554C571.159 167.739 570.902 167.088 570.404 166.569C569.426 165.553 568.417 164.566 567.42 163.569C567.406 163.555 567.374 163.559 567.394 163.563C566.36 164.577 565.326 165.556 564.335 166.576C563.826 167.101 563.56 167.773 563.444 168.556H563.445ZM573.499 153.19H561.271C561.57 153.953 562.131 154.288 563.096 154.289C565.944 154.291 568.792 154.291 571.64 154.289C571.828 154.289 572.02 154.283 572.204 154.25C572.816 154.138 573.237 153.789 573.498 153.191L573.499 153.19ZM563.425 157.086C566.066 156.383 568.68 156.392 571.32 157.081V155.45H563.425V157.087V157.086ZM563.431 171.975V175.345H564.501V171.975H563.431ZM571.324 171.99H570.232V175.341H571.324V171.99ZM564.515 169.693C563.921 169.693 563.37 169.682 562.819 169.697C562.491 169.706 562.267 169.95 562.274 170.254C562.282 170.577 562.459 170.797 562.774 170.812C563.348 170.841 563.924 170.82 564.515 170.82V169.692V169.693ZM570.223 170.824C570.823 170.824 571.386 170.838 571.948 170.817C572.245 170.806 572.435 170.619 572.465 170.315C572.495 170.011 572.345 169.749 572.057 169.726C571.451 169.681 570.841 169.712 570.222 169.712V170.823L570.223 170.824ZM567.931 143.409C567.931 142.812 567.945 142.248 567.926 141.685C567.915 141.365 567.71 141.174 567.392 141.158C567.11 141.144 566.863 141.293 566.846 141.572C566.809 142.178 566.835 142.788 566.835 143.409H567.932H567.931Z" fill="#6E553B"/>
    </g>
    <g clip-path="url(#clip4_6273_16578)">
    <path d="M563.934 83.6854L560.886 81.0123L558.215 79.59L555.986 76.1657L552.213 75.3153L548.403 73.0388L546.729 74.9187L542.703 75.0675L540.24 77.058L538.648 77.5651L536.72 74.2247L535.172 74.9721C533.487 74.7433 531.653 74.4802 531.359 74.4192C531.102 74.3048 529.621 73.5193 528.315 72.8176L527.995 72.646L526.228 74.0646L523.024 73.5421L522.142 74.2552L520.349 73.668L515.914 71.0254L513.175 73.0846C512.617 72.2914 512.342 72.1961 512.242 72.1617C511.951 72.0626 509.228 71.1665 509.228 71.1665L508.878 71.0521L506.861 73.4277H502.668L499.063 76.0398L498.281 74.5145L494.453 73.3248L490.855 79.0599L486.52 80.0705L485.006 83.9981L482.491 86.1946L477.992 90.7896L478.781 91.598L483.231 87.0373L485.94 84.6731L487.339 81.039L491.543 80.059L494.933 74.6556L497.507 75.4564L498.665 77.7139L498.836 77.588L500.555 79.0332H503.237L505.291 81.9351L508.212 82.8694L507.992 83.1592L503.688 86.0916L497.794 91.9793L498.575 92.7991L504.35 87.0182L508.763 84.0134L510.921 81.1839L512.718 78.5985L513.175 77.6147L516.736 79.1438L517.815 80.3755L518.771 85.0773L523.058 86.5073L526.633 88.5321L532.159 94.0995L532.94 93.2834L527.303 87.6093L523.549 85.4815L522.291 85.0582L525.655 83.3155L529.48 79.2506L533.625 78.4498L535.615 76.0284L536.281 75.7081L538.142 78.9303L538.294 78.8807L540.467 80.4975L542.275 80.9246L545.535 81.2488L547.823 85.8933L549.683 88.5016L553.173 90.698L553.758 89.7218L550.454 87.6398L548.798 85.3328L546.253 80.1696L542.487 79.7997L540.936 79.4336L539.622 78.4574L540.768 78.0914L543.109 76.2L547.239 76.0475L548.623 74.4955L551.804 76.3983L555.309 77.1876L557.449 80.4747L560.213 81.9313L563.115 84.471L566.144 88.0936L566.992 87.35L563.934 83.6931V83.6854ZM512.614 76.1275L511.776 77.9732L510.024 80.4975L508.949 81.9085L505.98 80.9589L503.81 77.8931H500.96L499.788 76.9093L503.025 74.5641H507.375L509.243 72.3638C509.95 72.5965 511.501 73.1074 511.851 73.2256C511.985 73.34 512.312 73.7824 512.573 74.198L512.893 74.7128L515.992 72.3829L519.85 74.6823L521.19 75.1285L519.277 76.9436L517.056 78.038L512.617 76.1352L512.614 76.1275ZM533.026 77.3897L528.922 78.1829L524.981 82.3737L520.792 84.5472L519.731 84.1888L518.846 79.8378L517.979 78.8464L519.91 77.8969L522.622 75.3191L523.337 74.7433L526.54 75.2657L528.122 73.9959C529.398 74.6823 530.815 75.4335 531.016 75.5022C531.169 75.5556 532.237 75.7157 534.186 75.9865L533.029 77.3974L533.026 77.3897Z" fill="#6E553B"/>
    </g>
    <g clip-path="url(#clip5_6273_16578)">
    <path d="M488.735 150.679V149.727L494.29 143.855L483.855 139.758C483.709 138.224 482.7 137.33 482.331 137.051L481.367 135.014L480.403 137.051C480.034 137.33 479.026 138.224 478.879 139.758L468.444 143.855L474 149.727V150.679L459.992 157.61L467.709 162.504V163.642H469.138V170.738H468.853V173.014H493.882V170.738H493.596V163.642H495.026V162.504L502.743 157.61L488.735 150.679H488.735ZM479.87 140.506V140.135C479.87 138.658 481.008 137.902 481.055 137.872L481.181 137.792L481.367 137.397L481.555 137.79L481.677 137.87C481.726 137.901 482.865 138.658 482.865 140.135V140.506L490.957 143.683H471.778L479.87 140.506L479.87 140.506ZM470.718 144.749H492.017L487.84 149.165H474.896L470.718 144.749H470.718ZM475.005 151.359H487.729L499.403 157.135H463.331L475.005 151.359ZM492.587 163.26V171.12H470.147V163.26H492.587ZM494.068 161.868H468.666L462.885 158.201H499.85L494.068 161.868Z" fill="#6E553B"/>
    </g>
    <path d="M530.194 129.182C530.469 129.196 530.704 128.983 530.718 128.708L530.945 124.213C530.959 123.938 530.746 123.703 530.471 123.689C530.195 123.675 529.96 123.887 529.946 124.163L529.745 128.158L525.75 127.956C525.474 127.943 525.239 128.155 525.225 128.431C525.211 128.706 525.423 128.941 525.699 128.955L530.194 129.182ZM143.088 129.019C175.453 93.4931 233.635 50.8668 302.969 38.4372C372.263 26.0147 452.759 43.7404 529.848 129.018L530.59 128.347C453.279 42.8247 372.441 24.967 302.793 37.4529C233.186 49.9315 174.818 92.7053 142.349 128.346L143.088 129.019Z" fill="#6E553B"/>
    <circle cx="142.719" cy="128.684" r="3" fill="#6E553B"/>
    <defs>
    <clipPath id="clip0_6273_16578">
    <rect width="19.5217" height="67.2137" fill="white" transform="translate(123.938 200.014) rotate(72.1072)"/>
    </clipPath>
    <clipPath id="clip1_6273_16578">
    <rect width="89" height="23.0741" fill="white" transform="translate(99.9766 73.0137)"/>
    </clipPath>
    <clipPath id="clip2_6273_16578">
    <rect width="33" height="130" fill="white" transform="translate(168.977 84.0137)"/>
    </clipPath>
    <clipPath id="clip3_6273_16578">
    <rect width="38.75" height="38.7662" fill="white" transform="translate(547.992 140.014)"/>
    </clipPath>
    <clipPath id="clip4_6273_16578">
    <rect width="89" height="23.0741" fill="white" transform="translate(477.992 71.0137)"/>
    </clipPath>
    <clipPath id="clip5_6273_16578">
    <rect width="42.75" height="38" fill="white" transform="translate(459.992 135.014)"/>
    </clipPath>
    </defs>
    </svg>
    