<svg width="301" height="274" viewBox="0 0 301 274" fill="none" xmlns="http://www.w3.org/2000/svg">
    <mask id="path-1-inside-1_6278_17177" fill="white">
    <path fill-rule="evenodd" clip-rule="evenodd" d="M115.603 21.9012C115.603 20.8012 114.903 19.4012 115.603 18.4012C116.203 17.8012 117.303 17.6012 118.003 17.1012C119.703 16.0012 120.203 14.0012 121.803 13.1012C124.703 12.0012 127.203 13.5012 130.103 12.4012C131.003 12.4012 132.003 11.9012 132.203 11.0012C132.403 10.3012 132.003 9.50122 132.003 8.80122C131.903 8.00122 132.703 7.30122 133.303 6.50122C133.803 5.70122 134.303 4.60122 135.303 4.80122C135.903 4.80122 136.403 5.10122 137.003 5.10122C138.403 5.40122 139.103 4.10122 140.103 3.50122C142.003 2.80122 143.803 2.00122 145.703 1.50122C147.403 1.50122 149.503 3.30122 151.003 1.80122C151.503 1.40122 152.103 0.901219 152.803 1.00122C154.103 1.10122 157.203 2.70122 155.903 4.20122C155.603 4.60122 155.603 5.00122 156.103 5.20122C161.003 7.80122 160.203 3.50122 163.203 5.70122C164.003 6.50122 165.103 6.60122 166.203 6.20122C167.903 5.30122 170.403 7.10122 170.803 8.60122C170.803 9.70122 169.503 11.6012 171.003 12.3012C172.403 13.1012 174.103 13.1012 175.703 12.9012C177.003 13.2012 178.403 12.9012 179.603 12.8012C181.003 13.0012 180.303 15.0012 180.203 16.1012C179.903 17.6012 178.103 17.5012 177.203 18.4012C175.403 20.4012 176.903 23.7012 177.203 26.0012C177.303 26.9012 177.403 27.8012 178.203 28.3012C179.303 28.8012 180.703 29.1012 180.603 30.7012C180.303 33.3012 178.203 36.1012 179.503 38.8012C180.203 40.1012 181.803 38.4012 183.003 38.9012C184.303 39.3012 185.803 40.0012 186.303 41.3012C187.203 43.2012 185.803 44.9012 185.503 46.8012C185.603 51.3012 182.103 55.8012 183.903 60.3012C185.203 61.9012 187.203 60.5012 188.603 60.5012C189.903 61.3012 190.903 62.9012 192.303 63.5012C193.403 63.9012 194.603 64.2012 195.703 64.7012C196.503 65.0012 197.203 63.8012 198.003 64.1012C198.703 64.3012 199.203 65.0012 199.903 65.1012C201.203 65.2012 202.603 64.7012 203.903 65.5012C207.203 66.8012 203.703 69.1012 206.003 69.4012C206.803 69.4012 207.803 69.7012 208.303 70.5012C208.603 71.0012 208.603 71.6012 208.603 72.2012C208.603 73.6012 210.203 74.4012 210.003 75.7012C209.103 78.0012 211.003 78.6012 212.403 79.9012C213.303 80.4012 214.303 81.0012 215.003 81.8012C215.603 82.4012 216.503 81.8012 217.103 81.4012C218.403 80.3012 219.903 81.6012 221.303 81.1012C222.403 80.6012 223.603 80.3012 224.503 81.4012C226.703 83.4012 229.903 81.7012 232.403 82.7012C234.003 83.4012 234.603 85.0012 235.203 86.6012C235.703 87.4012 236.603 87.9012 237.003 88.8012C237.303 89.4012 237.903 89.8012 238.603 90.1012C243.103 91.2012 239.403 94.0012 241.203 96.1012C242.503 96.5012 243.403 97.6012 244.503 98.2012C246.403 98.7012 248.603 99.2012 250.403 99.6012C252.903 100.601 257.103 103.701 259.003 104.501C259.703 104.801 260.103 104.201 260.703 103.901C261.503 103.401 262.603 103.501 263.303 102.901C264.603 101.801 265.503 102.301 267.303 101.801C268.103 101.601 268.903 101.501 269.703 101.801C270.503 102.101 270.603 103.201 271.403 103.101C272.803 102.801 274.503 102.401 275.303 101.301C275.603 100.701 275.303 100.001 275.603 99.3012C277.103 96.6012 279.503 94.5012 281.603 92.3012C282.503 91.5012 283.103 90.1012 284.403 89.9012C285.103 90.0012 285.803 90.6012 286.603 90.7012C287.703 91.0012 288.803 89.6012 290.003 89.4012C292.203 88.9012 293.303 91.6012 294.503 93.0012C295.203 94.4012 296.703 94.9012 298.203 94.8012C299.303 94.8012 299.203 95.9012 299.803 96.5012C300.403 97.2012 300.603 98.2012 300.103 99.0012C299.703 100.001 298.403 100.701 298.303 101.501C298.503 103.401 299.903 104.901 299.503 107.001C299.503 107.901 299.603 109.201 298.703 109.701C296.303 110.201 296.203 113.001 295.503 115.001C294.603 116.901 291.603 115.301 290.803 117.401C290.403 118.501 289.403 119.501 289.303 120.701C289.303 121.301 289.803 121.701 290.103 122.101C291.103 123.601 290.603 126.201 291.603 127.901C292.803 129.201 290.503 135.201 289.103 135.501C281.103 135.501 283.303 142.901 279.803 147.101C277.203 148.101 275.403 150.401 273.603 152.401C272.103 153.501 273.403 155.101 273.503 156.501C273.103 158.701 271.803 161.201 271.903 163.401C272.303 167.201 269.203 164.601 268.003 166.701C267.703 167.401 267.503 168.401 266.503 168.401C265.603 168.401 264.603 168.701 263.703 168.301C262.003 166.601 259.403 165.001 258.003 167.801C256.903 170.901 255.703 174.501 254.403 177.601C254.303 179.001 255.003 181.501 253.503 182.401C251.503 183.001 250.903 185.301 249.403 186.601C248.103 187.501 246.403 187.901 246.003 189.701C245.003 191.801 244.803 194.201 245.303 196.501C247.303 200.101 249.903 203.401 250.303 207.701C250.103 208.801 248.903 207.401 248.303 207.901C247.203 208.801 245.703 210.101 244.203 209.901C241.703 208.901 236.803 208.601 236.503 205.101C236.503 202.901 234.503 202.201 233.103 201.001C232.603 200.501 232.303 199.501 231.603 199.301C230.603 199.301 229.903 200.101 228.803 199.501C226.903 198.601 226.203 200.901 224.903 201.701C223.603 202.301 224.103 203.801 223.303 204.701C222.503 205.701 220.703 205.001 219.903 205.701C218.503 208.501 216.703 206.801 214.203 206.701C212.903 206.801 211.603 206.901 210.303 207.001C208.903 207.501 208.303 210.101 209.003 211.501C209.703 212.901 211.803 212.701 212.703 214.001C213.103 214.501 213.703 215.601 212.903 215.801C211.003 215.101 210.703 216.001 209.403 217.101C207.203 217.901 208.403 219.701 208.503 221.301C208.503 223.301 206.303 223.501 204.703 224.801C202.003 226.901 201.403 224.201 199.003 223.301C196.703 222.901 195.603 225.401 193.903 226.401C192.103 227.601 189.603 228.301 187.803 229.501C186.203 229.701 184.603 230.301 183.103 231.001C179.203 232.801 176.003 236.101 173.103 239.201C172.203 240.301 171.903 242.001 170.703 242.701C169.603 243.401 168.003 242.701 166.803 242.501C165.703 242.401 164.803 243.001 163.703 242.901C161.403 242.901 161.703 246.101 158.503 244.701C157.103 244.201 155.803 244.401 154.503 243.901C153.203 243.301 152.003 243.901 150.803 244.401C149.903 244.701 148.403 244.001 147.803 244.801C147.103 245.501 147.303 247.101 148.003 247.801C149.503 249.401 151.503 245.601 152.703 247.701C153.803 249.601 150.703 250.401 150.003 251.501C149.503 252.401 150.103 253.501 150.103 254.401C150.103 257.101 146.703 258.101 144.603 258.701C143.103 259.501 140.603 260.001 140.403 262.001C140.203 264.201 139.303 266.201 140.003 268.401C140.103 271.701 137.103 267.901 135.903 267.501C131.103 265.001 126.503 262.601 121.703 260.101C118.103 258.401 114.503 256.101 110.803 254.601C106.003 253.901 100.203 254.001 95.3034 253.601C93.0034 253.801 84.2034 252.201 83.8034 253.701C83.9034 254.401 84.9034 254.701 85.0034 255.501C85.3034 256.801 83.5034 257.501 83.3034 258.601C83.7034 261.101 87.7034 261.601 84.5034 264.201C83.4034 264.701 83.4034 265.901 83.2034 267.001C81.4034 269.101 80.0034 271.901 77.3034 272.701C76.7034 272.801 76.1034 272.501 75.6034 272.601C75.0034 272.601 74.8034 273.101 73.9034 273.001C73.6034 273.001 73.3034 272.901 73.0034 272.901C71.2034 272.301 69.0034 270.201 69.1034 268.001C69.1034 267.201 69.4034 266.501 68.9034 265.801C67.2034 263.601 64.2034 262.901 62.5034 260.901C61.3034 259.501 60.7034 257.401 58.9034 256.701C55.5034 255.601 52.2034 256.701 48.8034 256.601C46.0034 256.601 43.3034 257.501 40.4034 257.001C37.4034 256.001 34.1034 256.001 31.3034 254.401C28.9034 251.801 29.4034 249.601 24.9034 250.301C21.5034 251.001 18.2034 249.901 14.8034 250.501C12.8034 251.001 10.8034 250.301 8.70336 250.301C7.40336 250.301 4.90336 250.501 5.20336 248.701C5.40336 248.101 5.70336 247.901 6.10336 247.701C6.90336 246.901 5.90336 246.301 5.80336 245.501C5.70336 244.701 5.20336 243.801 5.90336 243.101C6.30336 242.101 6.30336 240.801 7.00336 239.701C7.70336 238.701 7.20336 238.001 6.40336 237.301C5.90336 236.601 4.90336 235.501 5.00336 234.501C5.10336 233.801 5.20336 232.901 4.90336 232.301C5.00336 231.801 5.00336 231.101 4.70336 230.801C4.50336 230.501 4.50336 230.301 4.30336 229.801C3.90336 229.201 3.00336 229.001 2.70336 228.201C2.10336 227.301 2.80336 226.201 2.70336 225.101C2.50336 224.601 2.10336 224.101 1.80336 223.701C0.903362 222.401 1.80336 220.701 1.40336 219.201C1.30336 218.201 0.303362 216.301 0.703362 215.601C1.00336 215.201 2.30336 215.401 3.00336 215.001C3.80336 214.701 4.10336 213.801 4.70336 213.301C5.60336 212.501 7.70336 212.701 9.20336 212.801C12.0034 213.901 14.0034 212.801 12.5034 210.001C12.0034 209.101 11.4034 209.401 10.9034 209.701C9.90336 209.801 9.20336 208.501 8.30336 208.201C7.50336 207.601 6.40336 206.701 7.00336 205.601C7.80336 204.301 9.70336 204.101 10.8034 203.101C11.2034 202.701 12.2034 202.101 12.6034 201.901C13.3034 201.601 11.8034 201.001 12.5034 200.601C12.6034 200.501 12.7034 200.501 12.8034 200.501C13.8034 200.201 13.3034 199.601 13.6034 198.801C14.2034 197.701 15.1034 196.001 15.9034 195.501C16.6034 195.201 17.4034 195.501 18.1034 195.601C19.1034 195.801 19.8034 195.101 20.7034 195.301C21.4034 195.401 22.3034 195.701 22.9034 195.101C24.0034 193.701 26.1034 196.001 27.3034 194.601C27.8034 193.901 28.3034 193.001 29.3034 192.501C30.3034 192.001 31.4034 192.301 32.3034 192.401C33.1034 192.401 34.2034 192.401 34.9034 192.401C35.6034 192.401 36.3034 191.901 37.0034 192.101C38.3034 193.401 38.3034 192.601 38.4034 191.301C39.0034 188.601 37.7034 186.201 35.1034 185.301C34.3034 185.001 33.7034 183.901 33.1034 183.801C32.5034 183.701 31.8034 183.901 31.5034 183.201C31.4034 182.801 32.3034 182.301 32.8034 182.001C33.3034 181.601 33.5034 181.101 33.6034 180.301C33.8034 179.501 33.7034 178.301 33.1034 177.601C32.7034 177.101 32.1034 176.801 32.2034 176.101C33.6034 173.301 36.4034 170.901 37.0034 167.701C37.5034 167.101 38.4034 167.901 38.9034 168.201C42.2034 170.101 43.9034 166.401 43.0034 163.701C43.2034 162.601 42.9034 162.301 42.1034 161.701C41.3034 161.201 41.5034 160.401 41.1034 159.801C40.5034 159.101 40.6034 158.301 40.8034 157.401C41.3034 155.301 40.0034 153.401 39.8034 151.501C39.7034 150.801 39.5034 150.401 40.2034 150.101C41.9034 149.301 44.0034 149.901 45.7034 150.301C47.1034 149.601 48.0034 147.501 48.1034 145.901C48.1034 144.701 47.0034 143.801 46.2034 142.901C45.3034 142.001 45.0034 140.801 44.1034 140.001C43.0034 138.901 41.3034 138.901 39.9034 138.601C37.6034 138.101 36.5034 136.001 35.0034 134.501C34.1034 133.901 32.7034 134.001 31.9034 133.501C30.8034 132.501 30.6034 130.301 29.7034 129.001C29.3034 128.501 28.9034 128.201 28.3034 128.101C26.0034 127.901 27.0034 125.101 26.0034 123.801C25.1034 121.801 21.8034 120.901 22.5034 118.301C22.7034 117.101 25.5034 118.201 25.5034 117.201C24.7034 115.701 22.8034 114.401 22.4034 112.701C27.6034 111.801 25.4034 109.901 26.7034 106.401C28.5034 103.501 34.9034 113.001 34.6034 105.201C34.4034 104.701 33.7034 104.401 33.1034 104.001C31.7034 103.201 30.6034 101.001 31.8034 99.6012C34.1034 97.1012 33.9034 96.8012 37.3034 97.8012C39.1034 98.3012 41.0034 96.6012 42.6034 97.5012C43.2034 97.8012 43.9034 98.1012 44.6034 97.9012C46.1034 97.9012 47.1034 96.3012 48.5034 96.4012C48.9034 96.4012 49.3034 96.5012 49.7034 96.5012C51.0034 96.1012 51.1034 93.6012 51.1034 92.4012C51.1034 91.7012 51.0034 90.9012 51.8034 90.8012C52.4034 90.6012 53.2034 90.6012 53.5034 89.9012C54.1034 88.5012 54.8034 87.2012 54.5034 85.6012C54.2034 84.2012 53.2034 82.0012 54.7034 81.0012C56.3034 80.5012 58.7034 81.4012 60.1034 82.1012C61.2034 82.8012 62.4034 82.5012 63.4034 82.0012C64.0034 81.7012 64.6034 81.9012 65.2034 82.3012C68.2034 84.9012 71.0034 83.5012 74.3034 82.5012C76.2034 81.7012 78.2034 82.8012 80.1034 82.2012C81.3034 81.6012 81.9034 79.5012 83.3034 79.1012C85.6034 78.9012 87.9034 78.5012 90.2034 77.7012C91.4034 77.1012 92.6034 76.4012 93.9034 76.0012C96.9034 74.3012 92.7034 69.6012 95.2034 67.6012C96.0034 67.3012 96.9034 67.0012 97.2034 66.1012C97.7034 64.5012 96.3034 63.0012 97.9034 61.8012C100.603 59.1012 102.603 55.2012 105.603 52.9012C106.603 51.8012 106.703 50.0012 107.703 48.9012C108.403 48.3012 109.603 48.9012 110.103 48.0012C111.103 44.9012 109.603 41.6012 111.203 38.7012C111.803 37.7012 112.503 36.8012 112.103 35.6012C111.903 34.5012 110.803 33.9012 111.103 32.8012C112.003 30.9012 114.603 32.4012 115.003 30.1012C115.303 29.0012 117.803 29.6012 118.003 28.5012C118.503 26.1012 115.703 24.4012 116.003 22.0012L115.603 21.9012Z"/>
    </mask>
    <path fill-rule="evenodd" clip-rule="evenodd" d="M115.603 21.9012C115.603 20.8012 114.903 19.4012 115.603 18.4012C116.203 17.8012 117.303 17.6012 118.003 17.1012C119.703 16.0012 120.203 14.0012 121.803 13.1012C124.703 12.0012 127.203 13.5012 130.103 12.4012C131.003 12.4012 132.003 11.9012 132.203 11.0012C132.403 10.3012 132.003 9.50122 132.003 8.80122C131.903 8.00122 132.703 7.30122 133.303 6.50122C133.803 5.70122 134.303 4.60122 135.303 4.80122C135.903 4.80122 136.403 5.10122 137.003 5.10122C138.403 5.40122 139.103 4.10122 140.103 3.50122C142.003 2.80122 143.803 2.00122 145.703 1.50122C147.403 1.50122 149.503 3.30122 151.003 1.80122C151.503 1.40122 152.103 0.901219 152.803 1.00122C154.103 1.10122 157.203 2.70122 155.903 4.20122C155.603 4.60122 155.603 5.00122 156.103 5.20122C161.003 7.80122 160.203 3.50122 163.203 5.70122C164.003 6.50122 165.103 6.60122 166.203 6.20122C167.903 5.30122 170.403 7.10122 170.803 8.60122C170.803 9.70122 169.503 11.6012 171.003 12.3012C172.403 13.1012 174.103 13.1012 175.703 12.9012C177.003 13.2012 178.403 12.9012 179.603 12.8012C181.003 13.0012 180.303 15.0012 180.203 16.1012C179.903 17.6012 178.103 17.5012 177.203 18.4012C175.403 20.4012 176.903 23.7012 177.203 26.0012C177.303 26.9012 177.403 27.8012 178.203 28.3012C179.303 28.8012 180.703 29.1012 180.603 30.7012C180.303 33.3012 178.203 36.1012 179.503 38.8012C180.203 40.1012 181.803 38.4012 183.003 38.9012C184.303 39.3012 185.803 40.0012 186.303 41.3012C187.203 43.2012 185.803 44.9012 185.503 46.8012C185.603 51.3012 182.103 55.8012 183.903 60.3012C185.203 61.9012 187.203 60.5012 188.603 60.5012C189.903 61.3012 190.903 62.9012 192.303 63.5012C193.403 63.9012 194.603 64.2012 195.703 64.7012C196.503 65.0012 197.203 63.8012 198.003 64.1012C198.703 64.3012 199.203 65.0012 199.903 65.1012C201.203 65.2012 202.603 64.7012 203.903 65.5012C207.203 66.8012 203.703 69.1012 206.003 69.4012C206.803 69.4012 207.803 69.7012 208.303 70.5012C208.603 71.0012 208.603 71.6012 208.603 72.2012C208.603 73.6012 210.203 74.4012 210.003 75.7012C209.103 78.0012 211.003 78.6012 212.403 79.9012C213.303 80.4012 214.303 81.0012 215.003 81.8012C215.603 82.4012 216.503 81.8012 217.103 81.4012C218.403 80.3012 219.903 81.6012 221.303 81.1012C222.403 80.6012 223.603 80.3012 224.503 81.4012C226.703 83.4012 229.903 81.7012 232.403 82.7012C234.003 83.4012 234.603 85.0012 235.203 86.6012C235.703 87.4012 236.603 87.9012 237.003 88.8012C237.303 89.4012 237.903 89.8012 238.603 90.1012C243.103 91.2012 239.403 94.0012 241.203 96.1012C242.503 96.5012 243.403 97.6012 244.503 98.2012C246.403 98.7012 248.603 99.2012 250.403 99.6012C252.903 100.601 257.103 103.701 259.003 104.501C259.703 104.801 260.103 104.201 260.703 103.901C261.503 103.401 262.603 103.501 263.303 102.901C264.603 101.801 265.503 102.301 267.303 101.801C268.103 101.601 268.903 101.501 269.703 101.801C270.503 102.101 270.603 103.201 271.403 103.101C272.803 102.801 274.503 102.401 275.303 101.301C275.603 100.701 275.303 100.001 275.603 99.3012C277.103 96.6012 279.503 94.5012 281.603 92.3012C282.503 91.5012 283.103 90.1012 284.403 89.9012C285.103 90.0012 285.803 90.6012 286.603 90.7012C287.703 91.0012 288.803 89.6012 290.003 89.4012C292.203 88.9012 293.303 91.6012 294.503 93.0012C295.203 94.4012 296.703 94.9012 298.203 94.8012C299.303 94.8012 299.203 95.9012 299.803 96.5012C300.403 97.2012 300.603 98.2012 300.103 99.0012C299.703 100.001 298.403 100.701 298.303 101.501C298.503 103.401 299.903 104.901 299.503 107.001C299.503 107.901 299.603 109.201 298.703 109.701C296.303 110.201 296.203 113.001 295.503 115.001C294.603 116.901 291.603 115.301 290.803 117.401C290.403 118.501 289.403 119.501 289.303 120.701C289.303 121.301 289.803 121.701 290.103 122.101C291.103 123.601 290.603 126.201 291.603 127.901C292.803 129.201 290.503 135.201 289.103 135.501C281.103 135.501 283.303 142.901 279.803 147.101C277.203 148.101 275.403 150.401 273.603 152.401C272.103 153.501 273.403 155.101 273.503 156.501C273.103 158.701 271.803 161.201 271.903 163.401C272.303 167.201 269.203 164.601 268.003 166.701C267.703 167.401 267.503 168.401 266.503 168.401C265.603 168.401 264.603 168.701 263.703 168.301C262.003 166.601 259.403 165.001 258.003 167.801C256.903 170.901 255.703 174.501 254.403 177.601C254.303 179.001 255.003 181.501 253.503 182.401C251.503 183.001 250.903 185.301 249.403 186.601C248.103 187.501 246.403 187.901 246.003 189.701C245.003 191.801 244.803 194.201 245.303 196.501C247.303 200.101 249.903 203.401 250.303 207.701C250.103 208.801 248.903 207.401 248.303 207.901C247.203 208.801 245.703 210.101 244.203 209.901C241.703 208.901 236.803 208.601 236.503 205.101C236.503 202.901 234.503 202.201 233.103 201.001C232.603 200.501 232.303 199.501 231.603 199.301C230.603 199.301 229.903 200.101 228.803 199.501C226.903 198.601 226.203 200.901 224.903 201.701C223.603 202.301 224.103 203.801 223.303 204.701C222.503 205.701 220.703 205.001 219.903 205.701C218.503 208.501 216.703 206.801 214.203 206.701C212.903 206.801 211.603 206.901 210.303 207.001C208.903 207.501 208.303 210.101 209.003 211.501C209.703 212.901 211.803 212.701 212.703 214.001C213.103 214.501 213.703 215.601 212.903 215.801C211.003 215.101 210.703 216.001 209.403 217.101C207.203 217.901 208.403 219.701 208.503 221.301C208.503 223.301 206.303 223.501 204.703 224.801C202.003 226.901 201.403 224.201 199.003 223.301C196.703 222.901 195.603 225.401 193.903 226.401C192.103 227.601 189.603 228.301 187.803 229.501C186.203 229.701 184.603 230.301 183.103 231.001C179.203 232.801 176.003 236.101 173.103 239.201C172.203 240.301 171.903 242.001 170.703 242.701C169.603 243.401 168.003 242.701 166.803 242.501C165.703 242.401 164.803 243.001 163.703 242.901C161.403 242.901 161.703 246.101 158.503 244.701C157.103 244.201 155.803 244.401 154.503 243.901C153.203 243.301 152.003 243.901 150.803 244.401C149.903 244.701 148.403 244.001 147.803 244.801C147.103 245.501 147.303 247.101 148.003 247.801C149.503 249.401 151.503 245.601 152.703 247.701C153.803 249.601 150.703 250.401 150.003 251.501C149.503 252.401 150.103 253.501 150.103 254.401C150.103 257.101 146.703 258.101 144.603 258.701C143.103 259.501 140.603 260.001 140.403 262.001C140.203 264.201 139.303 266.201 140.003 268.401C140.103 271.701 137.103 267.901 135.903 267.501C131.103 265.001 126.503 262.601 121.703 260.101C118.103 258.401 114.503 256.101 110.803 254.601C106.003 253.901 100.203 254.001 95.3034 253.601C93.0034 253.801 84.2034 252.201 83.8034 253.701C83.9034 254.401 84.9034 254.701 85.0034 255.501C85.3034 256.801 83.5034 257.501 83.3034 258.601C83.7034 261.101 87.7034 261.601 84.5034 264.201C83.4034 264.701 83.4034 265.901 83.2034 267.001C81.4034 269.101 80.0034 271.901 77.3034 272.701C76.7034 272.801 76.1034 272.501 75.6034 272.601C75.0034 272.601 74.8034 273.101 73.9034 273.001C73.6034 273.001 73.3034 272.901 73.0034 272.901C71.2034 272.301 69.0034 270.201 69.1034 268.001C69.1034 267.201 69.4034 266.501 68.9034 265.801C67.2034 263.601 64.2034 262.901 62.5034 260.901C61.3034 259.501 60.7034 257.401 58.9034 256.701C55.5034 255.601 52.2034 256.701 48.8034 256.601C46.0034 256.601 43.3034 257.501 40.4034 257.001C37.4034 256.001 34.1034 256.001 31.3034 254.401C28.9034 251.801 29.4034 249.601 24.9034 250.301C21.5034 251.001 18.2034 249.901 14.8034 250.501C12.8034 251.001 10.8034 250.301 8.70336 250.301C7.40336 250.301 4.90336 250.501 5.20336 248.701C5.40336 248.101 5.70336 247.901 6.10336 247.701C6.90336 246.901 5.90336 246.301 5.80336 245.501C5.70336 244.701 5.20336 243.801 5.90336 243.101C6.30336 242.101 6.30336 240.801 7.00336 239.701C7.70336 238.701 7.20336 238.001 6.40336 237.301C5.90336 236.601 4.90336 235.501 5.00336 234.501C5.10336 233.801 5.20336 232.901 4.90336 232.301C5.00336 231.801 5.00336 231.101 4.70336 230.801C4.50336 230.501 4.50336 230.301 4.30336 229.801C3.90336 229.201 3.00336 229.001 2.70336 228.201C2.10336 227.301 2.80336 226.201 2.70336 225.101C2.50336 224.601 2.10336 224.101 1.80336 223.701C0.903362 222.401 1.80336 220.701 1.40336 219.201C1.30336 218.201 0.303362 216.301 0.703362 215.601C1.00336 215.201 2.30336 215.401 3.00336 215.001C3.80336 214.701 4.10336 213.801 4.70336 213.301C5.60336 212.501 7.70336 212.701 9.20336 212.801C12.0034 213.901 14.0034 212.801 12.5034 210.001C12.0034 209.101 11.4034 209.401 10.9034 209.701C9.90336 209.801 9.20336 208.501 8.30336 208.201C7.50336 207.601 6.40336 206.701 7.00336 205.601C7.80336 204.301 9.70336 204.101 10.8034 203.101C11.2034 202.701 12.2034 202.101 12.6034 201.901C13.3034 201.601 11.8034 201.001 12.5034 200.601C12.6034 200.501 12.7034 200.501 12.8034 200.501C13.8034 200.201 13.3034 199.601 13.6034 198.801C14.2034 197.701 15.1034 196.001 15.9034 195.501C16.6034 195.201 17.4034 195.501 18.1034 195.601C19.1034 195.801 19.8034 195.101 20.7034 195.301C21.4034 195.401 22.3034 195.701 22.9034 195.101C24.0034 193.701 26.1034 196.001 27.3034 194.601C27.8034 193.901 28.3034 193.001 29.3034 192.501C30.3034 192.001 31.4034 192.301 32.3034 192.401C33.1034 192.401 34.2034 192.401 34.9034 192.401C35.6034 192.401 36.3034 191.901 37.0034 192.101C38.3034 193.401 38.3034 192.601 38.4034 191.301C39.0034 188.601 37.7034 186.201 35.1034 185.301C34.3034 185.001 33.7034 183.901 33.1034 183.801C32.5034 183.701 31.8034 183.901 31.5034 183.201C31.4034 182.801 32.3034 182.301 32.8034 182.001C33.3034 181.601 33.5034 181.101 33.6034 180.301C33.8034 179.501 33.7034 178.301 33.1034 177.601C32.7034 177.101 32.1034 176.801 32.2034 176.101C33.6034 173.301 36.4034 170.901 37.0034 167.701C37.5034 167.101 38.4034 167.901 38.9034 168.201C42.2034 170.101 43.9034 166.401 43.0034 163.701C43.2034 162.601 42.9034 162.301 42.1034 161.701C41.3034 161.201 41.5034 160.401 41.1034 159.801C40.5034 159.101 40.6034 158.301 40.8034 157.401C41.3034 155.301 40.0034 153.401 39.8034 151.501C39.7034 150.801 39.5034 150.401 40.2034 150.101C41.9034 149.301 44.0034 149.901 45.7034 150.301C47.1034 149.601 48.0034 147.501 48.1034 145.901C48.1034 144.701 47.0034 143.801 46.2034 142.901C45.3034 142.001 45.0034 140.801 44.1034 140.001C43.0034 138.901 41.3034 138.901 39.9034 138.601C37.6034 138.101 36.5034 136.001 35.0034 134.501C34.1034 133.901 32.7034 134.001 31.9034 133.501C30.8034 132.501 30.6034 130.301 29.7034 129.001C29.3034 128.501 28.9034 128.201 28.3034 128.101C26.0034 127.901 27.0034 125.101 26.0034 123.801C25.1034 121.801 21.8034 120.901 22.5034 118.301C22.7034 117.101 25.5034 118.201 25.5034 117.201C24.7034 115.701 22.8034 114.401 22.4034 112.701C27.6034 111.801 25.4034 109.901 26.7034 106.401C28.5034 103.501 34.9034 113.001 34.6034 105.201C34.4034 104.701 33.7034 104.401 33.1034 104.001C31.7034 103.201 30.6034 101.001 31.8034 99.6012C34.1034 97.1012 33.9034 96.8012 37.3034 97.8012C39.1034 98.3012 41.0034 96.6012 42.6034 97.5012C43.2034 97.8012 43.9034 98.1012 44.6034 97.9012C46.1034 97.9012 47.1034 96.3012 48.5034 96.4012C48.9034 96.4012 49.3034 96.5012 49.7034 96.5012C51.0034 96.1012 51.1034 93.6012 51.1034 92.4012C51.1034 91.7012 51.0034 90.9012 51.8034 90.8012C52.4034 90.6012 53.2034 90.6012 53.5034 89.9012C54.1034 88.5012 54.8034 87.2012 54.5034 85.6012C54.2034 84.2012 53.2034 82.0012 54.7034 81.0012C56.3034 80.5012 58.7034 81.4012 60.1034 82.1012C61.2034 82.8012 62.4034 82.5012 63.4034 82.0012C64.0034 81.7012 64.6034 81.9012 65.2034 82.3012C68.2034 84.9012 71.0034 83.5012 74.3034 82.5012C76.2034 81.7012 78.2034 82.8012 80.1034 82.2012C81.3034 81.6012 81.9034 79.5012 83.3034 79.1012C85.6034 78.9012 87.9034 78.5012 90.2034 77.7012C91.4034 77.1012 92.6034 76.4012 93.9034 76.0012C96.9034 74.3012 92.7034 69.6012 95.2034 67.6012C96.0034 67.3012 96.9034 67.0012 97.2034 66.1012C97.7034 64.5012 96.3034 63.0012 97.9034 61.8012C100.603 59.1012 102.603 55.2012 105.603 52.9012C106.603 51.8012 106.703 50.0012 107.703 48.9012C108.403 48.3012 109.603 48.9012 110.103 48.0012C111.103 44.9012 109.603 41.6012 111.203 38.7012C111.803 37.7012 112.503 36.8012 112.103 35.6012C111.903 34.5012 110.803 33.9012 111.103 32.8012C112.003 30.9012 114.603 32.4012 115.003 30.1012C115.303 29.0012 117.803 29.6012 118.003 28.5012C118.503 26.1012 115.703 24.4012 116.003 22.0012L115.603 21.9012Z" fill="#BE935F" fill-opacity="0.3" stroke="#6E553B" stroke-width="2" mask="url(#path-1-inside-1_6278_17177)"/>
    <g clip-path="url(#clip0_6278_17177)">
    <path d="M63.182 232.7C66.8654 230.886 70.8608 228.182 75.0872 225.316C82.003 220.626 89.1573 215.779 95.8235 214.288C96.3429 214.173 96.8724 214.069 97.3843 213.969C98.2958 213.791 99.237 213.61 100.134 213.349C102.182 212.749 104.118 211.696 105.992 210.679L106.597 210.352C111.825 207.523 117.29 204.999 122.835 202.845L123.152 203.663C117.642 205.802 112.212 208.311 107.011 211.122L106.409 211.449C104.497 212.488 102.519 213.563 100.38 214.189C99.4446 214.463 98.4802 214.648 97.5511 214.828C97.0448 214.927 96.5209 215.029 96.0126 215.14C89.5097 216.594 82.4262 221.394 75.5783 226.037C71.3267 228.92 67.3099 231.644 63.5698 233.482L63.183 232.693L63.182 232.7Z" fill="#6F553B"/>
    <path d="M65.8409 239.182C69.7504 236.659 74.0876 234.804 78.2836 233.006C80.4722 232.069 82.7342 231.102 84.9044 230.051C87.8678 228.617 90.7943 226.965 93.625 225.368C98.2275 222.772 102.988 220.085 108.052 218.25C110.056 217.523 112.145 216.916 114.167 216.328C118.466 215.079 122.911 213.785 126.649 211.295L127.135 212.028C123.284 214.59 118.773 215.905 114.412 217.175C112.405 217.758 110.33 218.363 108.353 219.079C103.359 220.891 98.6319 223.558 94.0602 226.135C91.2165 227.739 88.2797 229.398 85.2921 230.842C83.1061 231.901 80.8329 232.872 78.6369 233.815C74.4753 235.595 70.1715 237.44 66.3254 239.921L65.8502 239.182L65.8409 239.182Z" fill="#6F553B"/>
    <path d="M117.56 203.315L118.204 202.72C119.88 204.528 120.989 206.754 122.065 208.907C122.986 210.75 123.937 212.657 125.232 214.257L124.549 214.809C123.197 213.136 122.223 211.187 121.282 209.301C120.236 207.203 119.151 205.034 117.561 203.318L117.56 203.315Z" fill="#6F553B"/>
    <path d="M110.22 206.915L110.86 206.315C113.75 209.407 116.258 212.851 118.313 216.549L117.546 216.975C115.523 213.338 113.059 209.953 110.219 206.912L110.22 206.915Z" fill="#6F553B"/>
    <path d="M103.54 209.615L104.304 209.181C106.47 213.002 109.254 216.397 112.575 219.271L112.001 219.933C108.603 216.991 105.757 213.519 103.542 209.611L103.54 209.615Z" fill="#6F553B"/>
    <path d="M87.9752 216.122L88.7465 215.7C90.8135 219.493 93.0474 223.259 95.3834 226.893L94.6449 227.368C92.297 223.716 90.0541 219.931 87.9752 216.122Z" fill="#6F553B"/>
    <path d="M78.3416 220.926L79.112 220.502C80.9782 223.901 83.8513 228.285 86.4331 231.671L85.7348 232.204C83.1302 228.785 80.2306 224.358 78.3444 220.925L78.3416 220.926Z" fill="#6F553B"/>
    <path d="M70.6656 225.147L71.4957 224.861C71.8705 225.945 72.5757 226.929 73.2581 227.881L73.5331 228.266C75.2768 230.723 76.7892 233.359 78.0294 236.105L77.23 236.468C76.0124 233.773 74.5282 231.186 72.8175 228.773L72.5443 228.394C71.8244 227.393 71.0836 226.356 70.6665 225.15L70.6656 225.147Z" fill="#6F553B"/>
    <path d="M95.8302 212.479L96.6278 212.111C98.4009 215.955 100.63 219.59 103.253 222.914L102.564 223.456C99.8984 220.078 97.6323 216.384 95.8302 212.479Z" fill="#6F553B"/>
    </g>
    <g clip-path="url(#clip1_6278_17177)">
    <path d="M185.551 86.66L182.504 83.9869L179.832 82.5646L177.603 79.1403L173.831 78.2899L170.021 76.0134L168.346 77.8933L164.32 78.0421L161.857 80.0326L160.265 80.5398L158.337 77.1993L156.79 77.9467C155.104 77.7179 153.27 77.4548 152.976 77.3938C152.719 77.2794 151.238 76.4939 149.932 75.7922L149.612 75.6206L147.845 77.0392L144.641 76.5168L143.76 77.2298L141.966 76.6426L137.531 74L134.793 76.0592C134.235 75.266 133.959 75.1707 133.859 75.1364C133.569 75.0372 130.845 74.1411 130.845 74.1411L130.495 74.0267L128.479 76.4024H124.285L120.68 79.0144L119.899 77.4891L116.07 76.2994L112.472 82.0346L108.137 83.0451L106.623 86.9727L104.108 89.1692L99.6094 93.7642L100.398 94.5726L104.848 90.0119L107.557 87.6477L108.956 84.0136L113.16 83.0336L116.55 77.6302L119.125 78.431L120.282 80.6885L120.453 80.5626L122.172 82.0079H124.855L126.908 84.9098L129.829 85.844L129.61 86.1338L125.305 89.0662L119.411 94.9539L120.192 95.7738L125.967 89.9928L130.38 86.988L132.538 84.1585L134.335 81.5731L134.793 80.5893L138.353 82.1184L139.432 83.3501L140.389 88.0519L144.675 89.4819L148.251 91.5067L153.776 97.0741L154.557 96.258L148.92 90.5839L145.166 88.4561L143.908 88.0328L147.272 86.2902L151.097 82.2252L155.242 81.4244L157.232 79.003L157.898 78.6827L159.759 81.9049L159.911 81.8553L162.084 83.4722L163.893 83.8992L167.152 84.2234L169.44 88.8679L171.301 91.4762L174.791 93.6726L175.375 92.6964L172.071 90.6144L170.415 88.3074L167.87 83.1442L164.105 82.7743L162.553 82.4083L161.24 81.4321L162.386 81.066L164.726 79.1746L168.856 79.0221L170.24 77.4701L173.421 79.3729L176.926 80.1622L179.066 83.4493L181.83 84.9059L184.732 87.4456L187.761 91.0682L188.609 90.3246L185.551 86.6677V86.66ZM134.231 79.1022L133.394 80.9478L131.641 83.4722L130.566 84.8831L127.597 83.9336L125.428 80.8677H122.577L121.405 79.8839L124.642 77.5387H128.992L130.86 75.3385C131.567 75.5711 133.118 76.082 133.468 76.2003C133.602 76.3147 133.929 76.757 134.19 77.1726L134.51 77.6874L137.609 75.3575L141.468 77.6569L142.807 78.1031L140.895 79.9182L138.673 81.0126L134.235 79.1098L134.231 79.1022ZM154.643 80.3643L150.539 81.1575L146.599 85.3483L142.409 87.5218L141.349 87.1634L140.463 82.8125L139.596 81.821L141.527 80.8715L144.24 78.2937L144.954 77.7179L148.158 78.2404L149.739 76.9705C151.015 77.6569 152.433 78.4081 152.634 78.4768C152.786 78.5302 153.854 78.6903 155.804 78.9611L154.646 80.372L154.643 80.3643Z" fill="#6F553B"/>
    </g>
    <path d="M214.812 108.988C212.145 117.655 199.822 139.488 157.319 130.488C116.469 121.838 105.22 155.655 105.887 168.988" stroke="#6F553B" stroke-width="0.5" stroke-linejoin="round" stroke-dasharray="2 2"/>
    <circle cx="214.891" cy="104.488" r="4.5" fill="#6F553B"/>
    <g clip-path="url(#clip2_6278_17177)">
    <path d="M111.807 172.488C112.13 172.488 112.391 172.227 112.391 171.904V170.738C112.391 170.415 112.13 170.154 111.807 170.154H91.974C91.6517 170.154 91.3906 170.415 91.3906 170.738V171.904C91.3906 172.227 91.6517 172.488 91.974 172.488H92.5566V186.488H91.974C91.6517 186.488 91.3906 186.749 91.3906 187.071V188.238C91.3906 188.56 91.6517 188.821 91.974 188.821H100.724V185.904C100.724 185.583 100.986 185.321 101.307 185.321H102.474C102.795 185.321 103.057 185.583 103.057 185.904V188.821H111.807C112.13 188.821 112.391 188.56 112.391 188.238V187.071C112.391 186.749 112.13 186.488 111.807 186.488H111.224V172.488H111.807ZM100.724 174.121C100.724 173.888 100.957 173.654 101.191 173.654H102.591C102.824 173.654 103.057 173.888 103.057 174.121V175.521C103.057 175.754 102.824 175.988 102.591 175.988H101.191C100.957 175.988 100.724 175.754 100.724 175.521V174.121ZM100.724 177.621C100.724 177.388 100.957 177.154 101.191 177.154H102.591C102.824 177.154 103.057 177.388 103.057 177.621V179.021C103.057 179.254 102.824 179.488 102.591 179.488H101.191C100.957 179.488 100.724 179.254 100.724 179.021V177.621ZM96.0573 174.121C96.0573 173.888 96.2906 173.654 96.524 173.654H97.924C98.1573 173.654 98.3906 173.888 98.3906 174.121V175.521C98.3906 175.754 98.1573 175.988 97.924 175.988H96.524C96.2906 175.988 96.0573 175.754 96.0573 175.521V174.121ZM97.924 179.488H96.524C96.2906 179.488 96.0573 179.254 96.0573 179.021V177.621C96.0573 177.388 96.2906 177.154 96.524 177.154H97.924C98.1573 177.154 98.3906 177.388 98.3906 177.621V179.021C98.3906 179.254 98.1573 179.488 97.924 179.488ZM98.3906 184.154C98.3906 182.221 99.9576 180.654 101.891 180.654C103.824 180.654 105.391 182.221 105.391 184.154H98.3906ZM107.724 179.021C107.724 179.254 107.491 179.488 107.257 179.488H105.857C105.624 179.488 105.391 179.254 105.391 179.021V177.621C105.391 177.388 105.624 177.154 105.857 177.154H107.257C107.491 177.154 107.724 177.388 107.724 177.621V179.021ZM107.724 175.521C107.724 175.754 107.491 175.988 107.257 175.988H105.857C105.624 175.988 105.391 175.754 105.391 175.521V174.121C105.391 173.888 105.624 173.654 105.857 173.654H107.257C107.491 173.654 107.724 173.888 107.724 174.121V175.521Z" fill="#6F553B"/>
    </g>
    <g clip-path="url(#clip3_6278_17177)">
    <path d="M201.544 176.113C201.428 175.37 201.278 174.817 201.027 174.201C200.891 173.87 200.643 173.686 200.424 173.525C200.369 173.484 200.314 173.444 200.262 173.4C200.126 173.288 199.988 173.15 199.842 173.005C199.488 172.653 199.087 172.253 198.578 172.098C197.794 171.858 196.771 172.062 196.151 172.353C195.723 172.554 195.268 172.74 194.788 172.937C193.843 173.325 192.868 173.725 192.057 174.259C191.583 174.572 191.211 175.054 190.883 175.479C190.81 175.574 190.738 175.668 190.664 175.758C190.387 176.104 190.13 176.265 189.804 176.469C189.642 176.571 189.458 176.685 189.262 176.832C188.832 177.155 188.54 177.554 188.257 177.941C187.887 178.449 187.567 178.886 186.988 179.107C186.727 179.206 186.436 179.227 186.127 179.25C186.125 179.25 186.123 179.25 186.12 179.25L183.817 158.756L182.82 96.0272V-0.755859H182.183V98.3123L179.419 182.327C179.285 182.312 179.153 182.282 179.016 182.227C178.892 182.177 178.781 182.129 178.675 182.083C178.258 181.903 177.897 181.746 177.296 181.739C176.029 181.724 175.158 182.217 174.064 182.916C173.521 183.263 173.27 183.463 172.965 184.057C172.799 184.379 172.566 184.71 172.272 185.043C171.937 185.42 171.672 185.908 171.46 186.532C171.342 186.884 171.262 187.238 171.185 187.581L171.155 187.717C171.143 187.767 171.134 187.798 171.129 187.807C171.1 187.843 171.055 187.873 170.997 187.912C170.899 187.979 170.777 188.061 170.677 188.212C170.574 188.366 170.461 188.512 170.341 188.667L170.256 188.776C169.018 190.382 168.956 192.719 168.9 194.78C168.884 195.357 168.871 195.902 168.831 196.411C168.815 196.621 168.798 196.831 168.783 197.043C168.7 198.096 168.614 199.185 168.609 200.241C168.604 201.687 168.818 202.919 169.058 204.158C169.478 206.336 170.04 208.807 171.394 210.571C171.489 210.695 171.591 210.852 171.69 211.004C171.782 211.147 171.879 211.294 171.972 211.418C172.116 211.611 172.274 211.78 172.427 211.944C172.491 212.013 172.555 212.083 172.62 212.153C173.568 213.211 174.401 213.977 175.614 214.525C176.281 214.825 177.014 214.99 177.681 214.99H177.698C178.071 214.989 178.424 214.969 178.743 214.933C178.967 214.908 179.208 214.808 179.422 214.72C179.531 214.676 179.635 214.633 179.705 214.614C180.132 214.499 180.621 214.309 181.093 214.128C181.519 213.963 181.959 213.793 182.342 213.681C183.597 213.314 185.203 212.808 186.505 212.145C187.328 211.726 187.997 210.892 188.492 209.669C189.235 207.827 190.501 206.375 191.839 204.838C193.035 203.463 194.272 202.043 195.089 200.328C195.212 200.069 195.341 199.807 195.469 199.543C196.017 198.422 196.584 197.264 196.923 196.073C197.166 195.219 197.391 194.34 197.61 193.491C197.784 192.813 197.963 192.113 198.149 191.438C198.438 190.387 198.863 189.355 199.272 188.359C199.435 187.965 199.603 187.557 199.76 187.152C200.245 185.909 200.538 184.55 200.712 182.747C200.782 182.023 200.956 181.292 201.125 180.587C201.293 179.887 201.466 179.162 201.542 178.429C201.575 178.105 201.674 176.978 201.54 176.115L201.544 176.113ZM187.213 179.714C187.968 179.427 188.376 178.868 188.77 178.328C189.036 177.963 189.287 177.62 189.641 177.355C189.816 177.224 189.979 177.121 190.139 177.022C190.486 176.804 190.814 176.6 191.159 176.168C191.233 176.075 191.309 175.978 191.384 175.88C191.696 175.477 192.018 175.059 192.405 174.804C192.99 174.417 193.687 174.098 194.396 173.801C194.247 174.482 194.143 175.808 194.062 177.014C193.047 177.451 191.774 178.156 190.852 178.68C190.622 178.811 190.393 178.942 190.163 179.07L189.697 179.331C188.602 179.945 187.486 180.571 186.334 181.13L186.195 179.894C186.529 179.871 186.873 179.842 187.213 179.714ZM182.417 110.635L183.183 158.782V158.798L185.49 179.323C185.345 179.352 185.201 179.393 185.062 179.456C184.605 179.663 184.193 179.932 183.795 180.192C183.679 180.268 183.562 180.345 183.442 180.421C183.259 180.537 183.033 180.633 182.793 180.736C182.371 180.916 181.934 181.102 181.642 181.438C181.532 181.566 181.446 181.678 181.37 181.776C181.125 182.097 181.051 182.195 180.559 182.248C180.46 182.259 180.364 182.27 180.269 182.282C180.197 182.291 180.128 182.3 180.06 182.308L182.417 110.635ZM180.039 182.964C180.143 182.953 180.246 182.94 180.349 182.927C180.44 182.915 180.533 182.905 180.627 182.894C181.351 182.816 181.572 182.57 181.874 182.175C181.944 182.084 182.022 181.981 182.12 181.869C182.315 181.644 182.684 181.487 183.039 181.336C183.292 181.227 183.553 181.117 183.78 180.973C183.902 180.895 184.022 180.817 184.14 180.739C184.533 180.481 184.906 180.237 185.319 180.051C185.395 180.017 185.476 179.992 185.562 179.972L185.725 181.419C184.985 181.758 184.231 182.065 183.456 182.319C183.027 182.46 182.604 182.612 182.195 182.76C181.457 183.025 180.759 183.276 180.021 183.468L180.038 182.964H180.039ZM177.293 182.387C177.768 182.393 178.031 182.507 178.429 182.681C178.54 182.728 178.656 182.779 178.786 182.831C178.997 182.915 179.201 182.959 179.4 182.977L179.379 183.591C178.352 183.702 177.249 183.447 176.261 183.216H176.259L176.119 183.849C176.98 184.049 177.922 184.269 178.86 184.269C179.027 184.269 179.193 184.26 179.358 184.245L179.228 188.211C179.173 188.286 179.115 188.382 179.028 188.493C178.708 188.489 178.272 189.292 178.387 189.538C178.56 189.91 178.996 190.054 179.339 189.928C179.519 189.862 179.66 189.734 179.847 189.688C180.088 189.628 180.228 189.695 180.397 189.479C180.649 189.155 180.817 188.396 180.413 188.2C180.266 188.129 180.061 188.082 179.87 188.052L179.998 184.142C180.019 184.138 180.039 184.135 180.059 184.129C180.869 183.926 181.651 183.645 182.408 183.372C182.812 183.226 183.231 183.075 183.651 182.938C184.387 182.697 185.102 182.41 185.801 182.096L186.345 186.937C186.011 186.976 185.49 187.418 185.498 187.651C185.51 188.062 185.854 188.372 186.219 188.396C186.41 188.408 186.589 188.348 186.777 188.382C187.021 188.425 187.124 188.544 187.363 188.414C187.721 188.219 188.173 187.592 187.878 187.248C187.723 187.068 187.439 186.881 187.228 186.764C187.118 186.702 187.036 186.687 186.96 186.701L186.411 181.813C187.648 181.222 188.838 180.556 190.004 179.901L190.469 179.64C190.699 179.511 190.93 179.379 191.162 179.248C192.086 178.724 193.041 178.182 194.013 177.769C193.962 178.575 193.922 179.233 193.884 179.458C193.752 180.231 193.436 180.928 193.143 181.656C191.917 184.689 190.297 187.964 188.444 190.529C187.563 191.751 186.531 192.763 185.682 194.007C184.764 195.355 183.948 196.188 182.546 196.968C179.831 198.477 176.504 197.934 175.754 194.578C175.392 192.959 175.191 191.385 174.945 189.724C174.729 188.257 174.678 185.085 174.595 183.347C175.535 182.755 176.266 182.375 177.293 182.388V182.387ZM200.912 178.359C200.841 179.048 200.679 179.72 200.509 180.431C200.335 181.158 200.156 181.911 200.082 182.682C199.914 184.423 199.632 185.726 199.172 186.911C199.017 187.31 198.85 187.715 198.688 188.106C198.27 189.122 197.838 190.171 197.538 191.262C197.352 191.942 197.171 192.645 196.997 193.325C196.78 194.17 196.555 195.044 196.314 195.892C195.991 197.026 195.438 198.157 194.902 199.252C194.771 199.519 194.643 199.781 194.519 200.042C193.739 201.677 192.532 203.064 191.365 204.405C190.05 205.915 188.69 207.478 187.906 209.42C187.471 210.494 186.906 211.216 186.224 211.563C184.97 212.202 183.398 212.696 182.17 213.055C181.761 213.174 181.309 213.35 180.87 213.519C180.413 213.696 179.94 213.88 179.544 213.987C179.437 214.016 179.316 214.066 179.187 214.118C179.012 214.189 178.812 214.271 178.675 214.287C178.377 214.32 178.048 214.339 177.696 214.34H177.683C177.111 214.34 176.452 214.19 175.873 213.93C174.91 213.496 174.221 212.922 173.462 212.117C173.473 212.124 173.483 212.131 173.493 212.14C174.156 212.693 174.474 212.885 175.297 213.096C175.988 213.274 176.602 213.386 177.221 213.386C177.84 213.386 178.433 213.278 179.121 213.017C179.593 212.839 180.055 212.617 180.501 212.404C181.143 212.096 181.808 211.777 182.5 211.588C183.649 211.273 184.444 210.536 185.286 209.756C185.39 209.66 185.495 209.563 185.603 209.465C186.763 208.407 187.633 207.151 188.475 205.937C189.096 205.041 189.738 204.114 190.487 203.285C192.218 201.37 194.126 199.091 194.865 196.287C195.001 195.77 195.113 195.24 195.223 194.726C195.423 193.781 195.631 192.804 195.986 191.929C196.36 191.006 196.595 190.071 196.822 189.164C197.035 188.314 197.255 187.436 197.588 186.587L196.997 186.345C196.649 187.234 196.423 188.133 196.205 189.003C195.983 189.887 195.754 190.801 195.397 191.681C195.021 192.609 194.806 193.615 194.6 194.588C194.493 195.093 194.382 195.617 194.25 196.117C193.548 198.78 191.697 200.986 190.019 202.843C189.242 203.704 188.587 204.647 187.955 205.56C187.133 206.745 186.283 207.971 185.177 208.979C185.069 209.078 184.962 209.176 184.857 209.274C184.074 210 183.335 210.685 182.334 210.958C181.587 211.163 180.897 211.494 180.229 211.814C179.774 212.032 179.344 212.238 178.898 212.407C177.654 212.879 176.727 212.791 175.452 212.465C174.721 212.277 174.491 212.131 173.895 211.635C173.7 211.472 173.488 211.426 173.301 211.385C172.982 211.315 172.652 211.243 172.177 210.572C172.086 210.431 171.991 210.291 171.896 210.166C170.628 208.515 170.089 206.132 169.683 204.027C169.45 202.822 169.242 201.624 169.248 200.238C169.252 199.207 169.337 198.13 169.419 197.089C169.436 196.877 169.451 196.666 169.467 196.455C169.508 195.931 169.523 195.378 169.537 194.793C169.582 193.14 169.631 191.302 170.308 189.904C170.325 192.025 170.43 195.17 170.781 196.962C171.126 198.73 170.926 200.692 171.361 202.47C171.568 203.321 172.234 204.072 172.796 204.752C173.226 205.273 173.895 206.384 174.462 206.683C175.748 207.362 178.617 207.046 179.859 206.467C181.8 205.561 183.756 205.685 185.178 203.902C186.349 202.432 187.716 201.088 188.959 199.67C190.199 198.256 191.477 196.548 192.344 194.804C193.274 192.932 193.8 190.82 194.506 188.875C196.036 184.657 198.692 181.006 199.612 176.512C199.71 176.035 199.86 174.739 199.988 174.001C200.008 174.016 200.027 174.031 200.046 174.046C200.219 174.174 200.368 174.284 200.435 174.448C200.667 175.011 200.805 175.522 200.911 176.21C200.994 176.74 200.993 177.542 200.908 178.355L200.912 178.359Z" fill="#6F553B"/>
    </g>
    <defs>
    <clipPath id="clip0_6278_17177">
    <rect width="19.5217" height="67.2137" fill="white" transform="translate(123.57 200.988) rotate(72.1072)"/>
    </clipPath>
    <clipPath id="clip1_6278_17177">
    <rect width="89" height="23.0741" fill="white" transform="translate(99.6094 73.9883)"/>
    </clipPath>
    <clipPath id="clip2_6278_17177">
    <rect width="21" height="21" fill="white" transform="translate(91.3906 168.988)"/>
    </clipPath>
    <clipPath id="clip3_6278_17177">
    <rect width="33" height="130" fill="white" transform="translate(168.609 84.9883)"/>
    </clipPath>
    </defs>
    </svg>
    